M48
; DRILL file {KiCad 9.0.3} date 2025-07-27T22:52:35+0200
; FORMAT={-:-/ absolute / inch / decimal}
; #@! TF.CreationDate,2025-07-27T22:52:35+02:00
; #@! TF.GenerationSoftware,Kicad,Pcbnew,9.0.3
; #@! TF.FileFunction,Plated,1,4,PTH
FMAT,2
INCH
; #@! TA.AperFunction,Plated,PTH,ViaDrill
T1C0.0118
; #@! TA.AperFunction,Plated,PTH,ComponentDrill
T2C0.0394
; #@! TA.AperFunction,Plated,PTH,ComponentDrill
T3C0.0866
%
G90
G05
T1
X0.4134Y-2.9823
X0.4134Y-3.1398
X0.4134Y-3.2972
X0.4134Y-3.4547
X0.4528Y-1.565
X0.4528Y-2.2736
X0.4921Y-1.5846
X0.4921Y-2.2933
X0.4921Y-2.9823
X0.4921Y-3.1398
X0.4921Y-3.2972
X0.4921Y-3.4547
X0.5315Y-1.565
X0.5315Y-2.2736
X0.5709Y-1.5846
X0.5709Y-2.2933
X0.5709Y-2.9823
X0.5709Y-3.1398
X0.5709Y-3.2972
X0.5709Y-3.4547
X0.6102Y-1.565
X0.6102Y-2.2736
X0.6496Y-1.5846
X0.6496Y-2.2933
X0.689Y-1.565
X0.689Y-2.2736
X0.689Y-3.002
X0.689Y-3.1594
X0.689Y-3.3169
X0.689Y-3.4744
X0.7283Y-1.5846
X0.7283Y-2.2933
X0.7677Y-3.002
X0.7677Y-3.1594
X0.7677Y-3.3169
X0.7677Y-3.4744
X0.8071Y-1.565
X0.8071Y-2.2736
X0.8386Y-2.9429
X0.8386Y-3.0413
X0.8386Y-3.1004
X0.8386Y-3.1988
X0.8386Y-3.2579
X0.8386Y-3.3563
X0.8386Y-3.4154
X0.8386Y-3.5138
X0.8465Y-2.2933
X0.8858Y-1.565
X0.8858Y-2.2736
X0.8858Y-2.9823
X0.8858Y-3.1398
X0.8858Y-3.2972
X0.8858Y-3.4547
X0.9252Y-1.5846
X0.9252Y-2.2933
X0.9252Y-3.1594
X0.9252Y-3.4744
X0.9291Y-3.002
X0.9291Y-3.3169
X0.9646Y-1.565
X0.9646Y-2.2736
X0.9646Y-2.9823
X0.9646Y-3.1398
X0.9646Y-3.2972
X0.9646Y-3.4547
X1.0039Y-2.2933
X1.0039Y-3.002
X1.0039Y-3.1594
X1.0039Y-3.3169
X1.0039Y-3.4744
X1.0433Y-1.565
X1.0433Y-2.2736
X1.0433Y-2.9823
X1.0433Y-3.1398
X1.0433Y-3.2972
X1.0433Y-3.4547
X1.0827Y-1.5846
X1.0827Y-2.2933
X1.0827Y-3.1594
X1.0827Y-3.4744
X1.0866Y-3.002
X1.0866Y-3.3169
X1.122Y-2.9823
X1.122Y-3.1398
X1.122Y-3.2972
X1.122Y-3.4547
X1.1535Y-2.2343
X1.1535Y-2.3327
X1.1614Y-1.565
X1.1614Y-3.002
X1.1614Y-3.1594
X1.1614Y-3.3169
X1.1614Y-3.4744
X1.2008Y-2.2736
X1.2008Y-2.9823
X1.2008Y-3.1398
X1.2008Y-3.2972
X1.2008Y-3.4547
X1.2402Y-1.565
X1.2795Y-1.5846
X1.2795Y-2.2736
X1.2795Y-2.9823
X1.2795Y-3.1398
X1.2795Y-3.2972
X1.2795Y-3.4547
X1.3189Y-1.565
X1.3583Y-2.2736
X1.3583Y-2.9823
X1.3583Y-3.1398
X1.3583Y-3.2972
X1.3583Y-3.4547
X1.3976Y-1.565
X1.3976Y-2.2933
X1.3976Y-3.0024
X1.3976Y-3.1594
X1.3976Y-3.3173
X1.3976Y-3.4744
X1.437Y-1.5846
X1.4764Y-2.2736
X1.4764Y-3.002
X1.4764Y-3.1594
X1.4764Y-3.3169
X1.4764Y-3.4744
X1.5157Y-1.565
X1.5551Y-2.2736
X1.5551Y-3.002
X1.5551Y-3.1594
X1.5551Y-3.3169
X1.5551Y-3.4744
X1.5945Y-1.565
X1.626Y-2.9429
X1.626Y-3.0413
X1.626Y-3.1004
X1.626Y-3.1988
X1.626Y-3.2579
X1.626Y-3.3563
X1.626Y-3.4154
X1.626Y-3.5138
X1.6339Y-1.5846
X1.6339Y-2.2736
X1.6732Y-1.565
X1.6732Y-2.2933
X1.6732Y-2.9823
X1.6732Y-3.1398
X1.6732Y-3.2972
X1.6732Y-3.4547
X1.7126Y-3.1594
X1.7126Y-3.4744
X1.7165Y-3.002
X1.7165Y-3.3169
X1.752Y-1.565
X1.752Y-2.2736
X1.752Y-2.9823
X1.752Y-3.1398
X1.752Y-3.2972
X1.752Y-3.4547
X1.7913Y-1.5846
X1.7913Y-3.002
X1.7913Y-3.1594
X1.7913Y-3.3169
X1.7913Y-3.4744
X1.8307Y-2.2736
X1.8307Y-2.9823
X1.8307Y-3.1398
X1.8307Y-3.2972
X1.8307Y-3.4547
X1.8701Y-1.565
X1.8701Y-3.1594
X1.8701Y-3.4744
X1.874Y-3.002
X1.874Y-3.3169
X1.9094Y-2.2736
X1.9094Y-2.9823
X1.9094Y-3.1398
X1.9094Y-3.2972
X1.9094Y-3.4547
X1.9488Y-1.565
X1.9488Y-3.002
X1.9488Y-3.1594
X1.9488Y-3.3169
X1.9488Y-3.4744
X1.9882Y-1.5846
X1.9882Y-2.2736
X1.9882Y-2.9823
X1.9882Y-3.1398
X1.9882Y-3.2972
X1.9882Y-3.4547
X2.0276Y-1.565
X2.0276Y-2.2933
X2.0669Y-2.9823
X2.0669Y-3.1398
X2.0669Y-3.2972
X2.0669Y-3.4547
X2.1063Y-1.565
X2.1063Y-2.2736
X2.1457Y-1.5846
X2.1457Y-2.9823
X2.1457Y-3.1398
X2.1457Y-3.2972
X2.1457Y-3.4547
X2.1791Y-3.6016
X2.185Y-2.2736
X2.2244Y-1.565
X2.2244Y-3.1398
X2.2244Y-3.2972
X2.2244Y-3.4547
X2.2638Y-2.2736
X2.2638Y-3.002
X2.2638Y-3.1594
X2.2638Y-3.3169
X2.2638Y-3.4744
X2.3031Y-1.565
X2.3425Y-2.2736
X2.3425Y-3.002
X2.3425Y-3.1594
X2.3425Y-3.3169
X2.3425Y-3.4744
X2.3819Y-1.565
X2.3819Y-2.2933
X2.4134Y-2.9429
X2.4134Y-3.0413
X2.4134Y-3.1004
X2.4134Y-3.1988
X2.4134Y-3.2579
X2.4134Y-3.3563
X2.4134Y-3.4154
X2.4134Y-3.5138
X2.4213Y-1.5846
X2.4606Y-1.565
X2.4606Y-2.2736
X2.4606Y-2.9823
X2.4606Y-3.1398
X2.4606Y-3.2972
X2.4606Y-3.4547
X2.5Y-3.1594
X2.5Y-3.4744
X2.5039Y-3.002
X2.5039Y-3.3169
X2.5394Y-1.565
X2.5394Y-2.2736
X2.5394Y-2.9823
X2.5394Y-3.1398
X2.5394Y-3.2972
X2.5394Y-3.4547
X2.5787Y-3.002
X2.5787Y-3.1594
X2.5787Y-3.3169
X2.5787Y-3.4744
X2.6181Y-1.565
X2.6181Y-2.2736
X2.6181Y-2.9823
X2.6181Y-3.1398
X2.6181Y-3.2972
X2.6181Y-3.4547
X2.6575Y-1.5846
X2.6575Y-3.1594
X2.6575Y-3.4744
X2.6614Y-3.002
X2.6614Y-3.3169
X2.6969Y-2.2736
X2.6969Y-2.9823
X2.6969Y-3.1398
X2.6969Y-3.2972
X2.6969Y-3.4547
X2.7362Y-1.565
X2.7362Y-2.2933
X2.7362Y-3.002
X2.7362Y-3.1594
X2.7362Y-3.3169
X2.7362Y-3.4744
X2.7756Y-2.9823
X2.7756Y-3.1398
X2.7756Y-3.2972
X2.7756Y-3.4547
X2.815Y-1.565
X2.815Y-2.2736
X2.8543Y-2.9823
X2.8543Y-3.1398
X2.8543Y-3.2972
X2.8543Y-3.4547
X2.8937Y-1.565
X2.8937Y-2.2736
X2.9331Y-1.5846
X2.9331Y-2.9823
X2.9331Y-3.1398
X2.9331Y-3.2972
X2.9331Y-3.4547
X2.9724Y-1.565
X2.9724Y-2.2736
X3.0512Y-1.565
X3.0512Y-2.2736
X3.0512Y-3.002
X3.0512Y-3.1594
X3.0512Y-3.3169
X3.0512Y-3.4744
X3.0906Y-2.2933
X3.1299Y-1.565
X3.1299Y-3.002
X3.1299Y-3.1594
X3.1299Y-3.3169
X3.1299Y-3.4744
X3.1693Y-1.5846
X3.1693Y-2.2736
X3.2008Y-2.9429
X3.2008Y-3.0413
X3.2008Y-3.1004
X3.2008Y-3.1988
X3.2008Y-3.2579
X3.2008Y-3.3563
X3.2008Y-3.4154
X3.2008Y-3.5138
X3.248Y-1.565
X3.248Y-2.2736
X3.248Y-2.9823
X3.248Y-3.1398
X3.248Y-3.2972
X3.248Y-3.4547
X3.2874Y-3.1594
X3.2874Y-3.4744
X3.2913Y-3.002
X3.2913Y-3.3169
X3.3268Y-1.565
X3.3268Y-2.2736
X3.3268Y-2.9823
X3.3268Y-3.1398
X3.3268Y-3.2972
X3.3268Y-3.4547
X3.3661Y-3.002
X3.3661Y-3.1594
X3.3661Y-3.3169
X3.3661Y-3.4744
X3.4055Y-1.565
X3.4055Y-2.2736
X3.4055Y-2.9823
X3.4055Y-3.1398
X3.4055Y-3.2972
X3.4055Y-3.4547
X3.4449Y-2.2933
X3.4449Y-3.1594
X3.4449Y-3.4744
X3.4488Y-3.002
X3.4488Y-3.3169
X3.4843Y-1.565
X3.4843Y-2.9823
X3.4843Y-3.1398
X3.4843Y-3.2972
X3.4843Y-3.4547
X3.5157Y-2.2343
X3.5157Y-2.3327
X3.5236Y-1.5846
X3.5236Y-3.002
X3.5236Y-3.1594
X3.5236Y-3.3169
X3.5236Y-3.4744
T2
X0.1969Y-0.3937
X0.1969Y-0.4937
X0.1969Y-3.5433
X0.1969Y-3.6433
X0.4185Y-1.8685
X0.4185Y-1.9685
X0.4185Y-2.5772
X0.4185Y-2.6772
X0.4185Y-3.7583
X0.4185Y-3.8583
X0.5185Y-1.8685
X0.5185Y-1.9685
X0.5185Y-2.5772
X0.5185Y-2.6772
X0.5185Y-3.7583
X0.5185Y-3.8583
X0.6185Y-1.8685
X0.6185Y-1.9685
X0.6185Y-2.5772
X0.6185Y-2.6772
X0.6185Y-3.7583
X0.6185Y-3.8583
X0.7185Y-1.8685
X0.7185Y-1.9685
X0.7185Y-2.5772
X0.7185Y-2.6772
X0.7185Y-3.7583
X0.7185Y-3.8583
X0.8185Y-1.8685
X0.8185Y-1.9685
X0.8185Y-2.5772
X0.8185Y-2.6772
X0.8185Y-3.7583
X0.8185Y-3.8583
X0.9185Y-1.8685
X0.9185Y-1.9685
X0.9185Y-2.5772
X0.9185Y-2.6772
X0.9185Y-3.7583
X0.9185Y-3.8583
X1.0185Y-1.8685
X1.0185Y-1.9685
X1.0185Y-2.5772
X1.0185Y-2.6772
X1.0185Y-3.7583
X1.0185Y-3.8583
X1.1185Y-1.8685
X1.1185Y-1.9685
X1.1185Y-2.5772
X1.1185Y-2.6772
X1.1185Y-3.7583
X1.1185Y-3.8583
X1.2185Y-0.1756
X1.2185Y-0.2756
X1.2185Y-0.5906
X1.2185Y-0.6906
X1.2185Y-0.7906
X1.2185Y-0.8906
X1.2185Y-1.2055
X1.2185Y-1.3055
X1.2185Y-1.8685
X1.2185Y-1.9685
X1.2185Y-2.5772
X1.2185Y-2.6772
X1.2185Y-3.7583
X1.2185Y-3.8583
X1.3185Y-0.1756
X1.3185Y-0.2756
X1.3185Y-0.5906
X1.3185Y-0.6906
X1.3185Y-0.7906
X1.3185Y-0.8906
X1.3185Y-1.2055
X1.3185Y-1.3055
X1.3185Y-1.8685
X1.3185Y-1.9685
X1.3185Y-2.5772
X1.3185Y-2.6772
X1.3185Y-3.7583
X1.3185Y-3.8583
X1.4185Y-0.1756
X1.4185Y-0.2756
X1.4185Y-0.5906
X1.4185Y-0.6906
X1.4185Y-0.7906
X1.4185Y-0.8906
X1.4185Y-1.2055
X1.4185Y-1.3055
X1.4185Y-1.8685
X1.4185Y-1.9685
X1.4185Y-2.5772
X1.4185Y-2.6772
X1.4185Y-3.7583
X1.4185Y-3.8583
X1.5185Y-0.1756
X1.5185Y-0.2756
X1.5185Y-0.5906
X1.5185Y-0.6906
X1.5185Y-0.7906
X1.5185Y-0.8906
X1.5185Y-1.2055
X1.5185Y-1.3055
X1.5185Y-1.8685
X1.5185Y-1.9685
X1.5185Y-2.5772
X1.5185Y-2.6772
X1.5185Y-3.7583
X1.5185Y-3.8583
X1.6185Y-0.1756
X1.6185Y-0.2756
X1.6185Y-0.5906
X1.6185Y-0.6906
X1.6185Y-0.7906
X1.6185Y-0.8906
X1.6185Y-1.2055
X1.6185Y-1.3055
X1.6185Y-1.8685
X1.6185Y-1.9685
X1.6185Y-2.5772
X1.6185Y-2.6772
X1.6185Y-3.7583
X1.6185Y-3.8583
X1.7185Y-0.1756
X1.7185Y-0.2756
X1.7185Y-0.5906
X1.7185Y-0.6906
X1.7185Y-0.7906
X1.7185Y-0.8906
X1.7185Y-1.2055
X1.7185Y-1.3055
X1.7185Y-1.8685
X1.7185Y-1.9685
X1.7185Y-2.5772
X1.7185Y-2.6772
X1.7185Y-3.7583
X1.7185Y-3.8583
X1.8185Y-0.1756
X1.8185Y-0.2756
X1.8185Y-0.5906
X1.8185Y-0.6906
X1.8185Y-0.7906
X1.8185Y-0.8906
X1.8185Y-1.2055
X1.8185Y-1.3055
X1.8185Y-1.8685
X1.8185Y-1.9685
X1.8185Y-2.5772
X1.8185Y-2.6772
X1.8185Y-3.7583
X1.8185Y-3.8583
X1.9185Y-0.1756
X1.9185Y-0.2756
X1.9185Y-0.5906
X1.9185Y-0.6906
X1.9185Y-0.7906
X1.9185Y-0.8906
X1.9185Y-1.2055
X1.9185Y-1.3055
X1.9185Y-1.8685
X1.9185Y-1.9685
X1.9185Y-2.5772
X1.9185Y-2.6772
X1.9185Y-3.7583
X1.9185Y-3.8583
X2.0185Y-0.1756
X2.0185Y-0.2756
X2.0185Y-0.5906
X2.0185Y-0.6906
X2.0185Y-0.7906
X2.0185Y-0.8906
X2.0185Y-1.2055
X2.0185Y-1.3055
X2.0185Y-1.8685
X2.0185Y-1.9685
X2.0185Y-2.5772
X2.0185Y-2.6772
X2.0185Y-3.7583
X2.0185Y-3.8583
X2.1185Y-0.1756
X2.1185Y-0.2756
X2.1185Y-0.5906
X2.1185Y-0.6906
X2.1185Y-0.7906
X2.1185Y-0.8906
X2.1185Y-1.2055
X2.1185Y-1.3055
X2.1185Y-1.8685
X2.1185Y-1.9685
X2.1185Y-2.5772
X2.1185Y-2.6772
X2.1185Y-3.7583
X2.1185Y-3.8583
X2.2185Y-0.1756
X2.2185Y-0.2756
X2.2185Y-0.5906
X2.2185Y-0.6906
X2.2185Y-0.7906
X2.2185Y-0.8906
X2.2185Y-1.2055
X2.2185Y-1.3055
X2.2185Y-1.8685
X2.2185Y-1.9685
X2.2185Y-2.5772
X2.2185Y-2.6772
X2.2185Y-3.7583
X2.2185Y-3.8583
X2.3185Y-0.1756
X2.3185Y-0.2756
X2.3185Y-0.5906
X2.3185Y-0.6906
X2.3185Y-0.7906
X2.3185Y-0.8906
X2.3185Y-1.2055
X2.3185Y-1.3055
X2.3185Y-1.8685
X2.3185Y-1.9685
X2.3185Y-2.5772
X2.3185Y-2.6772
X2.3185Y-3.7583
X2.3185Y-3.8583
X2.4185Y-0.1756
X2.4185Y-0.2756
X2.4185Y-0.5906
X2.4185Y-0.6906
X2.4185Y-0.7906
X2.4185Y-0.8906
X2.4185Y-1.2055
X2.4185Y-1.3055
X2.4185Y-1.8685
X2.4185Y-1.9685
X2.4185Y-2.5772
X2.4185Y-2.6772
X2.4185Y-3.7583
X2.4185Y-3.8583
X2.5185Y-0.1756
X2.5185Y-0.2756
X2.5185Y-0.5906
X2.5185Y-0.6906
X2.5185Y-0.7906
X2.5185Y-0.8906
X2.5185Y-1.2055
X2.5185Y-1.3055
X2.5185Y-1.8685
X2.5185Y-1.9685
X2.5185Y-2.5772
X2.5185Y-2.6772
X2.5185Y-3.7583
X2.5185Y-3.8583
X2.6185Y-0.1756
X2.6185Y-0.2756
X2.6185Y-0.5906
X2.6185Y-0.6906
X2.6185Y-0.7906
X2.6185Y-0.8906
X2.6185Y-1.2055
X2.6185Y-1.3055
X2.6185Y-1.8685
X2.6185Y-1.9685
X2.6185Y-2.5772
X2.6185Y-2.6772
X2.6185Y-3.7583
X2.6185Y-3.8583
X2.7185Y-0.1756
X2.7185Y-0.2756
X2.7185Y-0.5906
X2.7185Y-0.6906
X2.7185Y-0.7906
X2.7185Y-0.8906
X2.7185Y-1.2055
X2.7185Y-1.3055
X2.7185Y-1.8685
X2.7185Y-1.9685
X2.7185Y-2.5772
X2.7185Y-2.6772
X2.7185Y-3.7583
X2.7185Y-3.8583
X2.8185Y-1.8685
X2.8185Y-1.9685
X2.8185Y-2.5772
X2.8185Y-2.6772
X2.8185Y-3.7583
X2.8185Y-3.8583
X2.9185Y-1.8685
X2.9185Y-1.9685
X2.9185Y-2.5772
X2.9185Y-2.6772
X2.9185Y-3.7583
X2.9185Y-3.8583
X3.0185Y-1.8685
X3.0185Y-1.9685
X3.0185Y-2.5772
X3.0185Y-2.6772
X3.0185Y-3.7583
X3.0185Y-3.8583
X3.1185Y-1.8685
X3.1185Y-1.9685
X3.1185Y-2.5772
X3.1185Y-2.6772
X3.1185Y-3.7583
X3.1185Y-3.8583
X3.2185Y-1.8685
X3.2185Y-1.9685
X3.2185Y-2.5772
X3.2185Y-2.6772
X3.2185Y-3.7583
X3.2185Y-3.8583
X3.3185Y-1.8685
X3.3185Y-1.9685
X3.3185Y-2.5772
X3.3185Y-2.6772
X3.3185Y-3.7583
X3.3185Y-3.8583
X3.4185Y-1.8685
X3.4185Y-1.9685
X3.4185Y-2.5772
X3.4185Y-2.6772
X3.4185Y-3.7583
X3.4185Y-3.8583
X3.5185Y-1.8685
X3.5185Y-1.9685
X3.5185Y-2.5772
X3.5185Y-2.6772
X3.5185Y-3.7583
X3.5185Y-3.8583
X3.7402Y-0.3937
X3.7402Y-0.4937
X3.7402Y-3.5433
X3.7402Y-3.6433
T3
X0.1181Y-0.1181
X0.1181Y-3.8189
X3.8189Y-0.1181
X3.8189Y-3.8189
M30
