%TF.GenerationSoftware,KiCad,Pcbnew,9.0.2*%
%TF.CreationDate,2025-05-17T19:35:46+02:00*%
%TF.ProjectId,ALU,414c552e-6b69-4636-9164-5f7063625858,rev?*%
%TF.SameCoordinates,Original*%
%TF.FileFunction,Legend,Bot*%
%TF.FilePolarity,Positive*%
%FSLAX46Y46*%
G04 Gerber Fmt 4.6, Leading zero omitted, Abs format (unit mm)*
G04 Created by KiCad (PCBNEW 9.0.2) date 2025-05-17 19:35:46*
%MOMM*%
%LPD*%
G01*
G04 APERTURE LIST*
%ADD10R,1.700000X1.700000*%
%ADD11C,1.700000*%
G04 APERTURE END LIST*
%LPC*%
D10*
%TO.C,JW01*%
X84455000Y-48895000D03*
D11*
X86995000Y-48895000D03*
X84455000Y-51435000D03*
X86995000Y-51435000D03*
X84455000Y-53975000D03*
X86995000Y-53975000D03*
X84455000Y-56515000D03*
X86995000Y-56515000D03*
X84455000Y-59055000D03*
X86995000Y-59055000D03*
X84455000Y-61595000D03*
X86995000Y-61595000D03*
X84455000Y-64135000D03*
X86995000Y-64135000D03*
X84455000Y-66675000D03*
X86995000Y-66675000D03*
X84455000Y-69215000D03*
X86995000Y-69215000D03*
X84455000Y-71755000D03*
X86995000Y-71755000D03*
X84455000Y-74295000D03*
X86995000Y-74295000D03*
X84455000Y-76835000D03*
X86995000Y-76835000D03*
X84455000Y-79375000D03*
X86995000Y-79375000D03*
X84455000Y-81915000D03*
X86995000Y-81915000D03*
X84455000Y-84455000D03*
X86995000Y-84455000D03*
X84455000Y-86995000D03*
X86995000Y-86995000D03*
X84455000Y-89535000D03*
X86995000Y-89535000D03*
%TD*%
D10*
%TO.C,JE01*%
X147320000Y-48895000D03*
D11*
X149860000Y-48895000D03*
X147320000Y-51435000D03*
X149860000Y-51435000D03*
X147320000Y-53975000D03*
X149860000Y-53975000D03*
X147320000Y-56515000D03*
X149860000Y-56515000D03*
X147320000Y-59055000D03*
X149860000Y-59055000D03*
X147320000Y-61595000D03*
X149860000Y-61595000D03*
X147320000Y-64135000D03*
X149860000Y-64135000D03*
X147320000Y-66675000D03*
X149860000Y-66675000D03*
X147320000Y-69215000D03*
X149860000Y-69215000D03*
X147320000Y-71755000D03*
X149860000Y-71755000D03*
X147320000Y-74295000D03*
X149860000Y-74295000D03*
X147320000Y-76835000D03*
X149860000Y-76835000D03*
X147320000Y-79375000D03*
X149860000Y-79375000D03*
X147320000Y-81915000D03*
X149860000Y-81915000D03*
X147320000Y-84455000D03*
X149860000Y-84455000D03*
X147320000Y-86995000D03*
X149860000Y-86995000D03*
X147320000Y-89535000D03*
X149860000Y-89535000D03*
%TD*%
D10*
%TO.C,JS1*%
X107950000Y-93985000D03*
D11*
X107950000Y-91445000D03*
X110490000Y-93985000D03*
X110490000Y-91445000D03*
X113030000Y-93985000D03*
X113030000Y-91445000D03*
X115570000Y-93985000D03*
X115570000Y-91445000D03*
X118110000Y-93985000D03*
X118110000Y-91445000D03*
X120650000Y-93985000D03*
X120650000Y-91445000D03*
X123190000Y-93985000D03*
X123190000Y-91445000D03*
X125730000Y-93985000D03*
X125730000Y-91445000D03*
%TD*%
D10*
%TO.C,JN1*%
X107950000Y-43185000D03*
D11*
X107950000Y-40645000D03*
X110490000Y-43185000D03*
X110490000Y-40645000D03*
X113030000Y-43185000D03*
X113030000Y-40645000D03*
X115570000Y-43185000D03*
X115570000Y-40645000D03*
X118110000Y-43185000D03*
X118110000Y-40645000D03*
X120650000Y-43185000D03*
X120650000Y-40645000D03*
X123190000Y-43185000D03*
X123190000Y-40645000D03*
X125730000Y-43185000D03*
X125730000Y-40645000D03*
%TD*%
%LPD*%
M02*
