M48
; DRILL file {KiCad 9.0.2} date 2025-05-17T19:37:23+0200
; FORMAT={-:-/ absolute / metric / decimal}
; #@! TF.CreationDate,2025-05-17T19:37:23+02:00
; #@! TF.GenerationSoftware,Kicad,Pcbnew,9.0.2
; #@! TF.FileFunction,Plated,1,2,PTH
FMAT,2
METRIC
; #@! TA.AperFunction,Plated,PTH,ViaDrill
T1C0.300
; #@! TA.AperFunction,Plated,PTH,ComponentDrill
T2C1.000
%
G90
G05
T1
X89.681Y-82.366
X89.681Y-94.496
X89.911Y-60.009
X91.368Y-49.729
X91.567Y-60.423
X91.57Y-64.782
X91.599Y-80.476
X91.665Y-68.636
X91.667Y-59.417
X92.314Y-65.221
X93.412Y-48.06
X93.504Y-71.17
X93.695Y-49.53
X95.465Y-51.877
X95.505Y-46.559
X96.356Y-79.089
X96.722Y-45.296
X99.945Y-73.812
X100.251Y-82.335
X100.366Y-62.175
X101.119Y-69.526
X101.225Y-66.112
X101.228Y-62.539
X101.253Y-58.09
X101.303Y-71.396
X101.755Y-52.627
X101.776Y-79.993
X101.971Y-59.433
X102.599Y-70.423
X102.903Y-49.459
X103.123Y-69.273
X103.21Y-52.1
X103.21Y-72.441
X103.21Y-80.001
X103.21Y-83.136
X103.65Y-68.069
X104.143Y-78.306
X104.857Y-48.143
X105.046Y-68.439
X106.085Y-58.098
X106.109Y-48.873
X106.54Y-54.8
X106.551Y-60.594
X107.531Y-82.85
X107.867Y-73.267
X108.793Y-90.165
X110.257Y-48.941
X110.312Y-63.407
X110.504Y-82.853
X110.62Y-66.14
X110.766Y-58.453
X110.828Y-62.207
X110.91Y-50.868
X110.979Y-46.181
X111.524Y-71.838
X111.666Y-63.704
X111.702Y-79.341
X111.75Y-59.542
X111.774Y-77.971
X111.775Y-74.349
X111.864Y-83.15
X111.876Y-67.636
X111.876Y-70.948
X112.0Y-75.553
X112.204Y-81.159
X115.972Y-51.528
X116.146Y-89.25
X116.182Y-45.572
X116.314Y-59.982
X116.314Y-62.857
X116.346Y-80.305
X116.368Y-72.992
X116.42Y-69.33
X116.484Y-79.005
X116.601Y-81.355
X116.637Y-84.195
X116.8Y-53.693
X116.84Y-85.021
X117.584Y-62.465
X117.623Y-78.212
X117.64Y-71.77
X117.659Y-82.589
X118.11Y-54.199
X118.187Y-76.168
X118.222Y-65.02
X119.005Y-45.211
X119.124Y-65.087
X119.725Y-89.847
X120.59Y-76.5
X120.784Y-62.839
X121.012Y-71.143
X121.056Y-59.326
X121.103Y-45.804
X121.104Y-82.88
X121.271Y-50.396
X121.456Y-69.171
X121.788Y-55.504
X121.822Y-85.292
X121.871Y-52.223
X121.925Y-81.555
X122.027Y-73.277
X122.084Y-79.788
X122.107Y-89.728
X122.498Y-76.389
X122.673Y-52.066
X122.894Y-61.867
X123.126Y-82.26
X123.169Y-59.293
X123.373Y-50.847
X123.41Y-83.173
X123.495Y-60.911
X123.508Y-81.344
X124.585Y-48.14
X126.037Y-69.765
X126.282Y-72.239
X126.298Y-59.404
X126.508Y-62.517
X126.528Y-75.523
X126.531Y-78.442
X127.117Y-69.227
X127.281Y-53.255
X127.385Y-73.266
X127.587Y-72.044
X127.641Y-70.599
X127.698Y-83.607
X127.76Y-60.31
X127.952Y-52.572
X127.965Y-80.797
X128.074Y-85.837
X130.257Y-58.436
X130.482Y-50.685
X130.893Y-62.691
X131.306Y-54.436
X132.844Y-68.694
X133.065Y-58.052
X135.958Y-89.011
X136.246Y-81.993
X136.336Y-61.794
X136.606Y-51.313
X136.922Y-70.792
X138.85Y-77.947
X139.29Y-47.44
X139.638Y-49.53
X139.638Y-58.831
X139.653Y-68.642
X140.024Y-64.638
X142.354Y-48.933
X142.354Y-60.706
X145.957Y-66.245
X147.527Y-42.936
X147.527Y-94.496
T2
X84.455Y-48.895
X84.455Y-51.435
X84.455Y-53.975
X84.455Y-56.515
X84.455Y-59.055
X84.455Y-61.595
X84.455Y-64.135
X84.455Y-66.675
X84.455Y-69.215
X84.455Y-71.755
X84.455Y-74.295
X84.455Y-76.835
X84.455Y-79.375
X84.455Y-81.915
X84.455Y-84.455
X84.455Y-86.995
X84.455Y-89.535
X86.995Y-48.895
X86.995Y-51.435
X86.995Y-53.975
X86.995Y-56.515
X86.995Y-59.055
X86.995Y-61.595
X86.995Y-64.135
X86.995Y-66.675
X86.995Y-69.215
X86.995Y-71.755
X86.995Y-74.295
X86.995Y-76.835
X86.995Y-79.375
X86.995Y-81.915
X86.995Y-84.455
X86.995Y-86.995
X86.995Y-89.535
X107.95Y-40.645
X107.95Y-43.185
X107.95Y-91.445
X107.95Y-93.985
X110.49Y-40.645
X110.49Y-43.185
X110.49Y-91.445
X110.49Y-93.985
X113.03Y-40.645
X113.03Y-43.185
X113.03Y-91.445
X113.03Y-93.985
X115.57Y-40.645
X115.57Y-43.185
X115.57Y-91.445
X115.57Y-93.985
X118.11Y-40.645
X118.11Y-43.185
X118.11Y-91.445
X118.11Y-93.985
X120.65Y-40.645
X120.65Y-43.185
X120.65Y-91.445
X120.65Y-93.985
X123.19Y-40.645
X123.19Y-43.185
X123.19Y-91.445
X123.19Y-93.985
X125.73Y-40.645
X125.73Y-43.185
X125.73Y-91.445
X125.73Y-93.985
X147.32Y-48.895
X147.32Y-51.435
X147.32Y-53.975
X147.32Y-56.515
X147.32Y-59.055
X147.32Y-61.595
X147.32Y-64.135
X147.32Y-66.675
X147.32Y-69.215
X147.32Y-71.755
X147.32Y-74.295
X147.32Y-76.835
X147.32Y-79.375
X147.32Y-81.915
X147.32Y-84.455
X147.32Y-86.995
X147.32Y-89.535
X149.86Y-48.895
X149.86Y-51.435
X149.86Y-53.975
X149.86Y-56.515
X149.86Y-59.055
X149.86Y-61.595
X149.86Y-64.135
X149.86Y-66.675
X149.86Y-69.215
X149.86Y-71.755
X149.86Y-74.295
X149.86Y-76.835
X149.86Y-79.375
X149.86Y-81.915
X149.86Y-84.455
X149.86Y-86.995
X149.86Y-89.535
M30
