%TF.GenerationSoftware,KiCad,Pcbnew,9.0.2*%
%TF.CreationDate,2025-05-17T19:35:46+02:00*%
%TF.ProjectId,ALU,414c552e-6b69-4636-9164-5f7063625858,rev?*%
%TF.SameCoordinates,Original*%
%TF.FileFunction,Copper,L1,Top*%
%TF.FilePolarity,Positive*%
%FSLAX46Y46*%
G04 Gerber Fmt 4.6, Leading zero omitted, Abs format (unit mm)*
G04 Created by KiCad (PCBNEW 9.0.2) date 2025-05-17 19:35:46*
%MOMM*%
%LPD*%
G01*
G04 APERTURE LIST*
G04 Aperture macros list*
%AMRoundRect*
0 Rectangle with rounded corners*
0 $1 Rounding radius*
0 $2 $3 $4 $5 $6 $7 $8 $9 X,Y pos of 4 corners*
0 Add a 4 corners polygon primitive as box body*
4,1,4,$2,$3,$4,$5,$6,$7,$8,$9,$2,$3,0*
0 Add four circle primitives for the rounded corners*
1,1,$1+$1,$2,$3*
1,1,$1+$1,$4,$5*
1,1,$1+$1,$6,$7*
1,1,$1+$1,$8,$9*
0 Add four rect primitives between the rounded corners*
20,1,$1+$1,$2,$3,$4,$5,0*
20,1,$1+$1,$4,$5,$6,$7,0*
20,1,$1+$1,$6,$7,$8,$9,0*
20,1,$1+$1,$8,$9,$2,$3,0*%
G04 Aperture macros list end*
%TA.AperFunction,SMDPad,CuDef*%
%ADD10RoundRect,0.100000X0.130000X0.100000X-0.130000X0.100000X-0.130000X-0.100000X0.130000X-0.100000X0*%
%TD*%
%TA.AperFunction,ComponentPad*%
%ADD11R,1.700000X1.700000*%
%TD*%
%TA.AperFunction,ComponentPad*%
%ADD12C,1.700000*%
%TD*%
%TA.AperFunction,SMDPad,CuDef*%
%ADD13RoundRect,0.100000X-0.637500X-0.100000X0.637500X-0.100000X0.637500X0.100000X-0.637500X0.100000X0*%
%TD*%
%TA.AperFunction,SMDPad,CuDef*%
%ADD14RoundRect,0.100000X-0.130000X-0.100000X0.130000X-0.100000X0.130000X0.100000X-0.130000X0.100000X0*%
%TD*%
%TA.AperFunction,ViaPad*%
%ADD15C,0.600000*%
%TD*%
%TA.AperFunction,Conductor*%
%ADD16C,0.200000*%
%TD*%
G04 APERTURE END LIST*
D10*
%TO.P,DS1,1,K*%
%TO.N,Net-(DS1-K)*%
X138750000Y-60325000D03*
%TO.P,DS1,2,A*%
%TO.N,S1*%
X138110000Y-60325000D03*
%TD*%
%TO.P,S2,1,K*%
%TO.N,Net-(DS2-K)*%
X138750000Y-70485000D03*
%TO.P,S2,2,A*%
%TO.N,S2*%
X138110000Y-70485000D03*
%TD*%
D11*
%TO.P,JW01,1,Pin_1*%
%TO.N,A0*%
X84455000Y-48895000D03*
D12*
%TO.P,JW01,2,Pin_2*%
%TO.N,B0*%
X86995000Y-48895000D03*
%TO.P,JW01,3,Pin_3*%
%TO.N,PA0*%
X84455000Y-51435000D03*
%TO.P,JW01,4,Pin_4*%
%TO.N,S0*%
X86995000Y-51435000D03*
%TO.P,JW01,5,Pin_5*%
%TO.N,PB0*%
X84455000Y-53975000D03*
%TO.P,JW01,6,Pin_6*%
%TO.N,PD0*%
X86995000Y-53975000D03*
%TO.P,JW01,7,Pin_7*%
%TO.N,PC0*%
X84455000Y-56515000D03*
%TO.P,JW01,8,Pin_8*%
%TO.N,PE0*%
X86995000Y-56515000D03*
%TO.P,JW01,9,Pin_9*%
%TO.N,A1*%
X84455000Y-59055000D03*
%TO.P,JW01,10,Pin_10*%
%TO.N,B1*%
X86995000Y-59055000D03*
%TO.P,JW01,11,Pin_11*%
%TO.N,PA1*%
X84455000Y-61595000D03*
%TO.P,JW01,12,Pin_12*%
%TO.N,S1*%
X86995000Y-61595000D03*
%TO.P,JW01,13,Pin_13*%
%TO.N,PB1*%
X84455000Y-64135000D03*
%TO.P,JW01,14,Pin_14*%
%TO.N,PD1*%
X86995000Y-64135000D03*
%TO.P,JW01,15,Pin_15*%
%TO.N,PC1*%
X84455000Y-66675000D03*
%TO.P,JW01,16,Pin_16*%
%TO.N,PE1*%
X86995000Y-66675000D03*
%TO.P,JW01,17,Pin_17*%
%TO.N,A2*%
X84455000Y-69215000D03*
%TO.P,JW01,18,Pin_18*%
%TO.N,B2*%
X86995000Y-69215000D03*
%TO.P,JW01,19,Pin_19*%
%TO.N,PA2*%
X84455000Y-71755000D03*
%TO.P,JW01,20,Pin_20*%
%TO.N,S2*%
X86995000Y-71755000D03*
%TO.P,JW01,21,Pin_21*%
%TO.N,PB2*%
X84455000Y-74295000D03*
%TO.P,JW01,22,Pin_22*%
%TO.N,PD2*%
X86995000Y-74295000D03*
%TO.P,JW01,23,Pin_23*%
%TO.N,PC2*%
X84455000Y-76835000D03*
%TO.P,JW01,24,Pin_24*%
%TO.N,PE2*%
X86995000Y-76835000D03*
%TO.P,JW01,25,Pin_25*%
%TO.N,A3*%
X84455000Y-79375000D03*
%TO.P,JW01,26,Pin_26*%
%TO.N,B3*%
X86995000Y-79375000D03*
%TO.P,JW01,27,Pin_27*%
%TO.N,PA3*%
X84455000Y-81915000D03*
%TO.P,JW01,28,Pin_28*%
%TO.N,S3*%
X86995000Y-81915000D03*
%TO.P,JW01,29,Pin_29*%
%TO.N,PB3*%
X84455000Y-84455000D03*
%TO.P,JW01,30,Pin_30*%
%TO.N,PD3*%
X86995000Y-84455000D03*
%TO.P,JW01,31,Pin_31*%
%TO.N,PC3*%
X84455000Y-86995000D03*
%TO.P,JW01,32,Pin_32*%
%TO.N,PE3*%
X86995000Y-86995000D03*
%TO.P,JW01,33,Pin_33*%
%TO.N,GND*%
X84455000Y-89535000D03*
%TO.P,JW01,34,Pin_34*%
%TO.N,VDD*%
X86995000Y-89535000D03*
%TD*%
D11*
%TO.P,JE01,1,Pin_1*%
%TO.N,S0*%
X147320000Y-48895000D03*
D12*
%TO.P,JE01,2,Pin_2*%
%TO.N,R0*%
X149860000Y-48895000D03*
%TO.P,JE01,3,Pin_3*%
%TO.N,PA0*%
X147320000Y-51435000D03*
%TO.P,JE01,4,Pin_4*%
%TO.N,unconnected-(JE01-Pin_4-Pad4)*%
X149860000Y-51435000D03*
%TO.P,JE01,5,Pin_5*%
%TO.N,PB0*%
X147320000Y-53975000D03*
%TO.P,JE01,6,Pin_6*%
%TO.N,PD0*%
X149860000Y-53975000D03*
%TO.P,JE01,7,Pin_7*%
%TO.N,PC0*%
X147320000Y-56515000D03*
%TO.P,JE01,8,Pin_8*%
%TO.N,PE0*%
X149860000Y-56515000D03*
%TO.P,JE01,9,Pin_9*%
%TO.N,S1*%
X147320000Y-59055000D03*
%TO.P,JE01,10,Pin_10*%
%TO.N,R1*%
X149860000Y-59055000D03*
%TO.P,JE01,11,Pin_11*%
%TO.N,PA1*%
X147320000Y-61595000D03*
%TO.P,JE01,12,Pin_12*%
%TO.N,unconnected-(JE01-Pin_12-Pad12)*%
X149860000Y-61595000D03*
%TO.P,JE01,13,Pin_13*%
%TO.N,PB1*%
X147320000Y-64135000D03*
%TO.P,JE01,14,Pin_14*%
%TO.N,PD1*%
X149860000Y-64135000D03*
%TO.P,JE01,15,Pin_15*%
%TO.N,PC1*%
X147320000Y-66675000D03*
%TO.P,JE01,16,Pin_16*%
%TO.N,PE1*%
X149860000Y-66675000D03*
%TO.P,JE01,17,Pin_17*%
%TO.N,S2*%
X147320000Y-69215000D03*
%TO.P,JE01,18,Pin_18*%
%TO.N,R2*%
X149860000Y-69215000D03*
%TO.P,JE01,19,Pin_19*%
%TO.N,PA2*%
X147320000Y-71755000D03*
%TO.P,JE01,20,Pin_20*%
%TO.N,unconnected-(JE01-Pin_20-Pad20)*%
X149860000Y-71755000D03*
%TO.P,JE01,21,Pin_21*%
%TO.N,PB2*%
X147320000Y-74295000D03*
%TO.P,JE01,22,Pin_22*%
%TO.N,PD2*%
X149860000Y-74295000D03*
%TO.P,JE01,23,Pin_23*%
%TO.N,PC2*%
X147320000Y-76835000D03*
%TO.P,JE01,24,Pin_24*%
%TO.N,PE2*%
X149860000Y-76835000D03*
%TO.P,JE01,25,Pin_25*%
%TO.N,S3*%
X147320000Y-79375000D03*
%TO.P,JE01,26,Pin_26*%
%TO.N,R3*%
X149860000Y-79375000D03*
%TO.P,JE01,27,Pin_27*%
%TO.N,PA3*%
X147320000Y-81915000D03*
%TO.P,JE01,28,Pin_28*%
%TO.N,unconnected-(JE01-Pin_28-Pad28)*%
X149860000Y-81915000D03*
%TO.P,JE01,29,Pin_29*%
%TO.N,PB3*%
X147320000Y-84455000D03*
%TO.P,JE01,30,Pin_30*%
%TO.N,PD3*%
X149860000Y-84455000D03*
%TO.P,JE01,31,Pin_31*%
%TO.N,PC3*%
X147320000Y-86995000D03*
%TO.P,JE01,32,Pin_32*%
%TO.N,PE3*%
X149860000Y-86995000D03*
%TO.P,JE01,33,Pin_33*%
%TO.N,GND*%
X147320000Y-89535000D03*
%TO.P,JE01,34,Pin_34*%
%TO.N,VDD*%
X149860000Y-89535000D03*
%TD*%
D13*
%TO.P,U22,1*%
%TO.N,/ALUSlice2/Cin*%
X109220000Y-69170000D03*
%TO.P,U22,2*%
%TO.N,Net-(U21-Pad11)*%
X109220000Y-69820000D03*
%TO.P,U22,3*%
%TO.N,Net-(U22-Pad3)*%
X109220000Y-70470000D03*
%TO.P,U22,4*%
%TO.N,/ALUSlice2/Cin*%
X109220000Y-71120000D03*
%TO.P,U22,5*%
%TO.N,Net-(U22-Pad3)*%
X109220000Y-71770000D03*
%TO.P,U22,6*%
%TO.N,Net-(U22-Pad12)*%
X109220000Y-72420000D03*
%TO.P,U22,7,GND*%
%TO.N,GND*%
X109220000Y-73070000D03*
%TO.P,U22,8*%
%TO.N,Net-(U22-Pad13)*%
X114945000Y-73070000D03*
%TO.P,U22,9*%
%TO.N,Net-(U22-Pad3)*%
X114945000Y-72420000D03*
%TO.P,U22,10*%
%TO.N,Net-(U21-Pad11)*%
X114945000Y-71770000D03*
%TO.P,U22,11*%
%TO.N,S2*%
X114945000Y-71120000D03*
%TO.P,U22,12*%
%TO.N,Net-(U22-Pad12)*%
X114945000Y-70470000D03*
%TO.P,U22,13*%
%TO.N,Net-(U22-Pad13)*%
X114945000Y-69820000D03*
%TO.P,U22,14,VCC*%
%TO.N,VDD*%
X114945000Y-69170000D03*
%TD*%
D14*
%TO.P,DC3,1,K*%
%TO.N,Net-(DC3-K)*%
X116520000Y-85725000D03*
%TO.P,DC3,2,A*%
%TO.N,/ALUSlice3/C*%
X117160000Y-85725000D03*
%TD*%
%TO.P,DB1,1,K*%
%TO.N,Net-(DB1-K)*%
X94930000Y-60325000D03*
%TO.P,DB1,2,A*%
%TO.N,B1*%
X95570000Y-60325000D03*
%TD*%
D10*
%TO.P,RC2,1*%
%TO.N,Net-(DC2-K)*%
X114620000Y-75565000D03*
%TO.P,RC2,2*%
%TO.N,GNDC*%
X113980000Y-75565000D03*
%TD*%
D14*
%TO.P,DC2,1,K*%
%TO.N,Net-(DC2-K)*%
X116520000Y-75565000D03*
%TO.P,DC2,2,A*%
%TO.N,/ALUSlice2/C*%
X117160000Y-75565000D03*
%TD*%
D13*
%TO.P,U34,1*%
%TO.N,Net-(U33-Pad8)*%
X129217500Y-79330000D03*
%TO.P,U34,2*%
%TO.N,Net-(U33-Pad11)*%
X129217500Y-79980000D03*
%TO.P,U34,3*%
%TO.N,/ALUSlice3/C*%
X129217500Y-80630000D03*
%TO.P,U34,4*%
%TO.N,Net-(U33-Pad10)*%
X129217500Y-81280000D03*
%TO.P,U34,5*%
%TO.N,AND*%
X129217500Y-81930000D03*
%TO.P,U34,6*%
%TO.N,Net-(U34-Pad13)*%
X129217500Y-82580000D03*
%TO.P,U34,7,GND*%
%TO.N,GND*%
X129217500Y-83230000D03*
%TO.P,U34,8*%
%TO.N,Net-(U34-Pad12)*%
X134942500Y-83230000D03*
%TO.P,U34,9*%
%TO.N,S3*%
X134942500Y-82580000D03*
%TO.P,U34,10*%
%TO.N,XOR*%
X134942500Y-81930000D03*
%TO.P,U34,11*%
%TO.N,R3*%
X134942500Y-81280000D03*
%TO.P,U34,12*%
%TO.N,Net-(U34-Pad12)*%
X134942500Y-80630000D03*
%TO.P,U34,13*%
%TO.N,Net-(U34-Pad13)*%
X134942500Y-79980000D03*
%TO.P,U34,14,VCC*%
%TO.N,VDD*%
X134942500Y-79330000D03*
%TD*%
%TO.P,U23,1*%
%TO.N,Net-(U22-Pad3)*%
X119057500Y-69170000D03*
%TO.P,U23,2*%
%TO.N,Net-(U21-Pad3)*%
X119057500Y-69820000D03*
%TO.P,U23,3*%
%TO.N,Net-(U23-Pad10)*%
X119057500Y-70470000D03*
%TO.P,U23,4*%
%TO.N,Net-(U22-Pad3)*%
X119057500Y-71120000D03*
%TO.P,U23,5*%
%TO.N,Net-(U21-Pad13)*%
X119057500Y-71770000D03*
%TO.P,U23,6*%
%TO.N,Net-(U23-Pad13)*%
X119057500Y-72420000D03*
%TO.P,U23,7,GND*%
%TO.N,GND*%
X119057500Y-73070000D03*
%TO.P,U23,8*%
%TO.N,Net-(U23-Pad8)*%
X124782500Y-73070000D03*
%TO.P,U23,9*%
%TO.N,ADD*%
X124782500Y-72420000D03*
%TO.P,U23,10*%
%TO.N,Net-(U23-Pad10)*%
X124782500Y-71770000D03*
%TO.P,U23,11*%
%TO.N,Net-(U23-Pad11)*%
X124782500Y-71120000D03*
%TO.P,U23,12*%
%TO.N,SUB*%
X124782500Y-70470000D03*
%TO.P,U23,13*%
%TO.N,Net-(U23-Pad13)*%
X124782500Y-69820000D03*
%TO.P,U23,14,VCC*%
%TO.N,VDD*%
X124782500Y-69170000D03*
%TD*%
%TO.P,U12,1*%
%TO.N,/ALUSlice1/Cin*%
X108585000Y-59010000D03*
%TO.P,U12,2*%
%TO.N,Net-(U11-Pad11)*%
X108585000Y-59660000D03*
%TO.P,U12,3*%
%TO.N,Net-(U12-Pad3)*%
X108585000Y-60310000D03*
%TO.P,U12,4*%
%TO.N,/ALUSlice1/Cin*%
X108585000Y-60960000D03*
%TO.P,U12,5*%
%TO.N,Net-(U12-Pad3)*%
X108585000Y-61610000D03*
%TO.P,U12,6*%
%TO.N,Net-(U12-Pad12)*%
X108585000Y-62260000D03*
%TO.P,U12,7,GND*%
%TO.N,GND*%
X108585000Y-62910000D03*
%TO.P,U12,8*%
%TO.N,Net-(U12-Pad13)*%
X114310000Y-62910000D03*
%TO.P,U12,9*%
%TO.N,Net-(U12-Pad3)*%
X114310000Y-62260000D03*
%TO.P,U12,10*%
%TO.N,Net-(U11-Pad11)*%
X114310000Y-61610000D03*
%TO.P,U12,11*%
%TO.N,S1*%
X114310000Y-60960000D03*
%TO.P,U12,12*%
%TO.N,Net-(U12-Pad12)*%
X114310000Y-60310000D03*
%TO.P,U12,13*%
%TO.N,Net-(U12-Pad13)*%
X114310000Y-59660000D03*
%TO.P,U12,14,VCC*%
%TO.N,VDD*%
X114310000Y-59010000D03*
%TD*%
D14*
%TO.P,DB3,1,K*%
%TO.N,Net-(DB3-K)*%
X94930000Y-80645000D03*
%TO.P,DB3,2,A*%
%TO.N,B3*%
X95570000Y-80645000D03*
%TD*%
D10*
%TO.P,RC1,1*%
%TO.N,Net-(DC1-K)*%
X114620000Y-65405000D03*
%TO.P,RC1,2*%
%TO.N,GNDC*%
X113980000Y-65405000D03*
%TD*%
D13*
%TO.P,U31,1*%
%TO.N,A3*%
X98737500Y-79330000D03*
%TO.P,U31,2*%
%TO.N,B3*%
X98737500Y-79980000D03*
%TO.P,U31,3*%
%TO.N,Net-(U31-Pad3)*%
X98737500Y-80630000D03*
%TO.P,U31,4*%
%TO.N,A3*%
X98737500Y-81280000D03*
%TO.P,U31,5*%
%TO.N,Net-(U31-Pad3)*%
X98737500Y-81930000D03*
%TO.P,U31,6*%
%TO.N,Net-(U31-Pad12)*%
X98737500Y-82580000D03*
%TO.P,U31,7,GND*%
%TO.N,GND*%
X98737500Y-83230000D03*
%TO.P,U31,8*%
%TO.N,Net-(U31-Pad13)*%
X104462500Y-83230000D03*
%TO.P,U31,9*%
%TO.N,Net-(U31-Pad3)*%
X104462500Y-82580000D03*
%TO.P,U31,10*%
%TO.N,B3*%
X104462500Y-81930000D03*
%TO.P,U31,11*%
%TO.N,Net-(U31-Pad11)*%
X104462500Y-81280000D03*
%TO.P,U31,12*%
%TO.N,Net-(U31-Pad12)*%
X104462500Y-80630000D03*
%TO.P,U31,13*%
%TO.N,Net-(U31-Pad13)*%
X104462500Y-79980000D03*
%TO.P,U31,14,VCC*%
%TO.N,VDD*%
X104462500Y-79330000D03*
%TD*%
D14*
%TO.P,RS1,1*%
%TO.N,Net-(DS1-K)*%
X140650000Y-60325000D03*
%TO.P,RS1,2*%
%TO.N,GNDS*%
X141290000Y-60325000D03*
%TD*%
D10*
%TO.P,RA3,1*%
%TO.N,Net-(DA3-K)*%
X93030000Y-79375000D03*
%TO.P,RA3,2*%
%TO.N,GNDA*%
X92390000Y-79375000D03*
%TD*%
D14*
%TO.P,DA0,1,K*%
%TO.N,Net-(DA0-K)*%
X94930000Y-48895000D03*
%TO.P,DA0,2,A*%
%TO.N,A0*%
X95570000Y-48895000D03*
%TD*%
D13*
%TO.P,U11,1*%
%TO.N,A1*%
X98737500Y-59010000D03*
%TO.P,U11,2*%
%TO.N,B1*%
X98737500Y-59660000D03*
%TO.P,U11,3*%
%TO.N,Net-(U11-Pad3)*%
X98737500Y-60310000D03*
%TO.P,U11,4*%
%TO.N,A1*%
X98737500Y-60960000D03*
%TO.P,U11,5*%
%TO.N,Net-(U11-Pad3)*%
X98737500Y-61610000D03*
%TO.P,U11,6*%
%TO.N,Net-(U11-Pad12)*%
X98737500Y-62260000D03*
%TO.P,U11,7,GND*%
%TO.N,GND*%
X98737500Y-62910000D03*
%TO.P,U11,8*%
%TO.N,Net-(U11-Pad13)*%
X104462500Y-62910000D03*
%TO.P,U11,9*%
%TO.N,Net-(U11-Pad3)*%
X104462500Y-62260000D03*
%TO.P,U11,10*%
%TO.N,B1*%
X104462500Y-61610000D03*
%TO.P,U11,11*%
%TO.N,Net-(U11-Pad11)*%
X104462500Y-60960000D03*
%TO.P,U11,12*%
%TO.N,Net-(U11-Pad12)*%
X104462500Y-60310000D03*
%TO.P,U11,13*%
%TO.N,Net-(U11-Pad13)*%
X104462500Y-59660000D03*
%TO.P,U11,14,VCC*%
%TO.N,VDD*%
X104462500Y-59010000D03*
%TD*%
D14*
%TO.P,RR0,1*%
%TO.N,Net-(DR0-K)*%
X140650000Y-48895000D03*
%TO.P,RR0,2*%
%TO.N,GNDR*%
X141290000Y-48895000D03*
%TD*%
%TO.P,DA3,1,K*%
%TO.N,Net-(DA3-K)*%
X94930000Y-79375000D03*
%TO.P,DA3,2,A*%
%TO.N,A3*%
X95570000Y-79375000D03*
%TD*%
D10*
%TO.P,RA1,1*%
%TO.N,Net-(DA1-K)*%
X93030000Y-59055000D03*
%TO.P,RA1,2*%
%TO.N,GNDA*%
X92390000Y-59055000D03*
%TD*%
%TO.P,S0,1,K*%
%TO.N,Net-(DS0-K)*%
X138750000Y-50165000D03*
%TO.P,S0,2,A*%
%TO.N,S0*%
X138110000Y-50165000D03*
%TD*%
%TO.P,DR2,1,K*%
%TO.N,Net-(DR2-K)*%
X138750000Y-69215000D03*
%TO.P,DR2,2,A*%
%TO.N,R2*%
X138110000Y-69215000D03*
%TD*%
D14*
%TO.P,RR2,1*%
%TO.N,Net-(DR2-K)*%
X140650000Y-69215000D03*
%TO.P,RR2,2*%
%TO.N,GNDR*%
X141290000Y-69215000D03*
%TD*%
D10*
%TO.P,RC0,1*%
%TO.N,Net-(DC0-K)*%
X114620000Y-55245000D03*
%TO.P,RC0,2*%
%TO.N,GNDC*%
X113980000Y-55245000D03*
%TD*%
%TO.P,RA2,1*%
%TO.N,Net-(DA2-K)*%
X93030000Y-69215000D03*
%TO.P,RA2,2*%
%TO.N,GNDA*%
X92390000Y-69215000D03*
%TD*%
D13*
%TO.P,U32,1*%
%TO.N,/ALUSlice3/Cin*%
X108897500Y-79330000D03*
%TO.P,U32,2*%
%TO.N,Net-(U31-Pad11)*%
X108897500Y-79980000D03*
%TO.P,U32,3*%
%TO.N,Net-(U32-Pad3)*%
X108897500Y-80630000D03*
%TO.P,U32,4*%
%TO.N,/ALUSlice3/Cin*%
X108897500Y-81280000D03*
%TO.P,U32,5*%
%TO.N,Net-(U32-Pad3)*%
X108897500Y-81930000D03*
%TO.P,U32,6*%
%TO.N,Net-(U32-Pad12)*%
X108897500Y-82580000D03*
%TO.P,U32,7,GND*%
%TO.N,GND*%
X108897500Y-83230000D03*
%TO.P,U32,8*%
%TO.N,Net-(U32-Pad13)*%
X114622500Y-83230000D03*
%TO.P,U32,9*%
%TO.N,Net-(U32-Pad3)*%
X114622500Y-82580000D03*
%TO.P,U32,10*%
%TO.N,Net-(U31-Pad11)*%
X114622500Y-81930000D03*
%TO.P,U32,11*%
%TO.N,S3*%
X114622500Y-81280000D03*
%TO.P,U32,12*%
%TO.N,Net-(U32-Pad12)*%
X114622500Y-80630000D03*
%TO.P,U32,13*%
%TO.N,Net-(U32-Pad13)*%
X114622500Y-79980000D03*
%TO.P,U32,14,VCC*%
%TO.N,VDD*%
X114622500Y-79330000D03*
%TD*%
%TO.P,U01,1*%
%TO.N,A0*%
X98737500Y-48850000D03*
%TO.P,U01,2*%
%TO.N,B0*%
X98737500Y-49500000D03*
%TO.P,U01,3*%
%TO.N,Net-(U01-Pad3)*%
X98737500Y-50150000D03*
%TO.P,U01,4*%
%TO.N,A0*%
X98737500Y-50800000D03*
%TO.P,U01,5*%
%TO.N,Net-(U01-Pad3)*%
X98737500Y-51450000D03*
%TO.P,U01,6*%
%TO.N,Net-(U01-Pad12)*%
X98737500Y-52100000D03*
%TO.P,U01,7,GND*%
%TO.N,GND*%
X98737500Y-52750000D03*
%TO.P,U01,8*%
%TO.N,Net-(U01-Pad13)*%
X104462500Y-52750000D03*
%TO.P,U01,9*%
%TO.N,Net-(U01-Pad3)*%
X104462500Y-52100000D03*
%TO.P,U01,10*%
%TO.N,B0*%
X104462500Y-51450000D03*
%TO.P,U01,11*%
%TO.N,Net-(U01-Pad11)*%
X104462500Y-50800000D03*
%TO.P,U01,12*%
%TO.N,Net-(U01-Pad12)*%
X104462500Y-50150000D03*
%TO.P,U01,13*%
%TO.N,Net-(U01-Pad13)*%
X104462500Y-49500000D03*
%TO.P,U01,14,VCC*%
%TO.N,VDD*%
X104462500Y-48850000D03*
%TD*%
D14*
%TO.P,DC0,1,K*%
%TO.N,Net-(DC0-K)*%
X116520000Y-55245000D03*
%TO.P,DC0,2,A*%
%TO.N,/ALUSlice0/C*%
X117160000Y-55245000D03*
%TD*%
%TO.P,DA2,1,K*%
%TO.N,Net-(DA2-K)*%
X94930000Y-69215000D03*
%TO.P,DA2,2,A*%
%TO.N,A2*%
X95570000Y-69215000D03*
%TD*%
D13*
%TO.P,U24,1*%
%TO.N,Net-(U23-Pad8)*%
X129217500Y-69170000D03*
%TO.P,U24,2*%
%TO.N,Net-(U23-Pad11)*%
X129217500Y-69820000D03*
%TO.P,U24,3*%
%TO.N,/ALUSlice2/C*%
X129217500Y-70470000D03*
%TO.P,U24,4*%
%TO.N,Net-(U23-Pad10)*%
X129217500Y-71120000D03*
%TO.P,U24,5*%
%TO.N,AND*%
X129217500Y-71770000D03*
%TO.P,U24,6*%
%TO.N,Net-(U24-Pad13)*%
X129217500Y-72420000D03*
%TO.P,U24,7,GND*%
%TO.N,GND*%
X129217500Y-73070000D03*
%TO.P,U24,8*%
%TO.N,Net-(U24-Pad12)*%
X134942500Y-73070000D03*
%TO.P,U24,9*%
%TO.N,S2*%
X134942500Y-72420000D03*
%TO.P,U24,10*%
%TO.N,XOR*%
X134942500Y-71770000D03*
%TO.P,U24,11*%
%TO.N,R2*%
X134942500Y-71120000D03*
%TO.P,U24,12*%
%TO.N,Net-(U24-Pad12)*%
X134942500Y-70470000D03*
%TO.P,U24,13*%
%TO.N,Net-(U24-Pad13)*%
X134942500Y-69820000D03*
%TO.P,U24,14,VCC*%
%TO.N,VDD*%
X134942500Y-69170000D03*
%TD*%
%TO.P,U04,1*%
%TO.N,Net-(U03-Pad8)*%
X129217500Y-48850000D03*
%TO.P,U04,2*%
%TO.N,Net-(U03-Pad11)*%
X129217500Y-49500000D03*
%TO.P,U04,3*%
%TO.N,/ALUSlice0/C*%
X129217500Y-50150000D03*
%TO.P,U04,4*%
%TO.N,Net-(U03-Pad10)*%
X129217500Y-50800000D03*
%TO.P,U04,5*%
%TO.N,AND*%
X129217500Y-51450000D03*
%TO.P,U04,6*%
%TO.N,Net-(U04-Pad13)*%
X129217500Y-52100000D03*
%TO.P,U04,7,GND*%
%TO.N,GND*%
X129217500Y-52750000D03*
%TO.P,U04,8*%
%TO.N,Net-(U04-Pad12)*%
X134942500Y-52750000D03*
%TO.P,U04,9*%
%TO.N,S0*%
X134942500Y-52100000D03*
%TO.P,U04,10*%
%TO.N,XOR*%
X134942500Y-51450000D03*
%TO.P,U04,11*%
%TO.N,R0*%
X134942500Y-50800000D03*
%TO.P,U04,12*%
%TO.N,Net-(U04-Pad12)*%
X134942500Y-50150000D03*
%TO.P,U04,13*%
%TO.N,Net-(U04-Pad13)*%
X134942500Y-49500000D03*
%TO.P,U04,14,VCC*%
%TO.N,VDD*%
X134942500Y-48850000D03*
%TD*%
%TO.P,U21,1*%
%TO.N,A2*%
X98737500Y-69170000D03*
%TO.P,U21,2*%
%TO.N,B2*%
X98737500Y-69820000D03*
%TO.P,U21,3*%
%TO.N,Net-(U21-Pad3)*%
X98737500Y-70470000D03*
%TO.P,U21,4*%
%TO.N,A2*%
X98737500Y-71120000D03*
%TO.P,U21,5*%
%TO.N,Net-(U21-Pad3)*%
X98737500Y-71770000D03*
%TO.P,U21,6*%
%TO.N,Net-(U21-Pad12)*%
X98737500Y-72420000D03*
%TO.P,U21,7,GND*%
%TO.N,GND*%
X98737500Y-73070000D03*
%TO.P,U21,8*%
%TO.N,Net-(U21-Pad13)*%
X104462500Y-73070000D03*
%TO.P,U21,9*%
%TO.N,Net-(U21-Pad3)*%
X104462500Y-72420000D03*
%TO.P,U21,10*%
%TO.N,B2*%
X104462500Y-71770000D03*
%TO.P,U21,11*%
%TO.N,Net-(U21-Pad11)*%
X104462500Y-71120000D03*
%TO.P,U21,12*%
%TO.N,Net-(U21-Pad12)*%
X104462500Y-70470000D03*
%TO.P,U21,13*%
%TO.N,Net-(U21-Pad13)*%
X104462500Y-69820000D03*
%TO.P,U21,14,VCC*%
%TO.N,VDD*%
X104462500Y-69170000D03*
%TD*%
D14*
%TO.P,RR3,1*%
%TO.N,Net-(DR3-K)*%
X140650000Y-79375000D03*
%TO.P,RR3,2*%
%TO.N,GNDR*%
X141290000Y-79375000D03*
%TD*%
%TO.P,DA1,1,K*%
%TO.N,Net-(DA1-K)*%
X94930000Y-59055000D03*
%TO.P,DA1,2,A*%
%TO.N,A1*%
X95570000Y-59055000D03*
%TD*%
D10*
%TO.P,RB0,1*%
%TO.N,Net-(DB0-K)*%
X93030000Y-50165000D03*
%TO.P,RB0,2*%
%TO.N,GNDB*%
X92390000Y-50165000D03*
%TD*%
%TO.P,RC3,1*%
%TO.N,Net-(DC3-K)*%
X114620000Y-85725000D03*
%TO.P,RC3,2*%
%TO.N,GNDC*%
X113980000Y-85725000D03*
%TD*%
%TO.P,DR1,1,K*%
%TO.N,Net-(DR1-K)*%
X138750000Y-59055000D03*
%TO.P,DR1,2,A*%
%TO.N,R1*%
X138110000Y-59055000D03*
%TD*%
%TO.P,RB1,1*%
%TO.N,Net-(DB1-K)*%
X93030000Y-60325000D03*
%TO.P,RB1,2*%
%TO.N,GNDB*%
X92390000Y-60325000D03*
%TD*%
D13*
%TO.P,U13,1*%
%TO.N,Net-(U12-Pad3)*%
X119057500Y-59010000D03*
%TO.P,U13,2*%
%TO.N,Net-(U11-Pad3)*%
X119057500Y-59660000D03*
%TO.P,U13,3*%
%TO.N,Net-(U13-Pad10)*%
X119057500Y-60310000D03*
%TO.P,U13,4*%
%TO.N,Net-(U12-Pad3)*%
X119057500Y-60960000D03*
%TO.P,U13,5*%
%TO.N,Net-(U11-Pad13)*%
X119057500Y-61610000D03*
%TO.P,U13,6*%
%TO.N,Net-(U13-Pad13)*%
X119057500Y-62260000D03*
%TO.P,U13,7,GND*%
%TO.N,GND*%
X119057500Y-62910000D03*
%TO.P,U13,8*%
%TO.N,Net-(U13-Pad8)*%
X124782500Y-62910000D03*
%TO.P,U13,9*%
%TO.N,ADD*%
X124782500Y-62260000D03*
%TO.P,U13,10*%
%TO.N,Net-(U13-Pad10)*%
X124782500Y-61610000D03*
%TO.P,U13,11*%
%TO.N,Net-(U13-Pad11)*%
X124782500Y-60960000D03*
%TO.P,U13,12*%
%TO.N,SUB*%
X124782500Y-60310000D03*
%TO.P,U13,13*%
%TO.N,Net-(U13-Pad13)*%
X124782500Y-59660000D03*
%TO.P,U13,14,VCC*%
%TO.N,VDD*%
X124782500Y-59010000D03*
%TD*%
%TO.P,U03,1*%
%TO.N,Net-(U02-Pad3)*%
X119057500Y-48850000D03*
%TO.P,U03,2*%
%TO.N,Net-(U01-Pad3)*%
X119057500Y-49500000D03*
%TO.P,U03,3*%
%TO.N,Net-(U03-Pad10)*%
X119057500Y-50150000D03*
%TO.P,U03,4*%
%TO.N,Net-(U02-Pad3)*%
X119057500Y-50800000D03*
%TO.P,U03,5*%
%TO.N,Net-(U01-Pad13)*%
X119057500Y-51450000D03*
%TO.P,U03,6*%
%TO.N,Net-(U03-Pad13)*%
X119057500Y-52100000D03*
%TO.P,U03,7,GND*%
%TO.N,GND*%
X119057500Y-52750000D03*
%TO.P,U03,8*%
%TO.N,Net-(U03-Pad8)*%
X124782500Y-52750000D03*
%TO.P,U03,9*%
%TO.N,ADD*%
X124782500Y-52100000D03*
%TO.P,U03,10*%
%TO.N,Net-(U03-Pad10)*%
X124782500Y-51450000D03*
%TO.P,U03,11*%
%TO.N,Net-(U03-Pad11)*%
X124782500Y-50800000D03*
%TO.P,U03,12*%
%TO.N,SUB*%
X124782500Y-50150000D03*
%TO.P,U03,13*%
%TO.N,Net-(U03-Pad13)*%
X124782500Y-49500000D03*
%TO.P,U03,14,VCC*%
%TO.N,VDD*%
X124782500Y-48850000D03*
%TD*%
D10*
%TO.P,DR0,1,K*%
%TO.N,Net-(DR0-K)*%
X138750000Y-48895000D03*
%TO.P,DR0,2,A*%
%TO.N,R0*%
X138110000Y-48895000D03*
%TD*%
%TO.P,DR3,1,K*%
%TO.N,Net-(DR3-K)*%
X138750000Y-79375000D03*
%TO.P,DR3,2,A*%
%TO.N,R3*%
X138110000Y-79375000D03*
%TD*%
D14*
%TO.P,DB0,1,K*%
%TO.N,Net-(DB0-K)*%
X94930000Y-50165000D03*
%TO.P,DB0,2,A*%
%TO.N,B0*%
X95570000Y-50165000D03*
%TD*%
D13*
%TO.P,U02,1*%
%TO.N,Cin*%
X108897500Y-48880000D03*
%TO.P,U02,2*%
%TO.N,Net-(U01-Pad11)*%
X108897500Y-49530000D03*
%TO.P,U02,3*%
%TO.N,Net-(U02-Pad3)*%
X108897500Y-50180000D03*
%TO.P,U02,4*%
%TO.N,Cin*%
X108897500Y-50830000D03*
%TO.P,U02,5*%
%TO.N,Net-(U02-Pad3)*%
X108897500Y-51480000D03*
%TO.P,U02,6*%
%TO.N,Net-(U02-Pad12)*%
X108897500Y-52130000D03*
%TO.P,U02,7,GND*%
%TO.N,GND*%
X108897500Y-52780000D03*
%TO.P,U02,8*%
%TO.N,Net-(U02-Pad13)*%
X114622500Y-52780000D03*
%TO.P,U02,9*%
%TO.N,Net-(U02-Pad3)*%
X114622500Y-52130000D03*
%TO.P,U02,10*%
%TO.N,Net-(U01-Pad11)*%
X114622500Y-51480000D03*
%TO.P,U02,11*%
%TO.N,S0*%
X114622500Y-50830000D03*
%TO.P,U02,12*%
%TO.N,Net-(U02-Pad12)*%
X114622500Y-50180000D03*
%TO.P,U02,13*%
%TO.N,Net-(U02-Pad13)*%
X114622500Y-49530000D03*
%TO.P,U02,14,VCC*%
%TO.N,VDD*%
X114622500Y-48880000D03*
%TD*%
D14*
%TO.P,DC1,1,K*%
%TO.N,Net-(DC1-K)*%
X116520000Y-65405000D03*
%TO.P,DC1,2,A*%
%TO.N,/ALUSlice1/C*%
X117160000Y-65405000D03*
%TD*%
D11*
%TO.P,JS1,1,Pin_1*%
%TO.N,C*%
X107950000Y-93985000D03*
D12*
%TO.P,JS1,2,Pin_2*%
%TO.N,ADD*%
X107950000Y-91445000D03*
%TO.P,JS1,3,Pin_3*%
%TO.N,unconnected-(JS1-Pin_3-Pad3)*%
X110490000Y-93985000D03*
%TO.P,JS1,4,Pin_4*%
%TO.N,SUB*%
X110490000Y-91445000D03*
%TO.P,JS1,5,Pin_5*%
%TO.N,GNDA*%
X113030000Y-93985000D03*
%TO.P,JS1,6,Pin_6*%
%TO.N,XOR*%
X113030000Y-91445000D03*
%TO.P,JS1,7,Pin_7*%
%TO.N,GNDB*%
X115570000Y-93985000D03*
%TO.P,JS1,8,Pin_8*%
%TO.N,AND*%
X115570000Y-91445000D03*
%TO.P,JS1,9,Pin_9*%
%TO.N,GNDC*%
X118110000Y-93985000D03*
%TO.P,JS1,10,Pin_10*%
%TO.N,unconnected-(JS1-Pin_10-Pad10)*%
X118110000Y-91445000D03*
%TO.P,JS1,11,Pin_11*%
%TO.N,GNDS*%
X120650000Y-93985000D03*
%TO.P,JS1,12,Pin_12*%
%TO.N,unconnected-(JS1-Pin_12-Pad12)*%
X120650000Y-91445000D03*
%TO.P,JS1,13,Pin_13*%
%TO.N,GNDR*%
X123190000Y-93985000D03*
%TO.P,JS1,14,Pin_14*%
%TO.N,unconnected-(JS1-Pin_14-Pad14)*%
X123190000Y-91445000D03*
%TO.P,JS1,15,Pin_15*%
%TO.N,GND*%
X125730000Y-93985000D03*
%TO.P,JS1,16,Pin_16*%
%TO.N,VDD*%
X125730000Y-91445000D03*
%TD*%
D14*
%TO.P,DB2,1,K*%
%TO.N,Net-(DB2-K)*%
X94930000Y-70485000D03*
%TO.P,DB2,2,A*%
%TO.N,B2*%
X95570000Y-70485000D03*
%TD*%
D13*
%TO.P,U14,1*%
%TO.N,Net-(U13-Pad8)*%
X129217500Y-59010000D03*
%TO.P,U14,2*%
%TO.N,Net-(U13-Pad11)*%
X129217500Y-59660000D03*
%TO.P,U14,3*%
%TO.N,/ALUSlice1/C*%
X129217500Y-60310000D03*
%TO.P,U14,4*%
%TO.N,Net-(U13-Pad10)*%
X129217500Y-60960000D03*
%TO.P,U14,5*%
%TO.N,AND*%
X129217500Y-61610000D03*
%TO.P,U14,6*%
%TO.N,Net-(U14-Pad13)*%
X129217500Y-62260000D03*
%TO.P,U14,7,GND*%
%TO.N,GND*%
X129217500Y-62910000D03*
%TO.P,U14,8*%
%TO.N,Net-(U14-Pad12)*%
X134942500Y-62910000D03*
%TO.P,U14,9*%
%TO.N,S1*%
X134942500Y-62260000D03*
%TO.P,U14,10*%
%TO.N,XOR*%
X134942500Y-61610000D03*
%TO.P,U14,11*%
%TO.N,R1*%
X134942500Y-60960000D03*
%TO.P,U14,12*%
%TO.N,Net-(U14-Pad12)*%
X134942500Y-60310000D03*
%TO.P,U14,13*%
%TO.N,Net-(U14-Pad13)*%
X134942500Y-59660000D03*
%TO.P,U14,14,VCC*%
%TO.N,VDD*%
X134942500Y-59010000D03*
%TD*%
D14*
%TO.P,RS3,1*%
%TO.N,Net-(DS3-K)*%
X140650000Y-80645000D03*
%TO.P,RS3,2*%
%TO.N,GNDS*%
X141290000Y-80645000D03*
%TD*%
D13*
%TO.P,U33,1*%
%TO.N,Net-(U32-Pad3)*%
X119057500Y-79330000D03*
%TO.P,U33,2*%
%TO.N,Net-(U31-Pad3)*%
X119057500Y-79980000D03*
%TO.P,U33,3*%
%TO.N,Net-(U33-Pad10)*%
X119057500Y-80630000D03*
%TO.P,U33,4*%
%TO.N,Net-(U32-Pad3)*%
X119057500Y-81280000D03*
%TO.P,U33,5*%
%TO.N,Net-(U31-Pad13)*%
X119057500Y-81930000D03*
%TO.P,U33,6*%
%TO.N,Net-(U33-Pad13)*%
X119057500Y-82580000D03*
%TO.P,U33,7,GND*%
%TO.N,GND*%
X119057500Y-83230000D03*
%TO.P,U33,8*%
%TO.N,Net-(U33-Pad8)*%
X124782500Y-83230000D03*
%TO.P,U33,9*%
%TO.N,ADD*%
X124782500Y-82580000D03*
%TO.P,U33,10*%
%TO.N,Net-(U33-Pad10)*%
X124782500Y-81930000D03*
%TO.P,U33,11*%
%TO.N,Net-(U33-Pad11)*%
X124782500Y-81280000D03*
%TO.P,U33,12*%
%TO.N,SUB*%
X124782500Y-80630000D03*
%TO.P,U33,13*%
%TO.N,Net-(U33-Pad13)*%
X124782500Y-79980000D03*
%TO.P,U33,14,VCC*%
%TO.N,VDD*%
X124782500Y-79330000D03*
%TD*%
D14*
%TO.P,RR1,1*%
%TO.N,Net-(DR1-K)*%
X140650000Y-59055000D03*
%TO.P,RR1,2*%
%TO.N,GNDR*%
X141290000Y-59055000D03*
%TD*%
%TO.P,RS2,1*%
%TO.N,Net-(DS2-K)*%
X140650000Y-70485000D03*
%TO.P,RS2,2*%
%TO.N,GNDS*%
X141290000Y-70485000D03*
%TD*%
D11*
%TO.P,JN1,1,Pin_1*%
%TO.N,Cin*%
X107950000Y-43185000D03*
D12*
%TO.P,JN1,2,Pin_2*%
%TO.N,ADD*%
X107950000Y-40645000D03*
%TO.P,JN1,3,Pin_3*%
%TO.N,unconnected-(JN1-Pin_3-Pad3)*%
X110490000Y-43185000D03*
%TO.P,JN1,4,Pin_4*%
%TO.N,SUB*%
X110490000Y-40645000D03*
%TO.P,JN1,5,Pin_5*%
%TO.N,GNDA*%
X113030000Y-43185000D03*
%TO.P,JN1,6,Pin_6*%
%TO.N,XOR*%
X113030000Y-40645000D03*
%TO.P,JN1,7,Pin_7*%
%TO.N,GNDB*%
X115570000Y-43185000D03*
%TO.P,JN1,8,Pin_8*%
%TO.N,AND*%
X115570000Y-40645000D03*
%TO.P,JN1,9,Pin_9*%
%TO.N,GNDC*%
X118110000Y-43185000D03*
%TO.P,JN1,10,Pin_10*%
%TO.N,unconnected-(JN1-Pin_10-Pad10)*%
X118110000Y-40645000D03*
%TO.P,JN1,11,Pin_11*%
%TO.N,GNDS*%
X120650000Y-43185000D03*
%TO.P,JN1,12,Pin_12*%
%TO.N,unconnected-(JN1-Pin_12-Pad12)*%
X120650000Y-40645000D03*
%TO.P,JN1,13,Pin_13*%
%TO.N,GNDR*%
X123190000Y-43185000D03*
%TO.P,JN1,14,Pin_14*%
%TO.N,unconnected-(JN1-Pin_14-Pad14)*%
X123190000Y-40645000D03*
%TO.P,JN1,15,Pin_15*%
%TO.N,GND*%
X125730000Y-43185000D03*
%TO.P,JN1,16,Pin_16*%
%TO.N,VDD*%
X125730000Y-40645000D03*
%TD*%
D10*
%TO.P,RA0,1*%
%TO.N,Net-(DA0-K)*%
X93030000Y-48895000D03*
%TO.P,RA0,2*%
%TO.N,GNDA*%
X92390000Y-48895000D03*
%TD*%
D14*
%TO.P,RS0,1*%
%TO.N,Net-(DS0-K)*%
X140650000Y-50165000D03*
%TO.P,RS0,2*%
%TO.N,GNDS*%
X141290000Y-50165000D03*
%TD*%
D10*
%TO.P,S3,1,K*%
%TO.N,Net-(DS3-K)*%
X138750000Y-80645000D03*
%TO.P,S3,2,A*%
%TO.N,S3*%
X138110000Y-80645000D03*
%TD*%
%TO.P,RB2,1*%
%TO.N,Net-(DB2-K)*%
X93030000Y-70485000D03*
%TO.P,RB2,2*%
%TO.N,GNDB*%
X92390000Y-70485000D03*
%TD*%
%TO.P,RB3,1*%
%TO.N,Net-(DB3-K)*%
X93030000Y-80645000D03*
%TO.P,RB3,2*%
%TO.N,GNDB*%
X92390000Y-80645000D03*
%TD*%
D15*
%TO.N,Net-(U33-Pad10)*%
X123409800Y-83172700D03*
X122084100Y-79788100D03*
X123508200Y-81344000D03*
%TO.N,Net-(U32-Pad13)*%
X111863900Y-83150300D03*
X111702000Y-79341300D03*
%TO.N,Net-(U32-Pad12)*%
X112204100Y-81159500D03*
X110504200Y-82852900D03*
%TO.N,Net-(U31-Pad3)*%
X116345800Y-80305000D03*
X116483900Y-79005000D03*
X111773700Y-77971300D03*
X107530600Y-82850200D03*
%TO.N,Net-(U31-Pad13)*%
X103210400Y-83135900D03*
X103210400Y-80000800D03*
X117622800Y-78212000D03*
X117659000Y-82588600D03*
%TO.N,Net-(U31-Pad12)*%
X100250900Y-82335300D03*
X101775700Y-79992800D03*
%TO.N,Net-(U23-Pad8)*%
X126282500Y-72239500D03*
X127116800Y-69226800D03*
%TO.N,Net-(U23-Pad13)*%
X122027100Y-73276900D03*
X121456300Y-69171500D03*
%TO.N,Net-(U22-Pad13)*%
X116368000Y-72992000D03*
X116420300Y-69329600D03*
%TO.N,Net-(U21-Pad11)*%
X111524200Y-71838100D03*
X110620200Y-66139800D03*
X101225400Y-66112300D03*
X101118700Y-69526000D03*
%TO.N,Net-(U21-Pad13)*%
X117639700Y-71770000D03*
X108793300Y-90164800D03*
X116146200Y-89250000D03*
X107866600Y-73267300D03*
%TO.N,Net-(U21-Pad3)*%
X103650300Y-68069000D03*
X103210400Y-72440800D03*
%TO.N,Net-(U21-Pad12)*%
X99944900Y-73812300D03*
X102599300Y-70423000D03*
%TO.N,Net-(U13-Pad8)*%
X126507600Y-62516700D03*
X126298500Y-59404300D03*
%TO.N,Net-(U13-Pad10)*%
X122893700Y-61867500D03*
X123168600Y-59293400D03*
%TO.N,Net-(U11-Pad12)*%
X101252800Y-58090300D03*
X100365800Y-62174600D03*
%TO.N,Net-(U11-Pad3)*%
X121788000Y-55504400D03*
X106550800Y-60594400D03*
X106540000Y-54799700D03*
X121056200Y-59325800D03*
%TO.N,Net-(U03-Pad10)*%
X121271100Y-50395900D03*
X121871000Y-52222600D03*
%TO.N,Net-(U01-Pad11)*%
X110979100Y-46181100D03*
X110910100Y-50867700D03*
%TO.N,Net-(U01-Pad13)*%
X101755500Y-52627100D03*
X102903300Y-49459000D03*
%TO.N,Net-(U01-Pad3)*%
X103210400Y-52100000D03*
X104857000Y-48143500D03*
%TO.N,SUB*%
X123495000Y-60910600D03*
X126037200Y-69765200D03*
X123373500Y-50847400D03*
X122497700Y-76389400D03*
X112000500Y-75552900D03*
X121925400Y-81554800D03*
X120589900Y-76500300D03*
%TO.N,XOR*%
X136921600Y-70792400D03*
X136335800Y-61794400D03*
X136605700Y-51312800D03*
X136245700Y-81993000D03*
X135957600Y-89011200D03*
%TO.N,GNDB*%
X93503900Y-71170200D03*
X91599500Y-80475800D03*
X91566800Y-60422600D03*
X91368100Y-49728700D03*
%TO.N,AND*%
X130257100Y-58435900D03*
X127952200Y-52571600D03*
X121103900Y-82880200D03*
X119725300Y-89847000D03*
X127586900Y-72043900D03*
%TO.N,GNDS*%
X121822100Y-85291800D03*
X142354400Y-48933300D03*
X142354400Y-60705800D03*
%TO.N,GNDA*%
X91665300Y-68636000D03*
X93412100Y-48059900D03*
X91666600Y-59417300D03*
X96356000Y-79088800D03*
%TO.N,ADD*%
X122672800Y-52065900D03*
X121011900Y-71142800D03*
X120783600Y-62839200D03*
X123126000Y-82260100D03*
X122107400Y-89727900D03*
%TO.N,GNDC*%
X116840000Y-85021400D03*
X118110400Y-54198600D03*
X118186700Y-76168000D03*
X118221700Y-65020400D03*
%TO.N,Cin*%
X110257300Y-48940500D03*
%TO.N,GNDR*%
X139652500Y-68641900D03*
X138850200Y-77947400D03*
X139638200Y-58831200D03*
X139638200Y-49530000D03*
X139290000Y-47440400D03*
%TO.N,PA2*%
X140024300Y-64638000D03*
X91570500Y-64781800D03*
%TO.N,PC1*%
X110312500Y-63406800D03*
X111875700Y-67636200D03*
%TO.N,PB1*%
X145956600Y-66245400D03*
%TO.N,PE1*%
X92314000Y-65221200D03*
%TO.N,PD0*%
X96722300Y-45296400D03*
X147526800Y-42936200D03*
%TO.N,PE2*%
X89680800Y-94496200D03*
X147526800Y-94496200D03*
%TO.N,S3*%
X116637400Y-84195400D03*
X116601200Y-81355300D03*
%TO.N,S2*%
X111775300Y-74349400D03*
X111875800Y-70948500D03*
%TO.N,S1*%
X111666400Y-63703700D03*
X111749800Y-59541700D03*
%TO.N,S0*%
X115972500Y-51527900D03*
X116182500Y-45572400D03*
X95505100Y-46559000D03*
X116800100Y-53693300D03*
%TO.N,/ALUSlice3/C*%
X128074000Y-85836500D03*
X127965500Y-80797500D03*
%TO.N,/ALUSlice2/C*%
X126527800Y-75522800D03*
X127641100Y-70598700D03*
%TO.N,/ALUSlice1/C*%
X119124300Y-65086800D03*
X119004900Y-45211400D03*
X121103100Y-45803700D03*
X127760200Y-60310000D03*
%TO.N,/ALUSlice0/C*%
X130482300Y-50684900D03*
X131306200Y-54436300D03*
%TO.N,Net-(U12-Pad13)*%
X116314200Y-62857100D03*
X116314200Y-59982200D03*
%TO.N,Net-(U12-Pad12)*%
X110828000Y-62207500D03*
X110766000Y-58452900D03*
%TO.N,Net-(U11-Pad13)*%
X101970800Y-59432800D03*
X101227800Y-62539200D03*
X117584000Y-62464600D03*
%TO.N,A2*%
X101302600Y-71396400D03*
X103123200Y-69273200D03*
%TO.N,VDD*%
X126530900Y-78441700D03*
X124585500Y-48140500D03*
X133065300Y-58051800D03*
X106109500Y-48873200D03*
X106084700Y-58098400D03*
X105046200Y-68438900D03*
X104143500Y-78305600D03*
X132843700Y-68693900D03*
%TO.N,A1*%
X89911300Y-60008600D03*
%TO.N,A0*%
X95465400Y-51876700D03*
X93695000Y-49530000D03*
%TO.N,GND*%
X89680800Y-82366200D03*
X127280700Y-53255000D03*
X127698500Y-83607400D03*
X127385300Y-73265900D03*
X130893300Y-62690700D03*
%TD*%
D16*
%TO.N,Net-(U34-Pad13)*%
X132498800Y-79980000D02*
X134942500Y-79980000D01*
X129898800Y-82580000D02*
X132498800Y-79980000D01*
X129217500Y-82580000D02*
X129898800Y-82580000D01*
%TO.N,Net-(U34-Pad12)*%
X134280800Y-80630000D02*
X134942500Y-80630000D01*
X133862200Y-81048600D02*
X134280800Y-80630000D01*
X133862200Y-82861700D02*
X133862200Y-81048600D01*
X134230500Y-83230000D02*
X133862200Y-82861700D01*
X134942500Y-83230000D02*
X134230500Y-83230000D01*
%TO.N,Net-(U33-Pad13)*%
X120143100Y-82580000D02*
X119057500Y-82580000D01*
X121323700Y-81399400D02*
X120143100Y-82580000D01*
X121323700Y-81305700D02*
X121323700Y-81399400D01*
X121676300Y-80953100D02*
X121323700Y-81305700D01*
X122338400Y-80953100D02*
X121676300Y-80953100D01*
X123311500Y-79980000D02*
X122338400Y-80953100D01*
X124782500Y-79980000D02*
X123311500Y-79980000D01*
%TO.N,Net-(U33-Pad11)*%
X125438700Y-81280000D02*
X124782500Y-81280000D01*
X127908300Y-78810400D02*
X125438700Y-81280000D01*
X130009500Y-78810400D02*
X127908300Y-78810400D01*
X130285800Y-79086700D02*
X130009500Y-78810400D01*
X130285800Y-79645100D02*
X130285800Y-79086700D01*
X129950900Y-79980000D02*
X130285800Y-79645100D01*
X129217500Y-79980000D02*
X129950900Y-79980000D01*
%TO.N,Net-(U33-Pad8)*%
X125450800Y-83230000D02*
X124782500Y-83230000D01*
X126761300Y-81919500D02*
X125450800Y-83230000D01*
X126761300Y-81095200D02*
X126761300Y-81919500D01*
X128526500Y-79330000D02*
X126761300Y-81095200D01*
X129217500Y-79330000D02*
X128526500Y-79330000D01*
%TO.N,Net-(U33-Pad10)*%
X123622500Y-83385400D02*
X123409800Y-83172700D01*
X123631800Y-83385400D02*
X123622500Y-83385400D01*
X123631800Y-83385500D02*
X123631800Y-83385400D01*
X123981900Y-83735600D02*
X123631800Y-83385500D01*
X125657800Y-83735600D02*
X123981900Y-83735600D01*
X127994100Y-81399300D02*
X125657800Y-83735600D01*
X129098200Y-81399300D02*
X127994100Y-81399300D01*
X129217500Y-81280000D02*
X129098200Y-81399300D01*
X120792100Y-79788100D02*
X122084100Y-79788100D01*
X119950200Y-80630000D02*
X120792100Y-79788100D01*
X119057500Y-80630000D02*
X119950200Y-80630000D01*
X124094200Y-81930000D02*
X123508200Y-81344000D01*
X124782500Y-81930000D02*
X124094200Y-81930000D01*
%TO.N,Net-(U32-Pad13)*%
X111943600Y-83230000D02*
X111863900Y-83150300D01*
X114622500Y-83230000D02*
X111943600Y-83230000D01*
X112340700Y-79980000D02*
X114622500Y-79980000D01*
X111702000Y-79341300D02*
X112340700Y-79980000D01*
%TO.N,Net-(U32-Pad3)*%
X108207700Y-81930000D02*
X108897500Y-81930000D01*
X107842200Y-81564500D02*
X108207700Y-81930000D01*
X107842200Y-80955100D02*
X107842200Y-81564500D01*
X108167300Y-80630000D02*
X107842200Y-80955100D01*
X108897500Y-80630000D02*
X108167300Y-80630000D01*
X115756300Y-82580000D02*
X114622500Y-82580000D01*
X115922600Y-82413700D02*
X115756300Y-82580000D01*
X115922600Y-82413700D02*
X115756300Y-82580000D01*
X120781400Y-81280000D02*
X119057500Y-81280000D01*
X121671400Y-80390000D02*
X120781400Y-81280000D01*
X122333500Y-80390000D02*
X121671400Y-80390000D01*
X122686000Y-80037500D02*
X122333500Y-80390000D01*
X122686000Y-79491900D02*
X122686000Y-80037500D01*
X122380400Y-79186300D02*
X122686000Y-79491900D01*
X119201200Y-79186300D02*
X122380400Y-79186300D01*
X119057500Y-79330000D02*
X119201200Y-79186300D01*
X112205800Y-82580000D02*
X114622500Y-82580000D01*
X111555800Y-81930000D02*
X112205800Y-82580000D01*
X108897500Y-81930000D02*
X111555800Y-81930000D01*
X117527400Y-81280000D02*
X119057500Y-81280000D01*
X116393700Y-82413700D02*
X117527400Y-81280000D01*
X115922600Y-82413700D02*
X116393700Y-82413700D01*
%TO.N,Net-(U32-Pad12)*%
X112733600Y-80630000D02*
X114622500Y-80630000D01*
X112204100Y-81159500D02*
X112733600Y-80630000D01*
X110231300Y-82580000D02*
X108897500Y-82580000D01*
X110504200Y-82852900D02*
X110231300Y-82580000D01*
%TO.N,Net-(U31-Pad3)*%
X99493100Y-81930000D02*
X98737500Y-81930000D01*
X99906200Y-81516900D02*
X99493100Y-81930000D01*
X99906200Y-81142500D02*
X99906200Y-81516900D01*
X99393700Y-80630000D02*
X99906200Y-81142500D01*
X98737500Y-80630000D02*
X99393700Y-80630000D01*
X100283400Y-81516900D02*
X99906200Y-81516900D01*
X101300700Y-82534200D02*
X100283400Y-81516900D01*
X104416700Y-82534200D02*
X101300700Y-82534200D01*
X104462500Y-82580000D02*
X104416700Y-82534200D01*
X116929400Y-79980000D02*
X119057500Y-79980000D01*
X116604400Y-80305000D02*
X116929400Y-79980000D01*
X116345800Y-80305000D02*
X116604400Y-80305000D01*
X107260400Y-82580000D02*
X107530600Y-82850200D01*
X104462500Y-82580000D02*
X107260400Y-82580000D01*
X116093800Y-78614900D02*
X116483900Y-79005000D01*
X113708700Y-78614900D02*
X116093800Y-78614900D01*
X113307000Y-78213200D02*
X113708700Y-78614900D01*
X112015600Y-78213200D02*
X113307000Y-78213200D01*
X111773700Y-77971300D02*
X112015600Y-78213200D01*
%TO.N,Net-(U31-Pad11)*%
X108164100Y-79980000D02*
X107825800Y-79641700D01*
X108897500Y-79980000D02*
X108164100Y-79980000D01*
X106187500Y-81280000D02*
X104462500Y-81280000D01*
X107825800Y-79641700D02*
X106187500Y-81280000D01*
X112649500Y-81930000D02*
X114622500Y-81930000D01*
X112480700Y-81761200D02*
X112649500Y-81930000D01*
X111955000Y-81761200D02*
X112480700Y-81761200D01*
X111602400Y-81408600D02*
X111955000Y-81761200D01*
X111602400Y-80655400D02*
X111602400Y-81408600D01*
X109750300Y-78803300D02*
X111602400Y-80655400D01*
X108100200Y-78803300D02*
X109750300Y-78803300D01*
X107825800Y-79077700D02*
X108100200Y-78803300D01*
X107825800Y-79641700D02*
X107825800Y-79077700D01*
%TO.N,Net-(U31-Pad13)*%
X104368400Y-83135900D02*
X103210400Y-83135900D01*
X104462500Y-83230000D02*
X104368400Y-83135900D01*
X103210400Y-80000800D02*
X103417500Y-80000800D01*
X118317600Y-81930000D02*
X119057500Y-81930000D01*
X117659000Y-82588600D02*
X118317600Y-81930000D01*
X103417500Y-79980000D02*
X104462500Y-79980000D01*
X103417500Y-80000800D02*
X103417500Y-79980000D01*
X114073600Y-78212000D02*
X117622800Y-78212000D01*
X113621600Y-77760000D02*
X114073600Y-78212000D01*
X113143700Y-77760000D02*
X113621600Y-77760000D01*
X112742700Y-77359000D02*
X113143700Y-77760000D01*
X104239000Y-77359000D02*
X112742700Y-77359000D01*
X103417500Y-78180500D02*
X104239000Y-77359000D01*
X103417500Y-79980000D02*
X103417500Y-78180500D01*
X117659000Y-82588600D02*
X117622800Y-82588600D01*
X117622800Y-82588600D02*
X117659000Y-82588600D01*
%TO.N,Net-(U31-Pad12)*%
X100006200Y-82580000D02*
X100250900Y-82335300D01*
X98737500Y-82580000D02*
X100006200Y-82580000D01*
X102412900Y-80630000D02*
X104462500Y-80630000D01*
X101775700Y-79992800D02*
X102412900Y-80630000D01*
%TO.N,Net-(U24-Pad13)*%
X131668100Y-72420000D02*
X129217500Y-72420000D01*
X134268100Y-69820000D02*
X131668100Y-72420000D01*
X134942500Y-69820000D02*
X134268100Y-69820000D01*
%TO.N,Net-(U24-Pad12)*%
X134284900Y-73070000D02*
X134942500Y-73070000D01*
X133897000Y-72682100D02*
X134284900Y-73070000D01*
X133897000Y-70840900D02*
X133897000Y-72682100D01*
X134267900Y-70470000D02*
X133897000Y-70840900D01*
X134942500Y-70470000D02*
X134267900Y-70470000D01*
%TO.N,Net-(U23-Pad8)*%
X125452000Y-73070000D02*
X126282500Y-72239500D01*
X124782500Y-73070000D02*
X125452000Y-73070000D01*
X129160700Y-69226800D02*
X129217500Y-69170000D01*
X127116800Y-69226800D02*
X129160700Y-69226800D01*
%TO.N,Net-(U23-Pad11)*%
X127374500Y-69820000D02*
X129217500Y-69820000D01*
X126614800Y-70579700D02*
X127374500Y-69820000D01*
X125981100Y-70579700D02*
X126614800Y-70579700D01*
X125440800Y-71120000D02*
X125981100Y-70579700D01*
X124782500Y-71120000D02*
X125440800Y-71120000D01*
%TO.N,Net-(U23-Pad10)*%
X123558300Y-71770000D02*
X124782500Y-71770000D01*
X122258300Y-70470000D02*
X123558300Y-71770000D01*
X119057500Y-70470000D02*
X122258300Y-70470000D01*
X129137100Y-71200400D02*
X129217500Y-71120000D01*
X126010400Y-71200400D02*
X129137100Y-71200400D01*
X125440800Y-71770000D02*
X126010400Y-71200400D01*
X124782500Y-71770000D02*
X125440800Y-71770000D01*
%TO.N,Net-(U23-Pad13)*%
X121170200Y-72420000D02*
X122027100Y-73276900D01*
X119057500Y-72420000D02*
X121170200Y-72420000D01*
X122104800Y-69820000D02*
X124782500Y-69820000D01*
X121456300Y-69171500D02*
X122104800Y-69820000D01*
%TO.N,Net-(U22-Pad3)*%
X110266000Y-70843200D02*
X110266000Y-71430700D01*
X109892800Y-70470000D02*
X110266000Y-70843200D01*
X109220000Y-70470000D02*
X109892800Y-70470000D01*
X119057500Y-71120000D02*
X118520500Y-71120000D01*
X118309900Y-69170000D02*
X119057500Y-69170000D01*
X117932500Y-69547400D02*
X118309900Y-69170000D01*
X117932500Y-70698200D02*
X117932500Y-69547400D01*
X118354300Y-71120000D02*
X117932500Y-70698200D01*
X118520500Y-71120000D02*
X118354300Y-71120000D01*
X115601200Y-72420000D02*
X114945000Y-72420000D01*
X116901200Y-71120000D02*
X115601200Y-72420000D01*
X118520500Y-71120000D02*
X116901200Y-71120000D01*
X109926700Y-71770000D02*
X109220000Y-71770000D01*
X110266000Y-71430700D02*
X109926700Y-71770000D01*
X111275100Y-72439800D02*
X110266000Y-71430700D01*
X114925200Y-72439800D02*
X111275100Y-72439800D01*
X114945000Y-72420000D02*
X114925200Y-72439800D01*
%TO.N,Net-(U22-Pad12)*%
X108535100Y-72420000D02*
X109220000Y-72420000D01*
X107716400Y-71601300D02*
X108535100Y-72420000D01*
X107716400Y-69339800D02*
X107716400Y-71601300D01*
X108404300Y-68651900D02*
X107716400Y-69339800D01*
X110009700Y-68651900D02*
X108404300Y-68651900D01*
X111704600Y-70346800D02*
X110009700Y-68651900D01*
X114821800Y-70346800D02*
X111704600Y-70346800D01*
X114945000Y-70470000D02*
X114821800Y-70346800D01*
%TO.N,Net-(U22-Pad13)*%
X116290000Y-73070000D02*
X116368000Y-72992000D01*
X114945000Y-73070000D02*
X116290000Y-73070000D01*
X115929900Y-69820000D02*
X114945000Y-69820000D01*
X116420300Y-69329600D02*
X115929900Y-69820000D01*
%TO.N,Net-(U21-Pad11)*%
X110592700Y-66112300D02*
X101225400Y-66112300D01*
X110620200Y-66139800D02*
X110592700Y-66112300D01*
X104352800Y-71229700D02*
X104462500Y-71120000D01*
X102555000Y-71229700D02*
X104352800Y-71229700D01*
X101732200Y-70406900D02*
X102555000Y-71229700D01*
X101732200Y-70139500D02*
X101732200Y-70406900D01*
X101118700Y-69526000D02*
X101732200Y-70139500D01*
X111645500Y-71569000D02*
X111645500Y-71770000D01*
X109896500Y-69820000D02*
X111645500Y-71569000D01*
X109220000Y-69820000D02*
X109896500Y-69820000D01*
X114945000Y-71770000D02*
X111645500Y-71770000D01*
X111592300Y-71770000D02*
X111524200Y-71838100D01*
X111645500Y-71770000D02*
X111592300Y-71770000D01*
%TO.N,Net-(U21-Pad13)*%
X117639700Y-71770000D02*
X119057500Y-71770000D01*
X109708100Y-89250000D02*
X116146200Y-89250000D01*
X108793300Y-90164800D02*
X109708100Y-89250000D01*
X105174700Y-73070000D02*
X105524300Y-72720400D01*
X104462500Y-73070000D02*
X105174700Y-73070000D01*
X105144800Y-69820000D02*
X104462500Y-69820000D01*
X105524300Y-70199500D02*
X105144800Y-69820000D01*
X105524300Y-72720400D02*
X105524300Y-70199500D01*
X107319700Y-72720400D02*
X105524300Y-72720400D01*
X107866600Y-73267300D02*
X107319700Y-72720400D01*
%TO.N,Net-(U21-Pad3)*%
X98030600Y-71770000D02*
X98737500Y-71770000D01*
X97645000Y-71384400D02*
X98030600Y-71770000D01*
X97645000Y-70859100D02*
X97645000Y-71384400D01*
X98034100Y-70470000D02*
X97645000Y-70859100D01*
X98737500Y-70470000D02*
X98034100Y-70470000D01*
X100567200Y-72420000D02*
X104462500Y-72420000D01*
X99917200Y-71770000D02*
X100567200Y-72420000D01*
X98737500Y-71770000D02*
X99917200Y-71770000D01*
X104441700Y-72440800D02*
X104462500Y-72420000D01*
X103210400Y-72440800D02*
X104441700Y-72440800D01*
X103882200Y-67837100D02*
X103650300Y-68069000D01*
X103650300Y-68069000D02*
X103882200Y-67837100D01*
X103882200Y-67837100D02*
X103650300Y-68069000D01*
X119746100Y-69820000D02*
X119057500Y-69820000D01*
X120109500Y-69456600D02*
X119746100Y-69820000D01*
X120109500Y-68888800D02*
X120109500Y-69456600D01*
X119602400Y-68381700D02*
X120109500Y-68888800D01*
X111852300Y-68381700D02*
X119602400Y-68381700D01*
X111708500Y-68237900D02*
X111852300Y-68381700D01*
X111626600Y-68237900D02*
X111708500Y-68237900D01*
X111274000Y-67885300D02*
X111626600Y-68237900D01*
X111274000Y-67885200D02*
X111274000Y-67885300D01*
X111225900Y-67837100D02*
X111274000Y-67885200D01*
X103882200Y-67837100D02*
X111225900Y-67837100D01*
%TO.N,Net-(U21-Pad12)*%
X98141300Y-73812300D02*
X99944900Y-73812300D01*
X97660800Y-73331800D02*
X98141300Y-73812300D01*
X97660800Y-72806200D02*
X97660800Y-73331800D01*
X98047000Y-72420000D02*
X97660800Y-72806200D01*
X98737500Y-72420000D02*
X98047000Y-72420000D01*
X104415500Y-70423000D02*
X104462500Y-70470000D01*
X102599300Y-70423000D02*
X104415500Y-70423000D01*
%TO.N,Net-(U13-Pad8)*%
X126114300Y-62910000D02*
X126507600Y-62516700D01*
X124782500Y-62910000D02*
X126114300Y-62910000D01*
X126692800Y-59010000D02*
X126298500Y-59404300D01*
X129217500Y-59010000D02*
X126692800Y-59010000D01*
%TO.N,Net-(U13-Pad10)*%
X123151200Y-61610000D02*
X122893700Y-61867500D01*
X124782500Y-61610000D02*
X123151200Y-61610000D01*
X127492800Y-60960000D02*
X129217500Y-60960000D01*
X126842800Y-61610000D02*
X127492800Y-60960000D01*
X124782500Y-61610000D02*
X126842800Y-61610000D01*
X122152000Y-60310000D02*
X123168600Y-59293400D01*
X119057500Y-60310000D02*
X122152000Y-60310000D01*
%TO.N,Net-(U12-Pad3)*%
X107861900Y-60310000D02*
X108585000Y-60310000D01*
X107532400Y-60639500D02*
X107861900Y-60310000D01*
X107532400Y-61292600D02*
X107532400Y-60639500D01*
X107849800Y-61610000D02*
X107532400Y-61292600D01*
X108585000Y-61610000D02*
X107849800Y-61610000D01*
X118359900Y-60960000D02*
X117977900Y-60578000D01*
X119057500Y-60960000D02*
X118359900Y-60960000D01*
X117977900Y-59429400D02*
X117977900Y-60578000D01*
X118397300Y-59010000D02*
X117977900Y-59429400D01*
X119057500Y-59010000D02*
X118397300Y-59010000D01*
X108589200Y-61605800D02*
X108585000Y-61610000D01*
X112341400Y-61605800D02*
X108589200Y-61605800D01*
X112995600Y-62260000D02*
X112341400Y-61605800D01*
X114310000Y-62260000D02*
X112995600Y-62260000D01*
X116060500Y-62260000D02*
X114310000Y-62260000D01*
X117742500Y-60578000D02*
X116060500Y-62260000D01*
X117977900Y-60578000D02*
X117742500Y-60578000D01*
%TO.N,Net-(U11-Pad12)*%
X101252800Y-59565700D02*
X101252800Y-58090300D01*
X101997100Y-60310000D02*
X101252800Y-59565700D01*
X104462500Y-60310000D02*
X101997100Y-60310000D01*
X100280400Y-62260000D02*
X98737500Y-62260000D01*
X100365800Y-62174600D02*
X100280400Y-62260000D01*
%TO.N,Net-(U11-Pad3)*%
X98032100Y-60310000D02*
X98737500Y-60310000D01*
X97667300Y-60674800D02*
X98032100Y-60310000D01*
X97667300Y-61202100D02*
X97667300Y-60674800D01*
X98075200Y-61610000D02*
X97667300Y-61202100D01*
X98737500Y-61610000D02*
X98075200Y-61610000D01*
X102207500Y-62260000D02*
X104462500Y-62260000D01*
X101520400Y-61572900D02*
X102207500Y-62260000D01*
X98774600Y-61572900D02*
X101520400Y-61572900D01*
X98737500Y-61610000D02*
X98774600Y-61572900D01*
X106550800Y-60841800D02*
X106550800Y-60594400D01*
X105132600Y-62260000D02*
X106550800Y-60841800D01*
X104462500Y-62260000D02*
X105132600Y-62260000D01*
X121530000Y-55762400D02*
X121788000Y-55504400D01*
X107502700Y-55762400D02*
X121530000Y-55762400D01*
X106540000Y-54799700D02*
X107502700Y-55762400D01*
X120722000Y-59660000D02*
X119057500Y-59660000D01*
X121056200Y-59325800D02*
X120722000Y-59660000D01*
%TO.N,Net-(U04-Pad12)*%
X134282800Y-50150000D02*
X134942500Y-50150000D01*
X133881200Y-50551600D02*
X134282800Y-50150000D01*
X133881200Y-52435800D02*
X133881200Y-50551600D01*
X134195400Y-52750000D02*
X133881200Y-52435800D01*
X134942500Y-52750000D02*
X134195400Y-52750000D01*
%TO.N,Net-(U04-Pad13)*%
X132764900Y-49500000D02*
X134942500Y-49500000D01*
X130164900Y-52100000D02*
X132764900Y-49500000D01*
X129217500Y-52100000D02*
X130164900Y-52100000D01*
%TO.N,Net-(U03-Pad11)*%
X129992400Y-49500000D02*
X129217500Y-49500000D01*
X130311300Y-49181100D02*
X129992400Y-49500000D01*
X130311300Y-48625100D02*
X130311300Y-49181100D01*
X130033200Y-48347000D02*
X130311300Y-48625100D01*
X128382000Y-48347000D02*
X130033200Y-48347000D01*
X125929000Y-50800000D02*
X128382000Y-48347000D01*
X124782500Y-50800000D02*
X125929000Y-50800000D01*
%TO.N,Net-(U03-Pad10)*%
X121025200Y-50150000D02*
X121271100Y-50395900D01*
X119057500Y-50150000D02*
X121025200Y-50150000D01*
X122401700Y-51450000D02*
X124782500Y-51450000D01*
X121904200Y-51947500D02*
X122401700Y-51450000D01*
X121904200Y-52189400D02*
X121904200Y-51947500D01*
X121871000Y-52222600D02*
X121904200Y-52189400D01*
X122967800Y-53253000D02*
X121904200Y-52189400D01*
X125585700Y-53253000D02*
X122967800Y-53253000D01*
X128038700Y-50800000D02*
X125585700Y-53253000D01*
X129217500Y-50800000D02*
X128038700Y-50800000D01*
%TO.N,Net-(U03-Pad13)*%
X123742400Y-49500000D02*
X124782500Y-49500000D01*
X121142400Y-52100000D02*
X123742400Y-49500000D01*
X119057500Y-52100000D02*
X121142400Y-52100000D01*
%TO.N,Net-(U03-Pad8)*%
X125480900Y-52750000D02*
X124782500Y-52750000D01*
X126280800Y-51950100D02*
X125480900Y-52750000D01*
X126280800Y-51128400D02*
X126280800Y-51950100D01*
X128559200Y-48850000D02*
X126280800Y-51128400D01*
X129217500Y-48850000D02*
X128559200Y-48850000D01*
%TO.N,Net-(U02-Pad13)*%
X115571700Y-52780000D02*
X114622500Y-52780000D01*
X116628300Y-51723400D02*
X115571700Y-52780000D01*
X116628300Y-50841000D02*
X116628300Y-51723400D01*
X115317300Y-49530000D02*
X116628300Y-50841000D01*
X114622500Y-49530000D02*
X115317300Y-49530000D01*
%TO.N,Net-(U02-Pad12)*%
X108220300Y-52130000D02*
X108897500Y-52130000D01*
X107405100Y-51314800D02*
X108220300Y-52130000D01*
X107405100Y-49040000D02*
X107405100Y-51314800D01*
X108106300Y-48338800D02*
X107405100Y-49040000D01*
X111930200Y-48338800D02*
X108106300Y-48338800D01*
X113771400Y-50180000D02*
X111930200Y-48338800D01*
X114622500Y-50180000D02*
X113771400Y-50180000D01*
%TO.N,Net-(U02-Pad3)*%
X109603300Y-51480000D02*
X109947600Y-51135700D01*
X108897500Y-51480000D02*
X109603300Y-51480000D01*
X109566000Y-50180000D02*
X108897500Y-50180000D01*
X109947600Y-50561600D02*
X109566000Y-50180000D01*
X109947600Y-51135700D02*
X109947600Y-50561600D01*
X113557300Y-52130000D02*
X114622500Y-52130000D01*
X110941900Y-52130000D02*
X113557300Y-52130000D01*
X109947600Y-51135700D02*
X110941900Y-52130000D01*
X117988200Y-50650600D02*
X118137600Y-50800000D01*
X117988200Y-49234000D02*
X117988200Y-50650600D01*
X118372200Y-48850000D02*
X117988200Y-49234000D01*
X119057500Y-48850000D02*
X118372200Y-48850000D01*
X119057500Y-50800000D02*
X118137600Y-50800000D01*
X113557300Y-53095000D02*
X113557300Y-52130000D01*
X113745000Y-53282700D02*
X113557300Y-53095000D01*
X115654900Y-53282700D02*
X113745000Y-53282700D01*
X118137600Y-50800000D02*
X115654900Y-53282700D01*
%TO.N,Net-(U01-Pad11)*%
X109572400Y-49530000D02*
X110910100Y-50867700D01*
X108897500Y-49530000D02*
X109572400Y-49530000D01*
X111522400Y-51480000D02*
X114622500Y-51480000D01*
X110910100Y-50867700D02*
X111522400Y-51480000D01*
X103333900Y-50800000D02*
X104462500Y-50800000D01*
X102251900Y-49718000D02*
X103333900Y-50800000D01*
X102251900Y-49139000D02*
X102251900Y-49718000D01*
X105209800Y-46181100D02*
X102251900Y-49139000D01*
X110979100Y-46181100D02*
X105209800Y-46181100D01*
%TO.N,Net-(U01-Pad13)*%
X101878400Y-52750000D02*
X101755500Y-52627100D01*
X104462500Y-52750000D02*
X101878400Y-52750000D01*
X104421500Y-49459000D02*
X104462500Y-49500000D01*
X102903300Y-49459000D02*
X104421500Y-49459000D01*
X121141800Y-51450000D02*
X119057500Y-51450000D01*
X121874200Y-50717600D02*
X121141800Y-51450000D01*
X121874200Y-49720800D02*
X121874200Y-50717600D01*
X119266000Y-47112600D02*
X121874200Y-49720800D01*
X104853700Y-47112600D02*
X119266000Y-47112600D01*
X102903300Y-49063000D02*
X104853700Y-47112600D01*
X102903300Y-49459000D02*
X102903300Y-49063000D01*
%TO.N,Net-(U01-Pad3)*%
X99781300Y-50535200D02*
X99781300Y-51107000D01*
X99396100Y-50150000D02*
X99781300Y-50535200D01*
X98737500Y-50150000D02*
X99396100Y-50150000D01*
X99438300Y-51450000D02*
X98737500Y-51450000D01*
X99781300Y-51107000D02*
X99438300Y-51450000D01*
X100658800Y-51984500D02*
X99781300Y-51107000D01*
X103094900Y-51984500D02*
X100658800Y-51984500D01*
X103210400Y-52100000D02*
X103094900Y-51984500D01*
X104462500Y-52100000D02*
X103210400Y-52100000D01*
X119767900Y-49500000D02*
X119057500Y-49500000D01*
X120164000Y-49103900D02*
X119767900Y-49500000D01*
X120164000Y-48608800D02*
X120164000Y-49103900D01*
X119069500Y-47514300D02*
X120164000Y-48608800D01*
X105486200Y-47514300D02*
X119069500Y-47514300D01*
X104857000Y-48143500D02*
X105486200Y-47514300D01*
%TO.N,Net-(U01-Pad12)*%
X105158500Y-50150000D02*
X104462500Y-50150000D01*
X105507900Y-50499400D02*
X105158500Y-50150000D01*
X105507900Y-53071800D02*
X105507900Y-50499400D01*
X105326100Y-53253600D02*
X105507900Y-53071800D01*
X100634800Y-53253600D02*
X105326100Y-53253600D01*
X99481200Y-52100000D02*
X100634800Y-53253600D01*
X98737500Y-52100000D02*
X99481200Y-52100000D01*
%TO.N,/ALUSlice3/Cin*%
X109622700Y-81280000D02*
X108897500Y-81280000D01*
X109988400Y-80914300D02*
X109622700Y-81280000D01*
X109988400Y-79750000D02*
X109988400Y-80914300D01*
X109568400Y-79330000D02*
X109988400Y-79750000D01*
X108897500Y-79330000D02*
X109568400Y-79330000D01*
%TO.N,/ALUSlice2/Cin*%
X108563800Y-69170000D02*
X109220000Y-69170000D01*
X108171100Y-69562700D02*
X108563800Y-69170000D01*
X108171100Y-70733600D02*
X108171100Y-69562700D01*
X108557500Y-71120000D02*
X108171100Y-70733600D01*
X109220000Y-71120000D02*
X108557500Y-71120000D01*
%TO.N,/ALUSlice1/Cin*%
X109284800Y-60960000D02*
X108585000Y-60960000D01*
X109679700Y-60565100D02*
X109284800Y-60960000D01*
X109679700Y-59368100D02*
X109679700Y-60565100D01*
X109321600Y-59010000D02*
X109679700Y-59368100D01*
X108585000Y-59010000D02*
X109321600Y-59010000D01*
%TO.N,SUB*%
X125438700Y-70470000D02*
X124782500Y-70470000D01*
X126037200Y-69871500D02*
X125438700Y-70470000D01*
X126037200Y-69765200D02*
X126037200Y-69871500D01*
X124070900Y-50150000D02*
X123373500Y-50847400D01*
X124782500Y-50150000D02*
X124070900Y-50150000D01*
X124095600Y-60310000D02*
X123495000Y-60910600D01*
X124782500Y-60310000D02*
X124095600Y-60310000D01*
X122386800Y-76500300D02*
X122497700Y-76389400D01*
X120589900Y-76500300D02*
X122386800Y-76500300D01*
X122446600Y-81554800D02*
X121925400Y-81554800D01*
X123371400Y-80630000D02*
X122446600Y-81554800D01*
X124782500Y-80630000D02*
X123371400Y-80630000D01*
X112879600Y-75552900D02*
X112000500Y-75552900D01*
X113824300Y-76497600D02*
X112879600Y-75552900D01*
X115667500Y-76497600D02*
X113824300Y-76497600D01*
X115939600Y-76769700D02*
X115667500Y-76497600D01*
X120320500Y-76769700D02*
X115939600Y-76769700D01*
X120589900Y-76500300D02*
X120320500Y-76769700D01*
%TO.N,XOR*%
X134996300Y-61663800D02*
X134942500Y-61610000D01*
X136205300Y-61663800D02*
X134996300Y-61663800D01*
X136205300Y-61663900D02*
X136205300Y-61663800D01*
X136335800Y-61794400D02*
X136205300Y-61663900D01*
X135079700Y-51312800D02*
X134942500Y-51450000D01*
X136605700Y-51312800D02*
X135079700Y-51312800D01*
X135944000Y-71770000D02*
X136921600Y-70792400D01*
X134942500Y-71770000D02*
X135944000Y-71770000D01*
X136182700Y-81930000D02*
X134942500Y-81930000D01*
X136245700Y-81993000D02*
X136182700Y-81930000D01*
X132333200Y-92635600D02*
X135957600Y-89011200D01*
X114220600Y-92635600D02*
X132333200Y-92635600D01*
X113030000Y-91445000D02*
X114220600Y-92635600D01*
%TO.N,GNDB*%
X92885000Y-71170200D02*
X93503900Y-71170200D01*
X92390000Y-70675200D02*
X92885000Y-71170200D01*
X92390000Y-70485000D02*
X92390000Y-70675200D01*
X91768700Y-80645000D02*
X91599500Y-80475800D01*
X92390000Y-80645000D02*
X91768700Y-80645000D01*
X91664400Y-60325000D02*
X91566800Y-60422600D01*
X92390000Y-60325000D02*
X91664400Y-60325000D01*
X91707500Y-49728700D02*
X91830600Y-49605600D01*
X91368100Y-49728700D02*
X91707500Y-49728700D01*
X91830600Y-48622100D02*
X91830600Y-49605600D01*
X98474100Y-41978600D02*
X91830600Y-48622100D01*
X114363600Y-41978600D02*
X98474100Y-41978600D01*
X115570000Y-43185000D02*
X114363600Y-41978600D01*
X91830600Y-49605600D02*
X92390000Y-50165000D01*
%TO.N,AND*%
X128488700Y-51450000D02*
X129217500Y-51450000D01*
X127952200Y-51986500D02*
X128488700Y-51450000D01*
X127952200Y-52571600D02*
X127952200Y-51986500D01*
X130257100Y-61226600D02*
X130257100Y-58435900D01*
X129873700Y-61610000D02*
X130257100Y-61226600D01*
X129217500Y-61610000D02*
X129873700Y-61610000D01*
X122109500Y-82880200D02*
X121103900Y-82880200D01*
X123014900Y-83785600D02*
X122109500Y-82880200D01*
X123376400Y-83785600D02*
X123014900Y-83785600D01*
X123738700Y-84147900D02*
X123376400Y-83785600D01*
X125857200Y-84147900D02*
X123738700Y-84147900D01*
X128075100Y-81930000D02*
X125857200Y-84147900D01*
X129217500Y-81930000D02*
X128075100Y-81930000D01*
X127860800Y-71770000D02*
X127586900Y-72043900D01*
X129217500Y-71770000D02*
X127860800Y-71770000D01*
X117716800Y-89847000D02*
X119725300Y-89847000D01*
X116118800Y-91445000D02*
X117716800Y-89847000D01*
X115570000Y-91445000D02*
X116118800Y-91445000D01*
%TO.N,GNDS*%
X142354400Y-49100600D02*
X142354400Y-48933300D01*
X141290000Y-50165000D02*
X142354400Y-49100600D01*
X141670800Y-60705800D02*
X141290000Y-60325000D01*
X142354400Y-60705800D02*
X141670800Y-60705800D01*
X150221400Y-80645000D02*
X141290000Y-80645000D01*
X151031100Y-79835300D02*
X150221400Y-80645000D01*
X151031100Y-71294700D02*
X151031100Y-79835300D01*
X150221400Y-70485000D02*
X151031100Y-71294700D01*
X150221400Y-70485000D02*
X141290000Y-70485000D01*
X151423700Y-63018500D02*
X151188300Y-62783100D01*
X151423700Y-69282700D02*
X151423700Y-63018500D01*
X150221400Y-70485000D02*
X151423700Y-69282700D01*
X150282100Y-60325000D02*
X141290000Y-60325000D01*
X151022000Y-61064900D02*
X150282100Y-60325000D01*
X151022000Y-62616800D02*
X151022000Y-61064900D01*
X151188300Y-62783100D02*
X151022000Y-62616800D01*
X151188300Y-62783100D02*
X151022000Y-62616800D01*
X125171000Y-85518500D02*
X125297100Y-85392400D01*
X125171000Y-85518500D02*
X125297100Y-85392400D01*
X141290000Y-80881100D02*
X141290000Y-80645000D01*
X136936300Y-85234800D02*
X141290000Y-80881100D01*
X126688200Y-85234800D02*
X136936300Y-85234800D01*
X126530600Y-85392400D02*
X126688200Y-85234800D01*
X125297100Y-85392400D02*
X126530600Y-85392400D01*
X122231500Y-85701200D02*
X121822100Y-85291800D01*
X124988300Y-85701200D02*
X122231500Y-85701200D01*
X125171000Y-85518500D02*
X124988300Y-85701200D01*
%TO.N,GNDA*%
X92390000Y-79216300D02*
X92390000Y-79375000D01*
X92733400Y-78872900D02*
X92390000Y-79216300D01*
X95866600Y-78872900D02*
X92733400Y-78872900D01*
X96082500Y-79088800D02*
X95866600Y-78872900D01*
X96356000Y-79088800D02*
X96082500Y-79088800D01*
X91811000Y-68636000D02*
X91665300Y-68636000D01*
X92390000Y-69215000D02*
X91811000Y-68636000D01*
X93412100Y-47755800D02*
X93412100Y-48059900D01*
X96549100Y-44618800D02*
X93412100Y-47755800D01*
X111596200Y-44618800D02*
X96549100Y-44618800D01*
X113030000Y-43185000D02*
X111596200Y-44618800D01*
X92390000Y-48697700D02*
X92390000Y-48895000D01*
X93027800Y-48059900D02*
X92390000Y-48697700D01*
X93412100Y-48059900D02*
X93027800Y-48059900D01*
X92028900Y-59055000D02*
X92390000Y-59055000D01*
X91666600Y-59417300D02*
X92028900Y-59055000D01*
X91665300Y-68636000D02*
X91811000Y-68636000D01*
X91811000Y-68636000D02*
X91665300Y-68636000D01*
%TO.N,ADD*%
X122289100Y-72420000D02*
X121011900Y-71142800D01*
X124782500Y-72420000D02*
X122289100Y-72420000D01*
X123643300Y-62260000D02*
X124782500Y-62260000D01*
X123064100Y-62839200D02*
X123643300Y-62260000D01*
X120783600Y-62839200D02*
X123064100Y-62839200D01*
X123895900Y-82580000D02*
X124782500Y-82580000D01*
X123576000Y-82260100D02*
X123895900Y-82580000D01*
X123126000Y-82260100D02*
X123576000Y-82260100D01*
X122706900Y-52100000D02*
X122672800Y-52065900D01*
X124782500Y-52100000D02*
X122706900Y-52100000D01*
X121624700Y-89245200D02*
X122107400Y-89727900D01*
X117371500Y-89245200D02*
X121624700Y-89245200D01*
X116401500Y-90215200D02*
X117371500Y-89245200D01*
X109747700Y-90215200D02*
X116401500Y-90215200D01*
X108517900Y-91445000D02*
X109747700Y-90215200D01*
X107950000Y-91445000D02*
X108517900Y-91445000D01*
%TO.N,GNDC*%
X118090700Y-64889400D02*
X118221700Y-65020400D01*
X114336900Y-64889400D02*
X118090700Y-64889400D01*
X113980000Y-65246300D02*
X114336900Y-64889400D01*
X113980000Y-65405000D02*
X113980000Y-65246300D01*
X114514100Y-85021400D02*
X116840000Y-85021400D01*
X113980000Y-85555500D02*
X114514100Y-85021400D01*
X113980000Y-85725000D02*
X113980000Y-85555500D01*
X113980000Y-75793800D02*
X113980000Y-75565000D01*
X114282100Y-76095900D02*
X113980000Y-75793800D01*
X118114600Y-76095900D02*
X114282100Y-76095900D01*
X118186700Y-76168000D02*
X118114600Y-76095900D01*
X118014000Y-54295000D02*
X118110400Y-54198600D01*
X114750100Y-54295000D02*
X118014000Y-54295000D01*
X113980000Y-55065100D02*
X114750100Y-54295000D01*
X113980000Y-55245000D02*
X113980000Y-55065100D01*
%TO.N,Cin*%
X108241300Y-48880000D02*
X108897500Y-48880000D01*
X107857900Y-49263400D02*
X108241300Y-48880000D01*
X107857900Y-50472600D02*
X107857900Y-49263400D01*
X108215300Y-50830000D02*
X107857900Y-50472600D01*
X108897500Y-50830000D02*
X108215300Y-50830000D01*
X108958000Y-48940500D02*
X108897500Y-48880000D01*
X110257300Y-48940500D02*
X108958000Y-48940500D01*
%TO.N,GNDR*%
X140899000Y-68641900D02*
X139652500Y-68641900D01*
X141290000Y-69032900D02*
X140899000Y-68641900D01*
X141290000Y-69215000D02*
X141290000Y-69032900D01*
X140089700Y-77947400D02*
X138850200Y-77947400D01*
X141290000Y-79147700D02*
X140089700Y-77947400D01*
X141290000Y-79375000D02*
X141290000Y-79147700D01*
X139930200Y-58539200D02*
X139638200Y-58831200D01*
X140932900Y-58539200D02*
X139930200Y-58539200D01*
X141290000Y-58896300D02*
X140932900Y-58539200D01*
X141290000Y-59055000D02*
X141290000Y-58896300D01*
X140813700Y-49530000D02*
X139638200Y-49530000D01*
X141290000Y-49053700D02*
X140813700Y-49530000D01*
X141290000Y-48895000D02*
X141290000Y-49053700D01*
X127445400Y-47440400D02*
X139290000Y-47440400D01*
X123190000Y-43185000D02*
X127445400Y-47440400D01*
%TO.N,PD1*%
X89318600Y-64135000D02*
X86995000Y-64135000D01*
X92105400Y-66921800D02*
X89318600Y-64135000D01*
X111171300Y-66921800D02*
X92105400Y-66921800D01*
X111460300Y-66632800D02*
X111171300Y-66921800D01*
X112291200Y-66632800D02*
X111460300Y-66632800D01*
X112580200Y-66921800D02*
X112291200Y-66632800D01*
X121039500Y-66921800D02*
X112580200Y-66921800D01*
X122307700Y-65653600D02*
X121039500Y-66921800D01*
X145141600Y-65653600D02*
X122307700Y-65653600D01*
X145390200Y-65405000D02*
X145141600Y-65653600D01*
X148590000Y-65405000D02*
X145390200Y-65405000D01*
X149860000Y-64135000D02*
X148590000Y-65405000D01*
%TO.N,PC0*%
X126590700Y-57531500D02*
X126494500Y-57627700D01*
X126590700Y-57531500D02*
X126494500Y-57627700D01*
X114568700Y-57531500D02*
X114402400Y-57697800D01*
X114568700Y-57531500D02*
X114402400Y-57697800D01*
X96581900Y-57449500D02*
X96539800Y-57491600D01*
X114154100Y-57449500D02*
X96581900Y-57449500D01*
X114402400Y-57697800D02*
X114154100Y-57449500D01*
X85636300Y-57696300D02*
X84455000Y-56515000D01*
X96335100Y-57696300D02*
X85636300Y-57696300D01*
X96539800Y-57491600D02*
X96335100Y-57696300D01*
X96539800Y-57491600D02*
X96335100Y-57696300D01*
X126409300Y-57712900D02*
X126494500Y-57627700D01*
X114750100Y-57712900D02*
X126409300Y-57712900D01*
X114568700Y-57531500D02*
X114750100Y-57712900D01*
X146431100Y-57403900D02*
X147320000Y-56515000D01*
X126718300Y-57403900D02*
X146431100Y-57403900D01*
X126590700Y-57531500D02*
X126718300Y-57403900D01*
%TO.N,PA2*%
X91732800Y-64619500D02*
X91570500Y-64781800D01*
X92564800Y-64619500D02*
X91732800Y-64619500D01*
X93054000Y-65108700D02*
X92564800Y-64619500D01*
X112106300Y-65108700D02*
X93054000Y-65108700D01*
X113047100Y-66049500D02*
X112106300Y-65108700D01*
X119012500Y-66049500D02*
X113047100Y-66049500D01*
X120328400Y-64733600D02*
X119012500Y-66049500D01*
X120328400Y-64733500D02*
X120328400Y-64733600D01*
X139928800Y-64733500D02*
X120328400Y-64733500D01*
X140024300Y-64638000D02*
X139928800Y-64733500D01*
%TO.N,PD3*%
X148694900Y-83289900D02*
X149860000Y-84455000D01*
X146829200Y-83289900D02*
X148694900Y-83289900D01*
X143316400Y-86802700D02*
X146829200Y-83289900D01*
X135043300Y-86802700D02*
X143316400Y-86802700D01*
X135006100Y-86839900D02*
X135043300Y-86802700D01*
X127658600Y-86839900D02*
X135006100Y-86839900D01*
X127499200Y-86680500D02*
X127658600Y-86839900D01*
X125713000Y-86680500D02*
X127499200Y-86680500D01*
X125669900Y-86723600D02*
X125713000Y-86680500D01*
X125669900Y-86723600D02*
X125713000Y-86680500D01*
X105104200Y-86364600D02*
X104398000Y-87070800D01*
X107265500Y-86364600D02*
X105104200Y-86364600D01*
X107283100Y-86382200D02*
X107265500Y-86364600D01*
X107762200Y-86382200D02*
X107283100Y-86382200D01*
X108077000Y-86697000D02*
X107762200Y-86382200D01*
X118168900Y-86697000D02*
X108077000Y-86697000D01*
X118430900Y-86959000D02*
X118168900Y-86697000D01*
X125434500Y-86959000D02*
X118430900Y-86959000D01*
X125669900Y-86723600D02*
X125434500Y-86959000D01*
X87440900Y-84900900D02*
X86995000Y-84455000D01*
X93281700Y-84900900D02*
X87440900Y-84900900D01*
X95457400Y-87076600D02*
X93281700Y-84900900D01*
X104392200Y-87076600D02*
X95457400Y-87076600D01*
X104398000Y-87070800D02*
X104392200Y-87076600D01*
X104398000Y-87070800D02*
X104392200Y-87076600D01*
%TO.N,PC2*%
X137859000Y-77242600D02*
X137851400Y-77250200D01*
X137859000Y-77242600D02*
X137851400Y-77250200D01*
X138266600Y-76835000D02*
X137859000Y-77242600D01*
X147320000Y-76835000D02*
X138266600Y-76835000D01*
X119453200Y-78139300D02*
X119550900Y-78041600D01*
X119453200Y-78139300D02*
X119550900Y-78041600D01*
X123400400Y-78041600D02*
X123716600Y-77725400D01*
X119550900Y-78041600D02*
X123400400Y-78041600D01*
X137386700Y-77714900D02*
X137851400Y-77250200D01*
X123727100Y-77714900D02*
X137386700Y-77714900D01*
X123716600Y-77725400D02*
X123727100Y-77714900D01*
X123716600Y-77725400D02*
X123727100Y-77714900D01*
X85618100Y-77998100D02*
X84455000Y-76835000D01*
X102761000Y-77998100D02*
X85618100Y-77998100D01*
X103056400Y-77702700D02*
X102761000Y-77998100D01*
X103155400Y-77603700D02*
X103056400Y-77702700D01*
X103155400Y-77603700D02*
X103056400Y-77702700D01*
X103802500Y-76956600D02*
X103155400Y-77603700D01*
X113147300Y-76956600D02*
X103802500Y-76956600D01*
X113549000Y-77358300D02*
X113147300Y-76956600D01*
X113788000Y-77358300D02*
X113549000Y-77358300D01*
X114040000Y-77610300D02*
X113788000Y-77358300D01*
X118924200Y-77610300D02*
X114040000Y-77610300D01*
X119453200Y-78139300D02*
X118924200Y-77610300D01*
%TO.N,PA1*%
X113721400Y-64321300D02*
X113555300Y-64487400D01*
X113721400Y-64321300D02*
X113555300Y-64487400D01*
X135844700Y-64321300D02*
X113721400Y-64321300D01*
X138571000Y-61595000D02*
X135844700Y-64321300D01*
X147320000Y-61595000D02*
X138571000Y-61595000D01*
X109877800Y-64471700D02*
X109939300Y-64410200D01*
X109877800Y-64471700D02*
X109939300Y-64410200D01*
X113478100Y-64410200D02*
X113555300Y-64487400D01*
X109939300Y-64410200D02*
X113478100Y-64410200D01*
X85809000Y-62949000D02*
X84455000Y-61595000D01*
X90588600Y-62949000D02*
X85809000Y-62949000D01*
X91857400Y-64217800D02*
X90588600Y-62949000D01*
X97922300Y-64217800D02*
X91857400Y-64217800D01*
X98410100Y-64705600D02*
X97922300Y-64217800D01*
X109643900Y-64705600D02*
X98410100Y-64705600D01*
X109877800Y-64471700D02*
X109643900Y-64705600D01*
%TO.N,PD2*%
X87682000Y-74982000D02*
X100762100Y-74982000D01*
X86995000Y-74295000D02*
X87682000Y-74982000D01*
X100762100Y-74982000D02*
X100788600Y-74955500D01*
X100762100Y-74982000D02*
X100788600Y-74955500D01*
X100792900Y-74951200D02*
X100788600Y-74955500D01*
X112249700Y-74951200D02*
X100792900Y-74951200D01*
X112331700Y-75033200D02*
X112249700Y-74951200D01*
X126166600Y-75033200D02*
X112331700Y-75033200D01*
X126278700Y-74921100D02*
X126166600Y-75033200D01*
X144806700Y-74921100D02*
X126278700Y-74921100D01*
X146584500Y-73143300D02*
X144806700Y-74921100D01*
X148708300Y-73143300D02*
X146584500Y-73143300D01*
X149860000Y-74295000D02*
X148708300Y-73143300D01*
%TO.N,PC1*%
X112218000Y-67978500D02*
X111875700Y-67636200D01*
X121954100Y-67978500D02*
X112218000Y-67978500D01*
X122085000Y-68109400D02*
X121954100Y-67978500D01*
X124539100Y-68109400D02*
X122085000Y-68109400D01*
X124832300Y-67816200D02*
X124539100Y-68109400D01*
X132872700Y-67816200D02*
X124832300Y-67816200D01*
X133494400Y-67194500D02*
X132872700Y-67816200D01*
X146800500Y-67194500D02*
X133494400Y-67194500D01*
X147320000Y-66675000D02*
X146800500Y-67194500D01*
X83243800Y-65463800D02*
X84455000Y-66675000D01*
X83243800Y-61108700D02*
X83243800Y-65463800D01*
X83928500Y-60424000D02*
X83243800Y-61108700D01*
X88907900Y-60424000D02*
X83928500Y-60424000D01*
X89495900Y-61012000D02*
X88907900Y-60424000D01*
X90049400Y-61012000D02*
X89495900Y-61012000D01*
X92450200Y-63412800D02*
X90049400Y-61012000D01*
X98353200Y-63412800D02*
X92450200Y-63412800D01*
X98794100Y-63853700D02*
X98353200Y-63412800D01*
X109159600Y-63853700D02*
X98794100Y-63853700D01*
X109606500Y-63406800D02*
X109159600Y-63853700D01*
X110312500Y-63406800D02*
X109606500Y-63406800D01*
%TO.N,PB1*%
X128082600Y-66796800D02*
X128247400Y-66632000D01*
X128082600Y-66796800D02*
X128247400Y-66632000D01*
X145570000Y-66632000D02*
X145956600Y-66245400D01*
X128247400Y-66632000D02*
X145570000Y-66632000D01*
X122274900Y-67660600D02*
X122404800Y-67530700D01*
X122274900Y-67660600D02*
X122404800Y-67530700D01*
X85741400Y-65421400D02*
X84455000Y-64135000D01*
X87914400Y-65421400D02*
X85741400Y-65421400D01*
X89928300Y-67435300D02*
X87914400Y-65421400D01*
X111225800Y-67435300D02*
X89928300Y-67435300D01*
X111626600Y-67034500D02*
X111225800Y-67435300D01*
X112124900Y-67034500D02*
X111626600Y-67034500D01*
X112525800Y-67435400D02*
X112124900Y-67034500D01*
X122049700Y-67435400D02*
X112525800Y-67435400D01*
X122274900Y-67660600D02*
X122049700Y-67435400D01*
X123138700Y-66796800D02*
X122404800Y-67530700D01*
X128082600Y-66796800D02*
X123138700Y-66796800D01*
%TO.N,PB3*%
X144982700Y-86792300D02*
X144499500Y-86792300D01*
X147320000Y-84455000D02*
X144982700Y-86792300D01*
X144499500Y-86792300D02*
X144411200Y-86880600D01*
X144499500Y-86792300D02*
X144411200Y-86880600D01*
X144358100Y-86880600D02*
X144411200Y-86880600D01*
X144034300Y-87204400D02*
X144358100Y-86880600D01*
X135209600Y-87204400D02*
X144034300Y-87204400D01*
X135172400Y-87241600D02*
X135209600Y-87204400D01*
X127492300Y-87241600D02*
X135172400Y-87241600D01*
X127382400Y-87131700D02*
X127492300Y-87241600D01*
X125829800Y-87131700D02*
X127382400Y-87131700D01*
X125600800Y-87360700D02*
X125829800Y-87131700D01*
X125124600Y-87360700D02*
X125600800Y-87360700D01*
X124959200Y-87526100D02*
X125124600Y-87360700D01*
X124959200Y-87526100D02*
X125124600Y-87360700D01*
X105270500Y-86766300D02*
X104564300Y-87472500D01*
X107099200Y-86766300D02*
X105270500Y-86766300D01*
X107116800Y-86783900D02*
X107099200Y-86766300D01*
X107595900Y-86783900D02*
X107116800Y-86783900D01*
X107910700Y-87098700D02*
X107595900Y-86783900D01*
X118002600Y-87098700D02*
X107910700Y-87098700D01*
X118341300Y-87437400D02*
X118002600Y-87098700D01*
X122122700Y-87437400D02*
X118341300Y-87437400D01*
X122447700Y-87762400D02*
X122122700Y-87437400D01*
X124607500Y-87762400D02*
X122447700Y-87762400D01*
X124608400Y-87761500D02*
X124607500Y-87762400D01*
X124723800Y-87761500D02*
X124608400Y-87761500D01*
X124959200Y-87526100D02*
X124723800Y-87761500D01*
X85843300Y-85843300D02*
X84455000Y-84455000D01*
X93465300Y-85843300D02*
X85843300Y-85843300D01*
X95100300Y-87478300D02*
X93465300Y-85843300D01*
X104558500Y-87478300D02*
X95100300Y-87478300D01*
X104564300Y-87472500D02*
X104558500Y-87478300D01*
X104564300Y-87472500D02*
X104558500Y-87478300D01*
%TO.N,PE1*%
X151022000Y-65513000D02*
X149860000Y-66675000D01*
X151022000Y-63623900D02*
X151022000Y-65513000D01*
X150368000Y-62969900D02*
X151022000Y-63623900D01*
X146086500Y-62969900D02*
X150368000Y-62969900D01*
X143816700Y-65239700D02*
X146086500Y-62969900D01*
X120593100Y-65239700D02*
X143816700Y-65239700D01*
X119340900Y-66491900D02*
X120593100Y-65239700D01*
X112843000Y-66491900D02*
X119340900Y-66491900D01*
X111861600Y-65510500D02*
X112843000Y-66491900D01*
X92603300Y-65510500D02*
X111861600Y-65510500D01*
X92314000Y-65221200D02*
X92603300Y-65510500D01*
%TO.N,PA0*%
X142590900Y-56164100D02*
X147320000Y-51435000D01*
X98971400Y-56164100D02*
X142590900Y-56164100D01*
X95394000Y-52586700D02*
X98971400Y-56164100D01*
X85606700Y-52586700D02*
X95394000Y-52586700D01*
X84455000Y-51435000D02*
X85606700Y-52586700D01*
%TO.N,PC3*%
X146554500Y-87760500D02*
X147320000Y-86995000D01*
X144614300Y-87760500D02*
X146554500Y-87760500D01*
X144524500Y-87850300D02*
X144614300Y-87760500D01*
X144524500Y-87850300D02*
X144614300Y-87760500D01*
X144289100Y-88085700D02*
X144524500Y-87850300D01*
X136451000Y-88085700D02*
X144289100Y-88085700D01*
X136373100Y-88007800D02*
X136451000Y-88085700D01*
X135542200Y-88007800D02*
X136373100Y-88007800D01*
X135464300Y-88085700D02*
X135542200Y-88007800D01*
X126011800Y-88085700D02*
X135464300Y-88085700D01*
X125933400Y-88164100D02*
X126011800Y-88085700D01*
X125457200Y-88164100D02*
X125933400Y-88164100D01*
X125291800Y-88329500D02*
X125457200Y-88164100D01*
X125291800Y-88329500D02*
X125457200Y-88164100D01*
X85741700Y-88281700D02*
X84455000Y-86995000D01*
X104891100Y-88281700D02*
X85741700Y-88281700D01*
X105603100Y-87569700D02*
X104891100Y-88281700D01*
X106766600Y-87569700D02*
X105603100Y-87569700D01*
X107099000Y-87902100D02*
X106766600Y-87569700D01*
X117670000Y-87902100D02*
X107099000Y-87902100D01*
X118071700Y-88303800D02*
X117670000Y-87902100D01*
X121853100Y-88303800D02*
X118071700Y-88303800D01*
X122115100Y-88565800D02*
X121853100Y-88303800D01*
X125055500Y-88565800D02*
X122115100Y-88565800D01*
X125291800Y-88329500D02*
X125055500Y-88565800D01*
%TO.N,PD0*%
X146576100Y-41985500D02*
X147526800Y-42936200D01*
X117637600Y-41985500D02*
X146576100Y-41985500D01*
X116840000Y-42783100D02*
X117637600Y-41985500D01*
X116840000Y-43546700D02*
X116840000Y-42783100D01*
X115366200Y-45020500D02*
X116840000Y-43546700D01*
X96998200Y-45020500D02*
X115366200Y-45020500D01*
X96722300Y-45296400D02*
X96998200Y-45020500D01*
%TO.N,PA3*%
X142834000Y-86401000D02*
X147320000Y-81915000D01*
X134877000Y-86401000D02*
X142834000Y-86401000D01*
X134839800Y-86438200D02*
X134877000Y-86401000D01*
X127824900Y-86438200D02*
X134839800Y-86438200D01*
X127661400Y-86274700D02*
X127824900Y-86438200D01*
X125550800Y-86274700D02*
X127661400Y-86274700D01*
X125503600Y-86321900D02*
X125550800Y-86274700D01*
X125503600Y-86321900D02*
X125550800Y-86274700D01*
X104937900Y-85962900D02*
X104231700Y-86669100D01*
X107910900Y-85962900D02*
X104937900Y-85962900D01*
X108243300Y-86295300D02*
X107910900Y-85962900D01*
X118335200Y-86295300D02*
X108243300Y-86295300D01*
X118597200Y-86557300D02*
X118335200Y-86295300D01*
X125268200Y-86557300D02*
X118597200Y-86557300D01*
X125503600Y-86321900D02*
X125268200Y-86557300D01*
X85725000Y-83185000D02*
X84455000Y-81915000D01*
X88505500Y-83185000D02*
X85725000Y-83185000D01*
X89819700Y-84499200D02*
X88505500Y-83185000D01*
X94016000Y-84499200D02*
X89819700Y-84499200D01*
X96191700Y-86674900D02*
X94016000Y-84499200D01*
X104225900Y-86674900D02*
X96191700Y-86674900D01*
X104231700Y-86669100D02*
X104225900Y-86674900D01*
X104231700Y-86669100D02*
X104225900Y-86674900D01*
%TO.N,PB2*%
X146440100Y-75174900D02*
X147320000Y-74295000D01*
X145207800Y-75174900D02*
X146440100Y-75174900D01*
X145041500Y-75341200D02*
X145207800Y-75174900D01*
X145041500Y-75341200D02*
X145207800Y-75174900D01*
X85779100Y-75619100D02*
X84455000Y-74295000D01*
X106946500Y-75619100D02*
X85779100Y-75619100D01*
X107882300Y-76554900D02*
X106946500Y-75619100D01*
X113313600Y-76554900D02*
X107882300Y-76554900D01*
X113658000Y-76899300D02*
X113313600Y-76554900D01*
X115358600Y-76899300D02*
X113658000Y-76899300D01*
X115647400Y-77188100D02*
X115358600Y-76899300D01*
X127438900Y-77188100D02*
X115647400Y-77188100D01*
X129285800Y-75341200D02*
X127438900Y-77188100D01*
X145041500Y-75341200D02*
X129285800Y-75341200D01*
%TO.N,PE2*%
X146849300Y-95173700D02*
X147526800Y-94496200D01*
X90358300Y-95173700D02*
X146849300Y-95173700D01*
X89680800Y-94496200D02*
X90358300Y-95173700D01*
%TO.N,PE0*%
X117131400Y-57132200D02*
X117262900Y-57000700D01*
X117131400Y-57132200D02*
X117262900Y-57000700D01*
X87480700Y-57000700D02*
X86995000Y-56515000D01*
X116999900Y-57000700D02*
X87480700Y-57000700D01*
X117131400Y-57132200D02*
X116999900Y-57000700D01*
X122771500Y-57075800D02*
X122846600Y-57000700D01*
X122771500Y-57075800D02*
X122846600Y-57000700D01*
X122536100Y-57311200D02*
X122771500Y-57075800D01*
X117573400Y-57311200D02*
X122536100Y-57311200D01*
X117262900Y-57000700D02*
X117573400Y-57311200D01*
X148669400Y-55324400D02*
X149860000Y-56515000D01*
X146538600Y-55324400D02*
X148669400Y-55324400D01*
X144862300Y-57000700D02*
X146538600Y-55324400D01*
X122846600Y-57000700D02*
X144862300Y-57000700D01*
%TO.N,PE3*%
X148669400Y-85804400D02*
X149860000Y-86995000D01*
X146623400Y-85804400D02*
X148669400Y-85804400D01*
X145116400Y-87311400D02*
X146623400Y-85804400D01*
X144495400Y-87311400D02*
X145116400Y-87311400D01*
X144358200Y-87448600D02*
X144495400Y-87311400D01*
X144358200Y-87448600D02*
X144495400Y-87311400D01*
X144122800Y-87684000D02*
X144358200Y-87448600D01*
X136617300Y-87684000D02*
X144122800Y-87684000D01*
X136539400Y-87606100D02*
X136617300Y-87684000D01*
X135375900Y-87606100D02*
X136539400Y-87606100D01*
X135298000Y-87684000D02*
X135375900Y-87606100D01*
X125845500Y-87684000D02*
X135298000Y-87684000D01*
X125767100Y-87762400D02*
X125845500Y-87684000D01*
X125290900Y-87762400D02*
X125767100Y-87762400D01*
X125125500Y-87927800D02*
X125290900Y-87762400D01*
X125125500Y-87927800D02*
X125290900Y-87762400D01*
X87880000Y-87880000D02*
X86995000Y-86995000D01*
X104724800Y-87880000D02*
X87880000Y-87880000D01*
X105436800Y-87168000D02*
X104724800Y-87880000D01*
X106932900Y-87168000D02*
X105436800Y-87168000D01*
X106950500Y-87185600D02*
X106932900Y-87168000D01*
X107429600Y-87185600D02*
X106950500Y-87185600D01*
X107744400Y-87500400D02*
X107429600Y-87185600D01*
X117836300Y-87500400D02*
X107744400Y-87500400D01*
X118238000Y-87902100D02*
X117836300Y-87500400D01*
X122019400Y-87902100D02*
X118238000Y-87902100D01*
X122281400Y-88164100D02*
X122019400Y-87902100D01*
X124773800Y-88164100D02*
X122281400Y-88164100D01*
X124774700Y-88163200D02*
X124773800Y-88164100D01*
X124890100Y-88163200D02*
X124774700Y-88163200D01*
X125125500Y-87927800D02*
X124890100Y-88163200D01*
%TO.N,PB0*%
X122605200Y-56674100D02*
X122680300Y-56599000D01*
X122605200Y-56674100D02*
X122680300Y-56599000D01*
X122369800Y-56909500D02*
X122605200Y-56674100D01*
X118295500Y-56909500D02*
X122369800Y-56909500D01*
X117985000Y-56599000D02*
X118295500Y-56909500D01*
X89053100Y-56599000D02*
X117985000Y-56599000D01*
X87699100Y-55245000D02*
X89053100Y-56599000D01*
X85725000Y-55245000D02*
X87699100Y-55245000D01*
X84455000Y-53975000D02*
X85725000Y-55245000D01*
X145652400Y-53975000D02*
X147320000Y-53975000D01*
X143028400Y-56599000D02*
X145652400Y-53975000D01*
X122680300Y-56599000D02*
X143028400Y-56599000D01*
%TO.N,S3*%
X146600000Y-80095000D02*
X147320000Y-79375000D01*
X138438000Y-80095000D02*
X146600000Y-80095000D01*
X138110000Y-80423000D02*
X138438000Y-80095000D01*
X138110000Y-80645000D02*
X138110000Y-80423000D01*
X134957200Y-82594700D02*
X136020900Y-82594700D01*
X134942500Y-82580000D02*
X134957200Y-82594700D01*
X138110000Y-80979600D02*
X138110000Y-80645000D01*
X136494900Y-82594700D02*
X138110000Y-80979600D01*
X136020900Y-82594700D02*
X136494900Y-82594700D01*
X116525900Y-81280000D02*
X114622500Y-81280000D01*
X116601200Y-81355300D02*
X116525900Y-81280000D01*
X136020900Y-83464400D02*
X136020900Y-82594700D01*
X134878200Y-84607100D02*
X136020900Y-83464400D01*
X126747900Y-84607100D02*
X134878200Y-84607100D01*
X126364300Y-84990700D02*
X126747900Y-84607100D01*
X122797000Y-84990700D02*
X126364300Y-84990700D01*
X122413400Y-84607100D02*
X122797000Y-84990700D01*
X118584500Y-84607100D02*
X122413400Y-84607100D01*
X118172800Y-84195400D02*
X118584500Y-84607100D01*
X116637400Y-84195400D02*
X118172800Y-84195400D01*
X101400600Y-84195400D02*
X116637400Y-84195400D01*
X100975700Y-83770500D02*
X101400600Y-84195400D01*
X92719300Y-83770500D02*
X100975700Y-83770500D01*
X92535500Y-83586700D02*
X92719300Y-83770500D01*
X89475200Y-83586700D02*
X92535500Y-83586700D01*
X87803500Y-81915000D02*
X89475200Y-83586700D01*
X86995000Y-81915000D02*
X87803500Y-81915000D01*
%TO.N,Net-(DS3-K)*%
X138750000Y-80645000D02*
X140650000Y-80645000D01*
%TO.N,Net-(DS2-K)*%
X140650000Y-70485000D02*
X138750000Y-70485000D01*
%TO.N,S2*%
X138110000Y-70267000D02*
X138110000Y-70485000D01*
X138473200Y-69903800D02*
X138110000Y-70267000D01*
X146631200Y-69903800D02*
X138473200Y-69903800D01*
X147320000Y-69215000D02*
X146631200Y-69903800D01*
X134942500Y-72420000D02*
X136005400Y-72420000D01*
X136175000Y-72420000D02*
X138110000Y-70485000D01*
X136005400Y-72420000D02*
X136175000Y-72420000D01*
X112047300Y-71120000D02*
X114945000Y-71120000D01*
X111875800Y-70948500D02*
X112047300Y-71120000D01*
X111683300Y-74441400D02*
X111775300Y-74349400D01*
X89681400Y-74441400D02*
X111683300Y-74441400D01*
X86995000Y-71755000D02*
X89681400Y-74441400D01*
X134981700Y-74349400D02*
X111775300Y-74349400D01*
X136005400Y-73325700D02*
X134981700Y-74349400D01*
X136005400Y-72420000D02*
X136005400Y-73325700D01*
%TO.N,Net-(DS1-K)*%
X138750000Y-60325000D02*
X140650000Y-60325000D01*
%TO.N,S1*%
X146638400Y-59736600D02*
X147320000Y-59055000D01*
X140151700Y-59736600D02*
X146638400Y-59736600D01*
X140053700Y-59834600D02*
X140151700Y-59736600D01*
X139222800Y-59834600D02*
X140053700Y-59834600D01*
X139124800Y-59736600D02*
X139222800Y-59834600D01*
X138458900Y-59736600D02*
X139124800Y-59736600D01*
X138110000Y-60085500D02*
X138458900Y-59736600D01*
X138110000Y-60325000D02*
X138110000Y-60085500D01*
X138110000Y-60890900D02*
X138110000Y-60325000D01*
X136604800Y-62396100D02*
X138110000Y-60890900D01*
X136038900Y-62396100D02*
X136604800Y-62396100D01*
X135078600Y-62396100D02*
X136038900Y-62396100D01*
X134942500Y-62260000D02*
X135078600Y-62396100D01*
X135285800Y-63903700D02*
X111666400Y-63903700D01*
X136038900Y-63150600D02*
X135285800Y-63903700D01*
X136038900Y-62396100D02*
X136038900Y-63150600D01*
X111666400Y-63903700D02*
X111666400Y-63703700D01*
X109711500Y-64070000D02*
X109876300Y-63905200D01*
X109711500Y-64070000D02*
X109876300Y-63905200D01*
X111561600Y-64008500D02*
X111666400Y-63903700D01*
X109979600Y-64008500D02*
X111561600Y-64008500D01*
X109876300Y-63905200D02*
X109979600Y-64008500D01*
X113168100Y-60960000D02*
X114310000Y-60960000D01*
X111749800Y-59541700D02*
X113168100Y-60960000D01*
X89829500Y-61595000D02*
X86995000Y-61595000D01*
X92049000Y-63814500D02*
X89829500Y-61595000D01*
X98129600Y-63814500D02*
X92049000Y-63814500D01*
X98619000Y-64303900D02*
X98129600Y-63814500D01*
X109477600Y-64303900D02*
X98619000Y-64303900D01*
X109711500Y-64070000D02*
X109477600Y-64303900D01*
%TO.N,Net-(DS0-K)*%
X138750000Y-50165000D02*
X140650000Y-50165000D01*
%TO.N,S0*%
X147320000Y-48895000D02*
X146168300Y-48895000D01*
X138176700Y-50726100D02*
X138110000Y-50659400D01*
X144337200Y-50726100D02*
X138176700Y-50726100D01*
X146168300Y-48895000D02*
X144337200Y-50726100D01*
X136669400Y-52100000D02*
X138110000Y-50659400D01*
X134942500Y-52100000D02*
X136669400Y-52100000D01*
X138110000Y-50659400D02*
X138110000Y-50165000D01*
X115972500Y-51436300D02*
X115972500Y-51527900D01*
X115366200Y-50830000D02*
X115972500Y-51436300D01*
X114622500Y-50830000D02*
X115366200Y-50830000D01*
X116910400Y-53583000D02*
X116800100Y-53693300D01*
X119607700Y-53583000D02*
X116910400Y-53583000D01*
X120127600Y-54102900D02*
X119607700Y-53583000D01*
X130788800Y-54102900D02*
X120127600Y-54102900D01*
X131057100Y-53834600D02*
X130788800Y-54102900D01*
X135167700Y-53834600D02*
X131057100Y-53834600D01*
X135983300Y-53019000D02*
X135167700Y-53834600D01*
X135983300Y-52436200D02*
X135983300Y-53019000D01*
X135647100Y-52100000D02*
X135983300Y-52436200D01*
X134942500Y-52100000D02*
X135647100Y-52100000D01*
X97297200Y-45572400D02*
X116182500Y-45572400D01*
X96310600Y-46559000D02*
X97297200Y-45572400D01*
X95505100Y-46559000D02*
X96310600Y-46559000D01*
%TO.N,R3*%
X136205000Y-81280000D02*
X134942500Y-81280000D01*
X138110000Y-79375000D02*
X136205000Y-81280000D01*
X148590000Y-78105000D02*
X149860000Y-79375000D01*
X143688200Y-78105000D02*
X148590000Y-78105000D01*
X142899700Y-77316500D02*
X143688200Y-78105000D01*
X138612800Y-77316500D02*
X142899700Y-77316500D01*
X138110000Y-77819300D02*
X138612800Y-77316500D01*
X138110000Y-79375000D02*
X138110000Y-77819300D01*
%TO.N,/ALUSlice3/C*%
X128133000Y-80630000D02*
X129217500Y-80630000D01*
X127965500Y-80797500D02*
X128133000Y-80630000D01*
X118332900Y-85725000D02*
X117160000Y-85725000D01*
X118763500Y-86155600D02*
X118332900Y-85725000D01*
X125101900Y-86155600D02*
X118763500Y-86155600D01*
X125421000Y-85836500D02*
X125101900Y-86155600D01*
X128074000Y-85836500D02*
X125421000Y-85836500D01*
%TO.N,/ALUSlice2/C*%
X126485600Y-75565000D02*
X126527800Y-75522800D01*
X117160000Y-75565000D02*
X126485600Y-75565000D01*
X129088800Y-70598700D02*
X129217500Y-70470000D01*
X127641100Y-70598700D02*
X129088800Y-70598700D01*
%TO.N,/ALUSlice1/C*%
X117378700Y-65623700D02*
X117160000Y-65405000D01*
X118587400Y-65623700D02*
X117378700Y-65623700D01*
X119124300Y-65086800D02*
X118587400Y-65623700D01*
X119597200Y-45803700D02*
X121103100Y-45803700D01*
X119004900Y-45211400D02*
X119597200Y-45803700D01*
X127760200Y-60310000D02*
X129217500Y-60310000D01*
%TO.N,/ALUSlice0/C*%
X129947400Y-50150000D02*
X130482300Y-50684900D01*
X129217500Y-50150000D02*
X129947400Y-50150000D01*
X118262200Y-55245000D02*
X117160000Y-55245000D01*
X118708400Y-54798800D02*
X118262200Y-55245000D01*
X130943700Y-54798800D02*
X118708400Y-54798800D01*
X131306200Y-54436300D02*
X130943700Y-54798800D01*
%TO.N,Net-(DR3-K)*%
X140650000Y-79375000D02*
X138750000Y-79375000D01*
%TO.N,Net-(DR2-K)*%
X140621400Y-69243600D02*
X140650000Y-69215000D01*
X138778600Y-69243600D02*
X140621400Y-69243600D01*
X138750000Y-69215000D02*
X138778600Y-69243600D01*
%TO.N,Net-(DR1-K)*%
X140265200Y-59055000D02*
X140650000Y-59055000D01*
X140265200Y-59055100D02*
X140265200Y-59055000D01*
X139887400Y-59432900D02*
X140265200Y-59055100D01*
X139389100Y-59432900D02*
X139887400Y-59432900D01*
X139011200Y-59055000D02*
X139389100Y-59432900D01*
X138750000Y-59055000D02*
X139011200Y-59055000D01*
%TO.N,Net-(DR0-K)*%
X140650000Y-48895000D02*
X138750000Y-48895000D01*
%TO.N,Net-(DC3-K)*%
X116520000Y-85725000D02*
X114620000Y-85725000D01*
%TO.N,Net-(DC2-K)*%
X116520000Y-75565000D02*
X114620000Y-75565000D01*
%TO.N,Net-(DC1-K)*%
X116520000Y-65405000D02*
X114620000Y-65405000D01*
%TO.N,Net-(DC0-K)*%
X114620000Y-55245000D02*
X116520000Y-55245000D01*
%TO.N,Net-(DB0-K)*%
X94930000Y-50165000D02*
X93030000Y-50165000D01*
%TO.N,Net-(DA0-K)*%
X93030000Y-48895000D02*
X94930000Y-48895000D01*
%TO.N,Net-(DB3-K)*%
X94930000Y-80645000D02*
X93030000Y-80645000D01*
%TO.N,Net-(DB2-K)*%
X93030000Y-70485000D02*
X94930000Y-70485000D01*
%TO.N,Net-(DB1-K)*%
X94930000Y-60325000D02*
X93030000Y-60325000D01*
%TO.N,Net-(DA3-K)*%
X94930000Y-79375000D02*
X93030000Y-79375000D01*
%TO.N,Net-(DA2-K)*%
X94930000Y-69215000D02*
X93030000Y-69215000D01*
%TO.N,Net-(DA1-K)*%
X93030000Y-59055000D02*
X94930000Y-59055000D01*
%TO.N,Net-(U14-Pad13)*%
X132519600Y-59660000D02*
X134942500Y-59660000D01*
X129919600Y-62260000D02*
X132519600Y-59660000D01*
X129217500Y-62260000D02*
X129919600Y-62260000D01*
%TO.N,Net-(U14-Pad12)*%
X134236300Y-60310000D02*
X134942500Y-60310000D01*
X133874700Y-60671600D02*
X134236300Y-60310000D01*
X133874700Y-62586000D02*
X133874700Y-60671600D01*
X134198700Y-62910000D02*
X133874700Y-62586000D01*
X134942500Y-62910000D02*
X134198700Y-62910000D01*
%TO.N,Net-(U13-Pad11)*%
X125699300Y-60960000D02*
X124782500Y-60960000D01*
X126999300Y-59660000D02*
X125699300Y-60960000D01*
X129217500Y-59660000D02*
X126999300Y-59660000D01*
%TO.N,Net-(U13-Pad13)*%
X119080000Y-62237500D02*
X119057500Y-62260000D01*
X121247900Y-62237500D02*
X119080000Y-62237500D01*
X123825400Y-59660000D02*
X121247900Y-62237500D01*
X124782500Y-59660000D02*
X123825400Y-59660000D01*
%TO.N,Net-(U12-Pad13)*%
X116261300Y-62910000D02*
X116314200Y-62857100D01*
X114310000Y-62910000D02*
X116261300Y-62910000D01*
X115992000Y-59660000D02*
X114310000Y-59660000D01*
X116314200Y-59982200D02*
X115992000Y-59660000D01*
%TO.N,R2*%
X138110000Y-68983800D02*
X138110000Y-69215000D01*
X139053600Y-68040200D02*
X138110000Y-68983800D01*
X148685200Y-68040200D02*
X139053600Y-68040200D01*
X149860000Y-69215000D02*
X148685200Y-68040200D01*
X135598700Y-71120000D02*
X134942500Y-71120000D01*
X137503700Y-69215000D02*
X135598700Y-71120000D01*
X138110000Y-69215000D02*
X137503700Y-69215000D01*
%TO.N,Net-(U12-Pad12)*%
X110775500Y-62260000D02*
X110828000Y-62207500D01*
X108585000Y-62260000D02*
X110775500Y-62260000D01*
X113386500Y-60310000D02*
X114310000Y-60310000D01*
X111529400Y-58452900D02*
X113386500Y-60310000D01*
X110766000Y-58452900D02*
X111529400Y-58452900D01*
%TO.N,Net-(U11-Pad11)*%
X107911900Y-59660000D02*
X107539300Y-59287400D01*
X108585000Y-59660000D02*
X107911900Y-59660000D01*
X107539300Y-58699300D02*
X107539300Y-59287400D01*
X107738000Y-58500600D02*
X107539300Y-58699300D01*
X109810600Y-58500600D02*
X107738000Y-58500600D01*
X112920000Y-61610000D02*
X109810600Y-58500600D01*
X114310000Y-61610000D02*
X112920000Y-61610000D01*
X105864600Y-60960000D02*
X104462500Y-60960000D01*
X105949200Y-60875400D02*
X105864600Y-60960000D01*
X105949200Y-60843600D02*
X105949200Y-60875400D01*
X105949100Y-60843500D02*
X105949200Y-60843600D01*
X105949100Y-60345300D02*
X105949100Y-60843500D01*
X107007000Y-59287400D02*
X105949100Y-60345300D01*
X107539300Y-59287400D02*
X107007000Y-59287400D01*
%TO.N,Net-(U11-Pad13)*%
X101598600Y-62910000D02*
X104462500Y-62910000D01*
X101227800Y-62539200D02*
X101598600Y-62910000D01*
X102198000Y-59660000D02*
X101970800Y-59432800D01*
X104462500Y-59660000D02*
X102198000Y-59660000D01*
X117584000Y-62359800D02*
X117584000Y-62464600D01*
X118333800Y-61610000D02*
X117584000Y-62359800D01*
X119057500Y-61610000D02*
X118333800Y-61610000D01*
%TO.N,B3*%
X101754700Y-81930000D02*
X99804700Y-79980000D01*
X104462500Y-81930000D02*
X101754700Y-81930000D01*
X99804700Y-79980000D02*
X98737500Y-79980000D01*
X92462900Y-78471200D02*
X91573800Y-79360300D01*
X96032900Y-78471200D02*
X92462900Y-78471200D01*
X96077800Y-78516100D02*
X96032900Y-78471200D01*
X96077900Y-78516100D02*
X96077800Y-78516100D01*
X96106900Y-78487100D02*
X96077900Y-78516100D01*
X99211900Y-78487100D02*
X96106900Y-78487100D01*
X99804700Y-79079900D02*
X99211900Y-78487100D01*
X99804700Y-79980000D02*
X99804700Y-79079900D01*
X91559100Y-79375000D02*
X91573800Y-79360300D01*
X86995000Y-79375000D02*
X91559100Y-79375000D01*
X95570000Y-80405500D02*
X95570000Y-80645000D01*
X95221100Y-80056600D02*
X95570000Y-80405500D01*
X92270100Y-80056600D02*
X95221100Y-80056600D01*
X91573800Y-79360300D02*
X92270100Y-80056600D01*
%TO.N,A3*%
X98033500Y-79330000D02*
X98737500Y-79330000D01*
X97673000Y-79690500D02*
X98033500Y-79330000D01*
X98003600Y-81280000D02*
X98737500Y-81280000D01*
X97673000Y-80949400D02*
X98003600Y-81280000D01*
X85725000Y-80645000D02*
X84455000Y-79375000D01*
X89621400Y-80645000D02*
X85725000Y-80645000D01*
X90127000Y-81150600D02*
X89621400Y-80645000D01*
X97471800Y-81150600D02*
X90127000Y-81150600D01*
X97673000Y-80949400D02*
X97471800Y-81150600D01*
X95885500Y-79690500D02*
X97673000Y-79690500D01*
X95570000Y-79375000D02*
X95885500Y-79690500D01*
X97673000Y-79690500D02*
X97673000Y-80949400D01*
%TO.N,A2*%
X95570000Y-69215000D02*
X95615000Y-69170000D01*
X95615000Y-69170000D02*
X98737500Y-69170000D01*
X101174400Y-71120000D02*
X101329900Y-71275500D01*
X98737500Y-71120000D02*
X101174400Y-71120000D01*
X99036000Y-68871500D02*
X98737500Y-69170000D01*
X102721500Y-68871500D02*
X99036000Y-68871500D01*
X103123200Y-69273200D02*
X102721500Y-68871500D01*
X101329900Y-71369100D02*
X101302600Y-71396400D01*
X101329900Y-71275500D02*
X101329900Y-71369100D01*
X85637300Y-68032700D02*
X84455000Y-69215000D01*
X94567500Y-68032700D02*
X85637300Y-68032700D01*
X95615000Y-69080200D02*
X94567500Y-68032700D01*
X95615000Y-69170000D02*
X95615000Y-69080200D01*
%TO.N,B2*%
X87630000Y-69850000D02*
X95570000Y-69850000D01*
X86995000Y-69215000D02*
X87630000Y-69850000D01*
X98707500Y-69850000D02*
X98737500Y-69820000D01*
X95570000Y-69850000D02*
X98707500Y-69850000D01*
X95570000Y-69850000D02*
X95570000Y-70485000D01*
X102527300Y-71770000D02*
X104462500Y-71770000D01*
X100956500Y-70199200D02*
X102527300Y-71770000D01*
X100941100Y-70199200D02*
X100956500Y-70199200D01*
X100561900Y-69820000D02*
X100941100Y-70199200D01*
X98737500Y-69820000D02*
X100561900Y-69820000D01*
%TO.N,VDD*%
X125730000Y-89535000D02*
X125730000Y-91445000D01*
X124782500Y-48337500D02*
X124585500Y-48140500D01*
X124782500Y-48850000D02*
X124782500Y-48337500D01*
X133984200Y-78371700D02*
X134942500Y-79330000D01*
X126600900Y-78371700D02*
X133984200Y-78371700D01*
X126530900Y-78441700D02*
X126600900Y-78371700D01*
X126777600Y-88487400D02*
X125730000Y-89535000D01*
X135630600Y-88487400D02*
X126777600Y-88487400D01*
X135708500Y-88409500D02*
X135630600Y-88487400D01*
X136206800Y-88409500D02*
X135708500Y-88409500D01*
X136284700Y-88487400D02*
X136206800Y-88409500D01*
X144455400Y-88487400D02*
X136284700Y-88487400D01*
X144610900Y-88331900D02*
X144455400Y-88487400D01*
X148656900Y-88331900D02*
X144610900Y-88331900D01*
X149860000Y-89535000D02*
X148656900Y-88331900D01*
X134019300Y-47926800D02*
X134942500Y-48850000D01*
X124799200Y-47926800D02*
X134019300Y-47926800D01*
X124585500Y-48140500D02*
X124799200Y-47926800D01*
X124782500Y-58679300D02*
X124782500Y-59010000D01*
X133984300Y-58051800D02*
X134942500Y-59010000D01*
X133065300Y-58051800D02*
X133984300Y-58051800D01*
X104462500Y-79330000D02*
X104462500Y-78586100D01*
X104462500Y-69022600D02*
X104462500Y-69170000D01*
X105046200Y-68438900D02*
X104462500Y-69022600D01*
X125642600Y-79330000D02*
X124782500Y-79330000D01*
X126530900Y-78441700D02*
X125642600Y-79330000D01*
X134466400Y-68693900D02*
X132843700Y-68693900D01*
X134942500Y-69170000D02*
X134466400Y-68693900D01*
X114813300Y-58506700D02*
X114310000Y-59010000D01*
X124609900Y-58506700D02*
X114813300Y-58506700D01*
X124782500Y-58679300D02*
X124609900Y-58506700D01*
X105239000Y-68246100D02*
X105046200Y-68438900D01*
X111066800Y-68246100D02*
X105239000Y-68246100D01*
X111990700Y-69170000D02*
X111066800Y-68246100D01*
X114945000Y-69170000D02*
X111990700Y-69170000D01*
X132819100Y-57805600D02*
X133065300Y-58051800D01*
X126984800Y-57805600D02*
X132819100Y-57805600D01*
X126111100Y-58679300D02*
X126984800Y-57805600D01*
X124782500Y-58679300D02*
X126111100Y-58679300D01*
X105374100Y-58098400D02*
X106084700Y-58098400D01*
X104462500Y-59010000D02*
X105374100Y-58098400D01*
X113151200Y-57851200D02*
X114310000Y-59010000D01*
X106331900Y-57851200D02*
X113151200Y-57851200D01*
X106084700Y-58098400D02*
X106331900Y-57851200D01*
X106086300Y-48850000D02*
X106109500Y-48873200D01*
X104462500Y-48850000D02*
X106086300Y-48850000D01*
X125327400Y-68625100D02*
X124782500Y-69170000D01*
X132774900Y-68625100D02*
X125327400Y-68625100D01*
X132843700Y-68693900D02*
X132774900Y-68625100D01*
X104205900Y-89535000D02*
X86995000Y-89535000D01*
X105161100Y-88579800D02*
X104205900Y-89535000D01*
X117023100Y-88579800D02*
X105161100Y-88579800D01*
X117199200Y-88755900D02*
X117023100Y-88579800D01*
X121737200Y-88755900D02*
X117199200Y-88755900D01*
X122107500Y-89126200D02*
X121737200Y-88755900D01*
X125321200Y-89126200D02*
X122107500Y-89126200D01*
X125730000Y-89535000D02*
X125321200Y-89126200D01*
X113679600Y-47937100D02*
X114622500Y-48880000D01*
X107045600Y-47937100D02*
X113679600Y-47937100D01*
X106109500Y-48873200D02*
X107045600Y-47937100D01*
X124237100Y-78784600D02*
X124782500Y-79330000D01*
X117901100Y-78784600D02*
X124237100Y-78784600D01*
X117355700Y-79330000D02*
X117901100Y-78784600D01*
X117011400Y-79330000D02*
X117355700Y-79330000D01*
X116734700Y-79606700D02*
X117011400Y-79330000D01*
X116234800Y-79606700D02*
X116734700Y-79606700D01*
X115958100Y-79330000D02*
X116234800Y-79606700D01*
X114622500Y-79330000D02*
X115958100Y-79330000D01*
X113855700Y-79330000D02*
X114622500Y-79330000D01*
X113169000Y-78643300D02*
X113855700Y-79330000D01*
X111594900Y-78643300D02*
X113169000Y-78643300D01*
X111191600Y-78240000D02*
X111594900Y-78643300D01*
X104808600Y-78240000D02*
X111191600Y-78240000D01*
X104462500Y-78586100D02*
X104808600Y-78240000D01*
X104182000Y-78305600D02*
X104143500Y-78305600D01*
X104462500Y-78586100D02*
X104182000Y-78305600D01*
%TO.N,A1*%
X95615000Y-59010000D02*
X95570000Y-59055000D01*
X98737500Y-59010000D02*
X95615000Y-59010000D01*
X95570000Y-58896300D02*
X95570000Y-59055000D01*
X95174800Y-58501100D02*
X95570000Y-58896300D01*
X91418800Y-58501100D02*
X95174800Y-58501100D01*
X89911300Y-60008600D02*
X91418800Y-58501100D01*
X99393700Y-59010000D02*
X98737500Y-59010000D01*
X99826800Y-59443100D02*
X99393700Y-59010000D01*
X99826800Y-60552000D02*
X99826800Y-59443100D01*
X99418800Y-60960000D02*
X99826800Y-60552000D01*
X98737500Y-60960000D02*
X99418800Y-60960000D01*
%TO.N,R1*%
X136205000Y-60960000D02*
X134942500Y-60960000D01*
X138110000Y-59055000D02*
X136205000Y-60960000D01*
X138110000Y-58814500D02*
X138110000Y-59055000D01*
X139075200Y-57849300D02*
X138110000Y-58814500D01*
X148654300Y-57849300D02*
X139075200Y-57849300D01*
X149860000Y-59055000D02*
X148654300Y-57849300D01*
%TO.N,A0*%
X84455000Y-48895000D02*
X85606700Y-48895000D01*
X98692500Y-48895000D02*
X98737500Y-48850000D01*
X95570000Y-48895000D02*
X98692500Y-48895000D01*
X90247500Y-51084000D02*
X95465400Y-51084000D01*
X89210200Y-50046700D02*
X90247500Y-51084000D01*
X86470400Y-50046700D02*
X89210200Y-50046700D01*
X85606700Y-49183000D02*
X86470400Y-50046700D01*
X85606700Y-48895000D02*
X85606700Y-49183000D01*
X95570000Y-49103800D02*
X95570000Y-48895000D01*
X95143800Y-49530000D02*
X95570000Y-49103800D01*
X93695000Y-49530000D02*
X95143800Y-49530000D01*
X95465400Y-51084000D02*
X95465400Y-51876700D01*
X95749400Y-50800000D02*
X98737500Y-50800000D01*
X95465400Y-51084000D02*
X95749400Y-50800000D01*
%TO.N,R0*%
X136205000Y-50800000D02*
X138110000Y-48895000D01*
X134942500Y-50800000D02*
X136205000Y-50800000D01*
X148708300Y-47743300D02*
X149860000Y-48895000D01*
X139838000Y-47743300D02*
X148708300Y-47743300D01*
X139539200Y-48042100D02*
X139838000Y-47743300D01*
X138725800Y-48042100D02*
X139539200Y-48042100D01*
X138110000Y-48657900D02*
X138725800Y-48042100D01*
X138110000Y-48895000D02*
X138110000Y-48657900D01*
%TO.N,GND*%
X108897500Y-52780000D02*
X108897500Y-53257800D01*
X130674000Y-62910000D02*
X129217500Y-62910000D01*
X130893300Y-62690700D02*
X130674000Y-62910000D01*
X142870000Y-93985000D02*
X147320000Y-89535000D01*
X125730000Y-93985000D02*
X142870000Y-93985000D01*
X128712500Y-53255000D02*
X127280700Y-53255000D01*
X129217500Y-52750000D02*
X128712500Y-53255000D01*
X108495800Y-53659500D02*
X108897500Y-53257800D01*
X99647000Y-53659500D02*
X108495800Y-53659500D01*
X98737500Y-52750000D02*
X99647000Y-53659500D01*
X93393300Y-83230000D02*
X98737500Y-83230000D01*
X92529500Y-82366200D02*
X93393300Y-83230000D01*
X89680800Y-82366200D02*
X92529500Y-82366200D01*
X101638600Y-83230000D02*
X98737500Y-83230000D01*
X102179100Y-83770500D02*
X101638600Y-83230000D01*
X108357000Y-83770500D02*
X102179100Y-83770500D01*
X108897500Y-83230000D02*
X108357000Y-83770500D01*
X108069300Y-63425700D02*
X108585000Y-62910000D01*
X99253200Y-63425700D02*
X108069300Y-63425700D01*
X98737500Y-62910000D02*
X99253200Y-63425700D01*
X128075900Y-83230000D02*
X129217500Y-83230000D01*
X127698500Y-83607400D02*
X128075900Y-83230000D01*
X119588400Y-63440900D02*
X119057500Y-62910000D01*
X128686600Y-63440900D02*
X119588400Y-63440900D01*
X129217500Y-62910000D02*
X128686600Y-63440900D01*
X121968000Y-83593700D02*
X119057500Y-83593700D01*
X122923100Y-84548800D02*
X121968000Y-83593700D01*
X123571600Y-84548800D02*
X122923100Y-84548800D01*
X123572400Y-84549600D02*
X123571600Y-84548800D01*
X126237300Y-84549600D02*
X123572400Y-84549600D01*
X127179500Y-83607400D02*
X126237300Y-84549600D01*
X127698500Y-83607400D02*
X127179500Y-83607400D01*
X126772600Y-73878600D02*
X127385300Y-73265900D01*
X119866100Y-73878600D02*
X126772600Y-73878600D01*
X119057500Y-73070000D02*
X119866100Y-73878600D01*
X127581200Y-73070000D02*
X129217500Y-73070000D01*
X127385300Y-73265900D02*
X127581200Y-73070000D01*
X109347500Y-53707800D02*
X108897500Y-53257800D01*
X115934800Y-53707800D02*
X109347500Y-53707800D01*
X116892600Y-52750000D02*
X115934800Y-53707800D01*
X119057500Y-52750000D02*
X116892600Y-52750000D01*
X119578200Y-52750000D02*
X119057500Y-52750000D01*
X120484400Y-53656200D02*
X119578200Y-52750000D01*
X126879500Y-53656200D02*
X120484400Y-53656200D01*
X127280700Y-53255000D02*
X126879500Y-53656200D01*
X118508700Y-63458800D02*
X119057500Y-62910000D01*
X112274000Y-63458800D02*
X118508700Y-63458800D01*
X111624400Y-62809200D02*
X112274000Y-63458800D01*
X110578900Y-62809200D02*
X111624400Y-62809200D01*
X110574800Y-62805100D02*
X110578900Y-62809200D01*
X108689900Y-62805100D02*
X110574800Y-62805100D01*
X108585000Y-62910000D02*
X108689900Y-62805100D01*
X109443400Y-83775900D02*
X108897500Y-83230000D01*
X116206100Y-83775900D02*
X109443400Y-83775900D01*
X116388300Y-83593700D02*
X116206100Y-83775900D01*
X119057500Y-83593700D02*
X116388300Y-83593700D01*
X119057500Y-83230000D02*
X119057500Y-83593700D01*
X109743700Y-73593700D02*
X109220000Y-73070000D01*
X118533800Y-73593700D02*
X109743700Y-73593700D01*
X119057500Y-73070000D02*
X118533800Y-73593700D01*
X108421000Y-73869000D02*
X109220000Y-73070000D01*
X100852500Y-73869000D02*
X108421000Y-73869000D01*
X100053500Y-73070000D02*
X100852500Y-73869000D01*
X98737500Y-73070000D02*
X100053500Y-73070000D01*
%TO.N,B1*%
X96235000Y-59660000D02*
X98737500Y-59660000D01*
X95570000Y-60325000D02*
X96235000Y-59660000D01*
X88619500Y-59055000D02*
X89309600Y-59745100D01*
X86995000Y-59055000D02*
X88619500Y-59055000D01*
X90955300Y-58099400D02*
X89309600Y-59745100D01*
X99218200Y-58099400D02*
X90955300Y-58099400D01*
X102728800Y-61610000D02*
X99218200Y-58099400D01*
X104462500Y-61610000D02*
X102728800Y-61610000D01*
X95570000Y-60585700D02*
X95570000Y-60325000D01*
X95131400Y-61024300D02*
X95570000Y-60585700D01*
X90629800Y-61024300D02*
X95131400Y-61024300D01*
X90215800Y-60610300D02*
X90629800Y-61024300D01*
X89662200Y-60610300D02*
X90215800Y-60610300D01*
X89309600Y-60257700D02*
X89662200Y-60610300D01*
X89309600Y-59745100D02*
X89309600Y-60257700D01*
%TO.N,B0*%
X99917200Y-49500000D02*
X98737500Y-49500000D01*
X101867200Y-51450000D02*
X99917200Y-49500000D01*
X104462500Y-51450000D02*
X101867200Y-51450000D01*
X95570000Y-50323700D02*
X95570000Y-50165000D01*
X95212800Y-50680900D02*
X95570000Y-50323700D01*
X90446100Y-50680900D02*
X95212800Y-50680900D01*
X88660200Y-48895000D02*
X90446100Y-50680900D01*
X86995000Y-48895000D02*
X88660200Y-48895000D01*
X96235000Y-49500000D02*
X98737500Y-49500000D01*
X95570000Y-50165000D02*
X96235000Y-49500000D01*
%TD*%
M02*
