%TF.GenerationSoftware,KiCad,Pcbnew,9.0.2*%
%TF.CreationDate,2025-05-17T19:37:23+02:00*%
%TF.ProjectId,ALU,414c552e-6b69-4636-9164-5f7063625858,rev?*%
%TF.SameCoordinates,Original*%
%TF.FileFunction,Drillmap*%
%TF.FilePolarity,Positive*%
%FSLAX45Y45*%
G04 Gerber Fmt 4.5, Leading zero omitted, Abs format (unit mm)*
G04 Created by KiCad (PCBNEW 9.0.2) date 2025-05-17 19:37:23*
%MOMM*%
%LPD*%
G01*
G04 APERTURE LIST*
%ADD10C,0.050000*%
%ADD11C,0.200000*%
G04 APERTURE END LIST*
D10*
X8255000Y-3873500D02*
X15176500Y-3873500D01*
X15176500Y-9588500D01*
X8255000Y-9588500D01*
X8255000Y-3873500D01*
D11*
X8513277Y-9902484D02*
X8513277Y-9702484D01*
X8513277Y-9702484D02*
X8560896Y-9702484D01*
X8560896Y-9702484D02*
X8589467Y-9712008D01*
X8589467Y-9712008D02*
X8608515Y-9731055D01*
X8608515Y-9731055D02*
X8618039Y-9750103D01*
X8618039Y-9750103D02*
X8627563Y-9788198D01*
X8627563Y-9788198D02*
X8627563Y-9816770D01*
X8627563Y-9816770D02*
X8618039Y-9854865D01*
X8618039Y-9854865D02*
X8608515Y-9873912D01*
X8608515Y-9873912D02*
X8589467Y-9892960D01*
X8589467Y-9892960D02*
X8560896Y-9902484D01*
X8560896Y-9902484D02*
X8513277Y-9902484D01*
X8713277Y-9902484D02*
X8713277Y-9769150D01*
X8713277Y-9807246D02*
X8722801Y-9788198D01*
X8722801Y-9788198D02*
X8732324Y-9778674D01*
X8732324Y-9778674D02*
X8751372Y-9769150D01*
X8751372Y-9769150D02*
X8770420Y-9769150D01*
X8837086Y-9902484D02*
X8837086Y-9769150D01*
X8837086Y-9702484D02*
X8827563Y-9712008D01*
X8827563Y-9712008D02*
X8837086Y-9721531D01*
X8837086Y-9721531D02*
X8846610Y-9712008D01*
X8846610Y-9712008D02*
X8837086Y-9702484D01*
X8837086Y-9702484D02*
X8837086Y-9721531D01*
X8960896Y-9902484D02*
X8941848Y-9892960D01*
X8941848Y-9892960D02*
X8932324Y-9873912D01*
X8932324Y-9873912D02*
X8932324Y-9702484D01*
X9065658Y-9902484D02*
X9046610Y-9892960D01*
X9046610Y-9892960D02*
X9037086Y-9873912D01*
X9037086Y-9873912D02*
X9037086Y-9702484D01*
X9294229Y-9902484D02*
X9294229Y-9702484D01*
X9294229Y-9702484D02*
X9360896Y-9845341D01*
X9360896Y-9845341D02*
X9427563Y-9702484D01*
X9427563Y-9702484D02*
X9427563Y-9902484D01*
X9608515Y-9902484D02*
X9608515Y-9797722D01*
X9608515Y-9797722D02*
X9598991Y-9778674D01*
X9598991Y-9778674D02*
X9579944Y-9769150D01*
X9579944Y-9769150D02*
X9541848Y-9769150D01*
X9541848Y-9769150D02*
X9522801Y-9778674D01*
X9608515Y-9892960D02*
X9589467Y-9902484D01*
X9589467Y-9902484D02*
X9541848Y-9902484D01*
X9541848Y-9902484D02*
X9522801Y-9892960D01*
X9522801Y-9892960D02*
X9513277Y-9873912D01*
X9513277Y-9873912D02*
X9513277Y-9854865D01*
X9513277Y-9854865D02*
X9522801Y-9835817D01*
X9522801Y-9835817D02*
X9541848Y-9826293D01*
X9541848Y-9826293D02*
X9589467Y-9826293D01*
X9589467Y-9826293D02*
X9608515Y-9816770D01*
X9703753Y-9769150D02*
X9703753Y-9969150D01*
X9703753Y-9778674D02*
X9722801Y-9769150D01*
X9722801Y-9769150D02*
X9760896Y-9769150D01*
X9760896Y-9769150D02*
X9779944Y-9778674D01*
X9779944Y-9778674D02*
X9789467Y-9788198D01*
X9789467Y-9788198D02*
X9798991Y-9807246D01*
X9798991Y-9807246D02*
X9798991Y-9864389D01*
X9798991Y-9864389D02*
X9789467Y-9883436D01*
X9789467Y-9883436D02*
X9779944Y-9892960D01*
X9779944Y-9892960D02*
X9760896Y-9902484D01*
X9760896Y-9902484D02*
X9722801Y-9902484D01*
X9722801Y-9902484D02*
X9703753Y-9892960D01*
X9884705Y-9883436D02*
X9894229Y-9892960D01*
X9894229Y-9892960D02*
X9884705Y-9902484D01*
X9884705Y-9902484D02*
X9875182Y-9892960D01*
X9875182Y-9892960D02*
X9884705Y-9883436D01*
X9884705Y-9883436D02*
X9884705Y-9902484D01*
X9884705Y-9778674D02*
X9894229Y-9788198D01*
X9894229Y-9788198D02*
X9884705Y-9797722D01*
X9884705Y-9797722D02*
X9875182Y-9788198D01*
X9875182Y-9788198D02*
X9884705Y-9778674D01*
X9884705Y-9778674D02*
X9884705Y-9797722D01*
M02*
