%TF.GenerationSoftware,KiCad,Pcbnew,9.0.2*%
%TF.CreationDate,2025-05-17T19:35:46+02:00*%
%TF.ProjectId,ALU,414c552e-6b69-4636-9164-5f7063625858,rev?*%
%TF.SameCoordinates,Original*%
%TF.FileFunction,Copper,L2,Bot*%
%TF.FilePolarity,Positive*%
%FSLAX46Y46*%
G04 Gerber Fmt 4.6, Leading zero omitted, Abs format (unit mm)*
G04 Created by KiCad (PCBNEW 9.0.2) date 2025-05-17 19:35:46*
%MOMM*%
%LPD*%
G01*
G04 APERTURE LIST*
%TA.AperFunction,ComponentPad*%
%ADD10R,1.700000X1.700000*%
%TD*%
%TA.AperFunction,ComponentPad*%
%ADD11C,1.700000*%
%TD*%
%TA.AperFunction,ViaPad*%
%ADD12C,0.600000*%
%TD*%
%TA.AperFunction,Conductor*%
%ADD13C,0.200000*%
%TD*%
G04 APERTURE END LIST*
D10*
%TO.P,JW01,1,Pin_1*%
%TO.N,A0*%
X84455000Y-48895000D03*
D11*
%TO.P,JW01,2,Pin_2*%
%TO.N,B0*%
X86995000Y-48895000D03*
%TO.P,JW01,3,Pin_3*%
%TO.N,PA0*%
X84455000Y-51435000D03*
%TO.P,JW01,4,Pin_4*%
%TO.N,S0*%
X86995000Y-51435000D03*
%TO.P,JW01,5,Pin_5*%
%TO.N,PB0*%
X84455000Y-53975000D03*
%TO.P,JW01,6,Pin_6*%
%TO.N,PD0*%
X86995000Y-53975000D03*
%TO.P,JW01,7,Pin_7*%
%TO.N,PC0*%
X84455000Y-56515000D03*
%TO.P,JW01,8,Pin_8*%
%TO.N,PE0*%
X86995000Y-56515000D03*
%TO.P,JW01,9,Pin_9*%
%TO.N,A1*%
X84455000Y-59055000D03*
%TO.P,JW01,10,Pin_10*%
%TO.N,B1*%
X86995000Y-59055000D03*
%TO.P,JW01,11,Pin_11*%
%TO.N,PA1*%
X84455000Y-61595000D03*
%TO.P,JW01,12,Pin_12*%
%TO.N,S1*%
X86995000Y-61595000D03*
%TO.P,JW01,13,Pin_13*%
%TO.N,PB1*%
X84455000Y-64135000D03*
%TO.P,JW01,14,Pin_14*%
%TO.N,PD1*%
X86995000Y-64135000D03*
%TO.P,JW01,15,Pin_15*%
%TO.N,PC1*%
X84455000Y-66675000D03*
%TO.P,JW01,16,Pin_16*%
%TO.N,PE1*%
X86995000Y-66675000D03*
%TO.P,JW01,17,Pin_17*%
%TO.N,A2*%
X84455000Y-69215000D03*
%TO.P,JW01,18,Pin_18*%
%TO.N,B2*%
X86995000Y-69215000D03*
%TO.P,JW01,19,Pin_19*%
%TO.N,PA2*%
X84455000Y-71755000D03*
%TO.P,JW01,20,Pin_20*%
%TO.N,S2*%
X86995000Y-71755000D03*
%TO.P,JW01,21,Pin_21*%
%TO.N,PB2*%
X84455000Y-74295000D03*
%TO.P,JW01,22,Pin_22*%
%TO.N,PD2*%
X86995000Y-74295000D03*
%TO.P,JW01,23,Pin_23*%
%TO.N,PC2*%
X84455000Y-76835000D03*
%TO.P,JW01,24,Pin_24*%
%TO.N,PE2*%
X86995000Y-76835000D03*
%TO.P,JW01,25,Pin_25*%
%TO.N,A3*%
X84455000Y-79375000D03*
%TO.P,JW01,26,Pin_26*%
%TO.N,B3*%
X86995000Y-79375000D03*
%TO.P,JW01,27,Pin_27*%
%TO.N,PA3*%
X84455000Y-81915000D03*
%TO.P,JW01,28,Pin_28*%
%TO.N,S3*%
X86995000Y-81915000D03*
%TO.P,JW01,29,Pin_29*%
%TO.N,PB3*%
X84455000Y-84455000D03*
%TO.P,JW01,30,Pin_30*%
%TO.N,PD3*%
X86995000Y-84455000D03*
%TO.P,JW01,31,Pin_31*%
%TO.N,PC3*%
X84455000Y-86995000D03*
%TO.P,JW01,32,Pin_32*%
%TO.N,PE3*%
X86995000Y-86995000D03*
%TO.P,JW01,33,Pin_33*%
%TO.N,GND*%
X84455000Y-89535000D03*
%TO.P,JW01,34,Pin_34*%
%TO.N,VDD*%
X86995000Y-89535000D03*
%TD*%
D10*
%TO.P,JE01,1,Pin_1*%
%TO.N,S0*%
X147320000Y-48895000D03*
D11*
%TO.P,JE01,2,Pin_2*%
%TO.N,R0*%
X149860000Y-48895000D03*
%TO.P,JE01,3,Pin_3*%
%TO.N,PA0*%
X147320000Y-51435000D03*
%TO.P,JE01,4,Pin_4*%
%TO.N,unconnected-(JE01-Pin_4-Pad4)*%
X149860000Y-51435000D03*
%TO.P,JE01,5,Pin_5*%
%TO.N,PB0*%
X147320000Y-53975000D03*
%TO.P,JE01,6,Pin_6*%
%TO.N,PD0*%
X149860000Y-53975000D03*
%TO.P,JE01,7,Pin_7*%
%TO.N,PC0*%
X147320000Y-56515000D03*
%TO.P,JE01,8,Pin_8*%
%TO.N,PE0*%
X149860000Y-56515000D03*
%TO.P,JE01,9,Pin_9*%
%TO.N,S1*%
X147320000Y-59055000D03*
%TO.P,JE01,10,Pin_10*%
%TO.N,R1*%
X149860000Y-59055000D03*
%TO.P,JE01,11,Pin_11*%
%TO.N,PA1*%
X147320000Y-61595000D03*
%TO.P,JE01,12,Pin_12*%
%TO.N,unconnected-(JE01-Pin_12-Pad12)*%
X149860000Y-61595000D03*
%TO.P,JE01,13,Pin_13*%
%TO.N,PB1*%
X147320000Y-64135000D03*
%TO.P,JE01,14,Pin_14*%
%TO.N,PD1*%
X149860000Y-64135000D03*
%TO.P,JE01,15,Pin_15*%
%TO.N,PC1*%
X147320000Y-66675000D03*
%TO.P,JE01,16,Pin_16*%
%TO.N,PE1*%
X149860000Y-66675000D03*
%TO.P,JE01,17,Pin_17*%
%TO.N,S2*%
X147320000Y-69215000D03*
%TO.P,JE01,18,Pin_18*%
%TO.N,R2*%
X149860000Y-69215000D03*
%TO.P,JE01,19,Pin_19*%
%TO.N,PA2*%
X147320000Y-71755000D03*
%TO.P,JE01,20,Pin_20*%
%TO.N,unconnected-(JE01-Pin_20-Pad20)*%
X149860000Y-71755000D03*
%TO.P,JE01,21,Pin_21*%
%TO.N,PB2*%
X147320000Y-74295000D03*
%TO.P,JE01,22,Pin_22*%
%TO.N,PD2*%
X149860000Y-74295000D03*
%TO.P,JE01,23,Pin_23*%
%TO.N,PC2*%
X147320000Y-76835000D03*
%TO.P,JE01,24,Pin_24*%
%TO.N,PE2*%
X149860000Y-76835000D03*
%TO.P,JE01,25,Pin_25*%
%TO.N,S3*%
X147320000Y-79375000D03*
%TO.P,JE01,26,Pin_26*%
%TO.N,R3*%
X149860000Y-79375000D03*
%TO.P,JE01,27,Pin_27*%
%TO.N,PA3*%
X147320000Y-81915000D03*
%TO.P,JE01,28,Pin_28*%
%TO.N,unconnected-(JE01-Pin_28-Pad28)*%
X149860000Y-81915000D03*
%TO.P,JE01,29,Pin_29*%
%TO.N,PB3*%
X147320000Y-84455000D03*
%TO.P,JE01,30,Pin_30*%
%TO.N,PD3*%
X149860000Y-84455000D03*
%TO.P,JE01,31,Pin_31*%
%TO.N,PC3*%
X147320000Y-86995000D03*
%TO.P,JE01,32,Pin_32*%
%TO.N,PE3*%
X149860000Y-86995000D03*
%TO.P,JE01,33,Pin_33*%
%TO.N,GND*%
X147320000Y-89535000D03*
%TO.P,JE01,34,Pin_34*%
%TO.N,VDD*%
X149860000Y-89535000D03*
%TD*%
D10*
%TO.P,JS1,1,Pin_1*%
%TO.N,C*%
X107950000Y-93985000D03*
D11*
%TO.P,JS1,2,Pin_2*%
%TO.N,ADD*%
X107950000Y-91445000D03*
%TO.P,JS1,3,Pin_3*%
%TO.N,unconnected-(JS1-Pin_3-Pad3)*%
X110490000Y-93985000D03*
%TO.P,JS1,4,Pin_4*%
%TO.N,SUB*%
X110490000Y-91445000D03*
%TO.P,JS1,5,Pin_5*%
%TO.N,GNDA*%
X113030000Y-93985000D03*
%TO.P,JS1,6,Pin_6*%
%TO.N,XOR*%
X113030000Y-91445000D03*
%TO.P,JS1,7,Pin_7*%
%TO.N,GNDB*%
X115570000Y-93985000D03*
%TO.P,JS1,8,Pin_8*%
%TO.N,AND*%
X115570000Y-91445000D03*
%TO.P,JS1,9,Pin_9*%
%TO.N,GNDC*%
X118110000Y-93985000D03*
%TO.P,JS1,10,Pin_10*%
%TO.N,unconnected-(JS1-Pin_10-Pad10)*%
X118110000Y-91445000D03*
%TO.P,JS1,11,Pin_11*%
%TO.N,GNDS*%
X120650000Y-93985000D03*
%TO.P,JS1,12,Pin_12*%
%TO.N,unconnected-(JS1-Pin_12-Pad12)*%
X120650000Y-91445000D03*
%TO.P,JS1,13,Pin_13*%
%TO.N,GNDR*%
X123190000Y-93985000D03*
%TO.P,JS1,14,Pin_14*%
%TO.N,unconnected-(JS1-Pin_14-Pad14)*%
X123190000Y-91445000D03*
%TO.P,JS1,15,Pin_15*%
%TO.N,GND*%
X125730000Y-93985000D03*
%TO.P,JS1,16,Pin_16*%
%TO.N,VDD*%
X125730000Y-91445000D03*
%TD*%
D10*
%TO.P,JN1,1,Pin_1*%
%TO.N,Cin*%
X107950000Y-43185000D03*
D11*
%TO.P,JN1,2,Pin_2*%
%TO.N,ADD*%
X107950000Y-40645000D03*
%TO.P,JN1,3,Pin_3*%
%TO.N,unconnected-(JN1-Pin_3-Pad3)*%
X110490000Y-43185000D03*
%TO.P,JN1,4,Pin_4*%
%TO.N,SUB*%
X110490000Y-40645000D03*
%TO.P,JN1,5,Pin_5*%
%TO.N,GNDA*%
X113030000Y-43185000D03*
%TO.P,JN1,6,Pin_6*%
%TO.N,XOR*%
X113030000Y-40645000D03*
%TO.P,JN1,7,Pin_7*%
%TO.N,GNDB*%
X115570000Y-43185000D03*
%TO.P,JN1,8,Pin_8*%
%TO.N,AND*%
X115570000Y-40645000D03*
%TO.P,JN1,9,Pin_9*%
%TO.N,GNDC*%
X118110000Y-43185000D03*
%TO.P,JN1,10,Pin_10*%
%TO.N,unconnected-(JN1-Pin_10-Pad10)*%
X118110000Y-40645000D03*
%TO.P,JN1,11,Pin_11*%
%TO.N,GNDS*%
X120650000Y-43185000D03*
%TO.P,JN1,12,Pin_12*%
%TO.N,unconnected-(JN1-Pin_12-Pad12)*%
X120650000Y-40645000D03*
%TO.P,JN1,13,Pin_13*%
%TO.N,GNDR*%
X123190000Y-43185000D03*
%TO.P,JN1,14,Pin_14*%
%TO.N,unconnected-(JN1-Pin_14-Pad14)*%
X123190000Y-40645000D03*
%TO.P,JN1,15,Pin_15*%
%TO.N,GND*%
X125730000Y-43185000D03*
%TO.P,JN1,16,Pin_16*%
%TO.N,VDD*%
X125730000Y-40645000D03*
%TD*%
D12*
%TO.N,Net-(U33-Pad10)*%
X123409800Y-83172700D03*
X122084100Y-79788100D03*
X123508200Y-81344000D03*
%TO.N,Net-(U32-Pad13)*%
X111863900Y-83150300D03*
X111702000Y-79341300D03*
%TO.N,Net-(U32-Pad12)*%
X112204100Y-81159500D03*
X110504200Y-82852900D03*
%TO.N,Net-(U31-Pad3)*%
X116345800Y-80305000D03*
X116483900Y-79005000D03*
X111773700Y-77971300D03*
X107530600Y-82850200D03*
%TO.N,Net-(U31-Pad13)*%
X103210400Y-83135900D03*
X103210400Y-80000800D03*
X117622800Y-78212000D03*
X117659000Y-82588600D03*
%TO.N,Net-(U31-Pad12)*%
X100250900Y-82335300D03*
X101775700Y-79992800D03*
%TO.N,Net-(U23-Pad8)*%
X126282500Y-72239500D03*
X127116800Y-69226800D03*
%TO.N,Net-(U23-Pad13)*%
X122027100Y-73276900D03*
X121456300Y-69171500D03*
%TO.N,Net-(U22-Pad13)*%
X116368000Y-72992000D03*
X116420300Y-69329600D03*
%TO.N,Net-(U21-Pad11)*%
X111524200Y-71838100D03*
X110620200Y-66139800D03*
X101225400Y-66112300D03*
X101118700Y-69526000D03*
%TO.N,Net-(U21-Pad13)*%
X117639700Y-71770000D03*
X108793300Y-90164800D03*
X116146200Y-89250000D03*
X107866600Y-73267300D03*
%TO.N,Net-(U21-Pad3)*%
X103650300Y-68069000D03*
X103210400Y-72440800D03*
%TO.N,Net-(U21-Pad12)*%
X99944900Y-73812300D03*
X102599300Y-70423000D03*
%TO.N,Net-(U13-Pad8)*%
X126507600Y-62516700D03*
X126298500Y-59404300D03*
%TO.N,Net-(U13-Pad10)*%
X122893700Y-61867500D03*
X123168600Y-59293400D03*
%TO.N,Net-(U11-Pad12)*%
X101252800Y-58090300D03*
X100365800Y-62174600D03*
%TO.N,Net-(U11-Pad3)*%
X121788000Y-55504400D03*
X106550800Y-60594400D03*
X106540000Y-54799700D03*
X121056200Y-59325800D03*
%TO.N,Net-(U03-Pad10)*%
X121271100Y-50395900D03*
X121871000Y-52222600D03*
%TO.N,Net-(U01-Pad11)*%
X110979100Y-46181100D03*
X110910100Y-50867700D03*
%TO.N,Net-(U01-Pad13)*%
X101755500Y-52627100D03*
X102903300Y-49459000D03*
%TO.N,Net-(U01-Pad3)*%
X103210400Y-52100000D03*
X104857000Y-48143500D03*
%TO.N,SUB*%
X123495000Y-60910600D03*
X126037200Y-69765200D03*
X123373500Y-50847400D03*
X122497700Y-76389400D03*
X112000500Y-75552900D03*
X121925400Y-81554800D03*
X120589900Y-76500300D03*
%TO.N,XOR*%
X136921600Y-70792400D03*
X136335800Y-61794400D03*
X136605700Y-51312800D03*
X136245700Y-81993000D03*
X135957600Y-89011200D03*
%TO.N,GNDB*%
X93503900Y-71170200D03*
X91599500Y-80475800D03*
X91566800Y-60422600D03*
X91368100Y-49728700D03*
%TO.N,AND*%
X130257100Y-58435900D03*
X127952200Y-52571600D03*
X121103900Y-82880200D03*
X119725300Y-89847000D03*
X127586900Y-72043900D03*
%TO.N,GNDS*%
X121822100Y-85291800D03*
X142354400Y-48933300D03*
X142354400Y-60705800D03*
%TO.N,GNDA*%
X91665300Y-68636000D03*
X93412100Y-48059900D03*
X91666600Y-59417300D03*
X96356000Y-79088800D03*
%TO.N,ADD*%
X122672800Y-52065900D03*
X121011900Y-71142800D03*
X120783600Y-62839200D03*
X123126000Y-82260100D03*
X122107400Y-89727900D03*
%TO.N,GNDC*%
X116840000Y-85021400D03*
X118110400Y-54198600D03*
X118186700Y-76168000D03*
X118221700Y-65020400D03*
%TO.N,Cin*%
X110257300Y-48940500D03*
%TO.N,GNDR*%
X139652500Y-68641900D03*
X138850200Y-77947400D03*
X139638200Y-58831200D03*
X139638200Y-49530000D03*
X139290000Y-47440400D03*
%TO.N,PA2*%
X140024300Y-64638000D03*
X91570500Y-64781800D03*
%TO.N,PC1*%
X110312500Y-63406800D03*
X111875700Y-67636200D03*
%TO.N,PB1*%
X145956600Y-66245400D03*
%TO.N,PE1*%
X92314000Y-65221200D03*
%TO.N,PD0*%
X96722300Y-45296400D03*
X147526800Y-42936200D03*
%TO.N,PE2*%
X89680800Y-94496200D03*
X147526800Y-94496200D03*
%TO.N,S3*%
X116637400Y-84195400D03*
X116601200Y-81355300D03*
%TO.N,S2*%
X111775300Y-74349400D03*
X111875800Y-70948500D03*
%TO.N,S1*%
X111666400Y-63703700D03*
X111749800Y-59541700D03*
%TO.N,S0*%
X115972500Y-51527900D03*
X116182500Y-45572400D03*
X95505100Y-46559000D03*
X116800100Y-53693300D03*
%TO.N,/ALUSlice3/C*%
X128074000Y-85836500D03*
X127965500Y-80797500D03*
%TO.N,/ALUSlice2/C*%
X126527800Y-75522800D03*
X127641100Y-70598700D03*
%TO.N,/ALUSlice1/C*%
X119124300Y-65086800D03*
X119004900Y-45211400D03*
X121103100Y-45803700D03*
X127760200Y-60310000D03*
%TO.N,/ALUSlice0/C*%
X130482300Y-50684900D03*
X131306200Y-54436300D03*
%TO.N,Net-(U12-Pad13)*%
X116314200Y-62857100D03*
X116314200Y-59982200D03*
%TO.N,Net-(U12-Pad12)*%
X110828000Y-62207500D03*
X110766000Y-58452900D03*
%TO.N,Net-(U11-Pad13)*%
X101970800Y-59432800D03*
X101227800Y-62539200D03*
X117584000Y-62464600D03*
%TO.N,A2*%
X101302600Y-71396400D03*
X103123200Y-69273200D03*
%TO.N,VDD*%
X126530900Y-78441700D03*
X124585500Y-48140500D03*
X133065300Y-58051800D03*
X106109500Y-48873200D03*
X106084700Y-58098400D03*
X105046200Y-68438900D03*
X104143500Y-78305600D03*
X132843700Y-68693900D03*
%TO.N,A1*%
X89911300Y-60008600D03*
%TO.N,A0*%
X95465400Y-51876700D03*
X93695000Y-49530000D03*
%TO.N,GND*%
X89680800Y-82366200D03*
X127280700Y-53255000D03*
X127698500Y-83607400D03*
X127385300Y-73265900D03*
X130893300Y-62690700D03*
%TD*%
D13*
%TO.N,Net-(U33-Pad10)*%
X123727700Y-82854800D02*
X123409800Y-83172700D01*
X123727700Y-81563500D02*
X123727700Y-82854800D01*
X123508200Y-81344000D02*
X123727700Y-81563500D01*
X123508200Y-81212200D02*
X122084100Y-79788100D01*
X123508200Y-81344000D02*
X123508200Y-81212200D01*
%TO.N,Net-(U32-Pad13)*%
X112454700Y-80094000D02*
X111702000Y-79341300D01*
X112454700Y-80559200D02*
X112454700Y-80094000D01*
X112805800Y-80910300D02*
X112454700Y-80559200D01*
X112805800Y-82208400D02*
X112805800Y-80910300D01*
X111863900Y-83150300D02*
X112805800Y-82208400D01*
%TO.N,Net-(U32-Pad12)*%
X110510700Y-82852900D02*
X110504200Y-82852900D01*
X112204100Y-81159500D02*
X110510700Y-82852900D01*
%TO.N,Net-(U31-Pad3)*%
X116483900Y-80166900D02*
X116483900Y-79005000D01*
X116345800Y-80305000D02*
X116483900Y-80166900D01*
X107530600Y-82214400D02*
X107530600Y-82850200D01*
X111773700Y-77971300D02*
X107530600Y-82214400D01*
%TO.N,Net-(U31-Pad13)*%
X103210400Y-80000800D02*
X103210400Y-83135900D01*
X117622800Y-82552400D02*
X117659000Y-82588600D01*
X117622800Y-78212000D02*
X117622800Y-82552400D01*
X117659000Y-82588600D02*
X117622800Y-82588600D01*
X117622800Y-82588600D02*
X117659000Y-82588600D01*
%TO.N,Net-(U31-Pad12)*%
X101775700Y-80810500D02*
X101775700Y-79992800D01*
X100250900Y-82335300D02*
X101775700Y-80810500D01*
%TO.N,Net-(U23-Pad8)*%
X127116800Y-70104500D02*
X127116800Y-69226800D01*
X126282500Y-70938800D02*
X127116800Y-70104500D01*
X126282500Y-72239500D02*
X126282500Y-70938800D01*
%TO.N,Net-(U23-Pad13)*%
X122027100Y-69742300D02*
X121456300Y-69171500D01*
X122027100Y-73276900D02*
X122027100Y-69742300D01*
%TO.N,Net-(U22-Pad13)*%
X116368000Y-69381900D02*
X116420300Y-69329600D01*
X116368000Y-72992000D02*
X116368000Y-69381900D01*
%TO.N,Net-(U21-Pad11)*%
X110620200Y-70934100D02*
X110620200Y-66139800D01*
X111524200Y-71838100D02*
X110620200Y-70934100D01*
X101225400Y-69419300D02*
X101118700Y-69526000D01*
X101225400Y-66112300D02*
X101225400Y-69419300D01*
%TO.N,Net-(U21-Pad13)*%
X117639700Y-74041600D02*
X117639700Y-71770000D01*
X115713300Y-75968000D02*
X117639700Y-74041600D01*
X115713300Y-88817100D02*
X115713300Y-75968000D01*
X116146200Y-89250000D02*
X115713300Y-88817100D01*
X107866600Y-81092700D02*
X107866600Y-73267300D01*
X106900200Y-82059100D02*
X107866600Y-81092700D01*
X106900200Y-83466900D02*
X106900200Y-82059100D01*
X108793300Y-85360000D02*
X106900200Y-83466900D01*
X108793300Y-90164800D02*
X108793300Y-85360000D01*
%TO.N,Net-(U21-Pad3)*%
X103724900Y-68143600D02*
X103650300Y-68069000D01*
X103724900Y-71926300D02*
X103724900Y-68143600D01*
X103210400Y-72440800D02*
X103724900Y-71926300D01*
%TO.N,Net-(U21-Pad12)*%
X102599300Y-71157900D02*
X102599300Y-70423000D01*
X99944900Y-73812300D02*
X102599300Y-71157900D01*
%TO.N,Net-(U13-Pad8)*%
X126298500Y-62307600D02*
X126507600Y-62516700D01*
X126298500Y-59404300D02*
X126298500Y-62307600D01*
%TO.N,Net-(U13-Pad10)*%
X122838300Y-61812100D02*
X122893700Y-61867500D01*
X122838300Y-59623700D02*
X122838300Y-61812100D01*
X123168600Y-59293400D02*
X122838300Y-59623700D01*
%TO.N,Net-(U11-Pad12)*%
X100365800Y-58977300D02*
X100365800Y-62174600D01*
X101252800Y-58090300D02*
X100365800Y-58977300D01*
%TO.N,Net-(U11-Pad3)*%
X106686500Y-54946200D02*
X106540000Y-54799700D01*
X106686500Y-60458700D02*
X106686500Y-54946200D01*
X106550800Y-60594400D02*
X106686500Y-60458700D01*
X121056200Y-56236200D02*
X121056200Y-59325800D01*
X121788000Y-55504400D02*
X121056200Y-56236200D01*
%TO.N,Net-(U03-Pad10)*%
X121271100Y-51622700D02*
X121871000Y-52222600D01*
X121271100Y-50395900D02*
X121271100Y-51622700D01*
%TO.N,Net-(U01-Pad11)*%
X110979100Y-50798700D02*
X110979100Y-46181100D01*
X110910100Y-50867700D02*
X110979100Y-50798700D01*
%TO.N,Net-(U01-Pad13)*%
X101755500Y-50606800D02*
X101755500Y-52627100D01*
X102903300Y-49459000D02*
X101755500Y-50606800D01*
%TO.N,Net-(U01-Pad3)*%
X104857000Y-50453400D02*
X104857000Y-48143500D01*
X103210400Y-52100000D02*
X104857000Y-50453400D01*
%TO.N,SUB*%
X126037200Y-63452800D02*
X123495000Y-60910600D01*
X126037200Y-69765200D02*
X126037200Y-63452800D01*
X120589900Y-80219300D02*
X121925400Y-81554800D01*
X120589900Y-76500300D02*
X120589900Y-80219300D01*
X122497700Y-73955400D02*
X122497700Y-76389400D01*
X126037200Y-70415900D02*
X122497700Y-73955400D01*
X126037200Y-69765200D02*
X126037200Y-70415900D01*
X123495000Y-50968900D02*
X123373500Y-50847400D01*
X123495000Y-58768900D02*
X123495000Y-50968900D01*
X123770300Y-59044200D02*
X123495000Y-58768900D01*
X123770300Y-60635300D02*
X123770300Y-59044200D01*
X123495000Y-60910600D02*
X123770300Y-60635300D01*
X112856400Y-76408800D02*
X112000500Y-75552900D01*
X112856400Y-80392900D02*
X112856400Y-76408800D01*
X113207500Y-80744000D02*
X112856400Y-80392900D01*
X113207500Y-88727500D02*
X113207500Y-80744000D01*
X110490000Y-91445000D02*
X113207500Y-88727500D01*
X109338300Y-41796700D02*
X110490000Y-40645000D01*
X109338300Y-43662000D02*
X109338300Y-41796700D01*
X112478400Y-46802100D02*
X109338300Y-43662000D01*
X112478400Y-71196800D02*
X112478400Y-46802100D01*
X112431400Y-71243800D02*
X112478400Y-71196800D01*
X112431400Y-71326400D02*
X112431400Y-71243800D01*
X112527600Y-71422600D02*
X112431400Y-71326400D01*
X112527600Y-72253600D02*
X112527600Y-71422600D01*
X112277500Y-72503700D02*
X112527600Y-72253600D01*
X112277500Y-74000700D02*
X112277500Y-72503700D01*
X112377000Y-74100200D02*
X112277500Y-74000700D01*
X112377000Y-75176400D02*
X112377000Y-74100200D01*
X112000500Y-75552900D02*
X112377000Y-75176400D01*
%TO.N,XOR*%
X136921600Y-62380200D02*
X136335800Y-61794400D01*
X136921600Y-70792400D02*
X136921600Y-62380200D01*
X136921600Y-81317100D02*
X136245700Y-81993000D01*
X136921600Y-70792400D02*
X136921600Y-81317100D01*
X136245700Y-88723100D02*
X136245700Y-81993000D01*
X135957600Y-89011200D02*
X136245700Y-88723100D01*
X136335800Y-51582700D02*
X136605700Y-51312800D01*
X136335800Y-61794400D02*
X136335800Y-51582700D01*
X113609200Y-80577700D02*
X113373800Y-80342300D01*
X113609200Y-90865800D02*
X113609200Y-80577700D01*
X113030000Y-91445000D02*
X113609200Y-90865800D01*
X111839400Y-41835600D02*
X113030000Y-40645000D01*
X111839400Y-45087500D02*
X111839400Y-41835600D01*
X113258100Y-46506200D02*
X111839400Y-45087500D01*
X113258100Y-80226600D02*
X113258100Y-46506200D01*
X113373800Y-80342300D02*
X113258100Y-80226600D01*
X113373800Y-80342300D02*
X113258100Y-80226600D01*
%TO.N,GNDB*%
X93503900Y-78571400D02*
X93503900Y-71170200D01*
X91599500Y-80475800D02*
X93503900Y-78571400D01*
X116739900Y-92815100D02*
X115570000Y-93985000D01*
X116739900Y-90711600D02*
X116739900Y-92815100D01*
X115311600Y-89283300D02*
X116739900Y-90711600D01*
X115311600Y-43443400D02*
X115311600Y-89283300D01*
X115570000Y-43185000D02*
X115311600Y-43443400D01*
X93300900Y-71170200D02*
X93503900Y-71170200D01*
X91062500Y-68931800D02*
X93300900Y-71170200D01*
X91062500Y-67421200D02*
X91062500Y-68931800D01*
X92962500Y-65521200D02*
X91062500Y-67421200D01*
X92962500Y-64694900D02*
X92962500Y-65521200D01*
X91566800Y-63299200D02*
X92962500Y-64694900D01*
X91566800Y-60422600D02*
X91566800Y-63299200D01*
X91055600Y-50041200D02*
X91368100Y-49728700D01*
X91055600Y-59911400D02*
X91055600Y-50041200D01*
X91566800Y-60422600D02*
X91055600Y-59911400D01*
%TO.N,AND*%
X127952200Y-53856800D02*
X127952200Y-52571600D01*
X116957400Y-42032400D02*
X115570000Y-40645000D01*
X119485500Y-42032400D02*
X116957400Y-42032400D01*
X119485500Y-44841100D02*
X119485500Y-42032400D01*
X119726000Y-45081600D02*
X119485500Y-44841100D01*
X119726000Y-75945400D02*
X119726000Y-45081600D01*
X119586500Y-76084900D02*
X119726000Y-75945400D01*
X119586500Y-81362800D02*
X119586500Y-76084900D01*
X121103900Y-82880200D02*
X119586500Y-81362800D01*
X121185800Y-42032400D02*
X119485500Y-42032400D01*
X122038300Y-42884900D02*
X121185800Y-42032400D01*
X122038300Y-47617100D02*
X122038300Y-42884900D01*
X124376900Y-49955700D02*
X122038300Y-47617100D01*
X124376900Y-51254800D02*
X124376900Y-49955700D01*
X126978900Y-53856800D02*
X124376900Y-51254800D01*
X127952200Y-53856800D02*
X126978900Y-53856800D01*
X127952200Y-56131000D02*
X127952200Y-53856800D01*
X130257100Y-58435900D02*
X127952200Y-56131000D01*
X130257100Y-69373700D02*
X130257100Y-58435900D01*
X127586900Y-72043900D02*
X130257100Y-69373700D01*
X121103900Y-88468400D02*
X119725300Y-89847000D01*
X121103900Y-82880200D02*
X121103900Y-88468400D01*
%TO.N,GNDS*%
X142354400Y-48933300D02*
X142354400Y-60705800D01*
X121980200Y-85133700D02*
X121822100Y-85291800D01*
X121980200Y-84404900D02*
X121980200Y-85133700D01*
X121813900Y-84238600D02*
X121980200Y-84404900D01*
X121813900Y-84238600D02*
X121980200Y-84404900D01*
X121822100Y-92812900D02*
X120650000Y-93985000D01*
X121822100Y-90293400D02*
X121822100Y-92812900D01*
X121505700Y-89977000D02*
X121822100Y-90293400D01*
X121505700Y-85608200D02*
X121505700Y-89977000D01*
X121822100Y-85291800D02*
X121505700Y-85608200D01*
X121813900Y-82404700D02*
X121813900Y-84238600D01*
X119988200Y-80579000D02*
X121813900Y-82404700D01*
X119988200Y-76251200D02*
X119988200Y-80579000D01*
X120167800Y-76071600D02*
X119988200Y-76251200D01*
X120167800Y-43667200D02*
X120167800Y-76071600D01*
X120650000Y-43185000D02*
X120167800Y-43667200D01*
%TO.N,GNDA*%
X114209900Y-92805100D02*
X113030000Y-93985000D01*
X114209900Y-44364900D02*
X114209900Y-92805100D01*
X113030000Y-43185000D02*
X114209900Y-44364900D01*
X96356000Y-73109600D02*
X91773900Y-68527400D01*
X96356000Y-79088800D02*
X96356000Y-73109600D01*
X91773900Y-68527400D02*
X91665300Y-68636000D01*
X91947800Y-59698500D02*
X91666600Y-59417300D01*
X91947800Y-59856300D02*
X91947800Y-59698500D01*
X92106600Y-60015100D02*
X91947800Y-59856300D01*
X92106600Y-60111500D02*
X92106600Y-60015100D01*
X92168500Y-60173400D02*
X92106600Y-60111500D01*
X92168500Y-62189700D02*
X92168500Y-60173400D01*
X92715700Y-62736900D02*
X92168500Y-62189700D01*
X92715700Y-62739000D02*
X92715700Y-62736900D01*
X92962500Y-62985800D02*
X92715700Y-62739000D01*
X92962500Y-63878600D02*
X92962500Y-62985800D01*
X93364200Y-64280300D02*
X92962500Y-63878600D01*
X93364200Y-65787700D02*
X93364200Y-64280300D01*
X92964000Y-66187900D02*
X93364200Y-65787700D01*
X92964000Y-67241500D02*
X92964000Y-66187900D01*
X92962500Y-67243000D02*
X92964000Y-67241500D01*
X92962500Y-67338800D02*
X92962500Y-67243000D01*
X91773900Y-68527400D02*
X92962500Y-67338800D01*
X91969800Y-49502200D02*
X93412100Y-48059900D01*
X91969800Y-59114100D02*
X91969800Y-49502200D01*
X91666600Y-59417300D02*
X91969800Y-59114100D01*
X91665300Y-68636000D02*
X91811000Y-68636000D01*
X91811000Y-68636000D02*
X91665300Y-68636000D01*
%TO.N,ADD*%
X120783600Y-70914500D02*
X121011900Y-71142800D01*
X120783600Y-62839200D02*
X120783600Y-70914500D01*
X123126000Y-81816800D02*
X123126000Y-82260100D01*
X121247600Y-79938400D02*
X123126000Y-81816800D01*
X121247600Y-71378500D02*
X121247600Y-79938400D01*
X121011900Y-71142800D02*
X121247600Y-71378500D01*
X122427100Y-82959000D02*
X123126000Y-82260100D01*
X122427100Y-89408200D02*
X122427100Y-82959000D01*
X122107400Y-89727900D02*
X122427100Y-89408200D01*
X120783600Y-60614600D02*
X120783600Y-62839200D01*
X122672800Y-58725400D02*
X120783600Y-60614600D01*
X122672800Y-52065900D02*
X122672800Y-58725400D01*
X106750100Y-83952200D02*
X106914900Y-84117000D01*
X106750100Y-83952200D02*
X106914900Y-84117000D01*
X106914900Y-90409900D02*
X107950000Y-91445000D01*
X106914900Y-84117000D02*
X106914900Y-90409900D01*
X106466100Y-83668200D02*
X106750100Y-83952200D01*
X106466100Y-81725000D02*
X106466100Y-83668200D01*
X107152500Y-81038600D02*
X106466100Y-81725000D01*
X107152500Y-45082200D02*
X107152500Y-81038600D01*
X106760700Y-44690400D02*
X107152500Y-45082200D01*
X106760700Y-41834300D02*
X106760700Y-44690400D01*
X107950000Y-40645000D02*
X106760700Y-41834300D01*
%TO.N,GNDC*%
X118110000Y-54198200D02*
X118110400Y-54198600D01*
X118110000Y-43185000D02*
X118110000Y-54198200D01*
X118221700Y-54309900D02*
X118110400Y-54198600D01*
X118221700Y-65020400D02*
X118221700Y-54309900D01*
X118304800Y-65103500D02*
X118221700Y-65020400D01*
X118304800Y-76049900D02*
X118304800Y-65103500D01*
X118186700Y-76168000D02*
X118304800Y-76049900D01*
X116840000Y-87812500D02*
X116840000Y-85021400D01*
X119300600Y-90273100D02*
X116840000Y-87812500D01*
X119300600Y-92794400D02*
X119300600Y-90273100D01*
X118110000Y-93985000D02*
X119300600Y-92794400D01*
X118260700Y-76242000D02*
X118186700Y-76168000D01*
X118260700Y-83600700D02*
X118260700Y-76242000D01*
X116840000Y-85021400D02*
X118260700Y-83600700D01*
%TO.N,Cin*%
X107950000Y-46633200D02*
X110257300Y-48940500D01*
X107950000Y-43185000D02*
X107950000Y-46633200D01*
%TO.N,GNDR*%
X139652500Y-77145100D02*
X138850200Y-77947400D01*
X139652500Y-68641900D02*
X139652500Y-77145100D01*
X139638200Y-49530000D02*
X139638200Y-58831200D01*
X139638200Y-47788600D02*
X139638200Y-49530000D01*
X139290000Y-47440400D02*
X139638200Y-47788600D01*
X138850200Y-87019000D02*
X138850200Y-77947400D01*
X130656100Y-95213100D02*
X138850200Y-87019000D01*
X124418100Y-95213100D02*
X130656100Y-95213100D01*
X123190000Y-93985000D02*
X124418100Y-95213100D01*
X139422600Y-68412000D02*
X139652500Y-68641900D01*
X139422600Y-59046800D02*
X139422600Y-68412000D01*
X139638200Y-58831200D02*
X139422600Y-59046800D01*
%TO.N,PA2*%
X147141300Y-71755000D02*
X140024300Y-64638000D01*
X147320000Y-71755000D02*
X147141300Y-71755000D01*
X90947300Y-65405000D02*
X91570500Y-64781800D01*
X86609600Y-65405000D02*
X90947300Y-65405000D01*
X85725000Y-66289600D02*
X86609600Y-65405000D01*
X85725000Y-70485000D02*
X85725000Y-66289600D01*
X84455000Y-71755000D02*
X85725000Y-70485000D01*
%TO.N,PC1*%
X111875700Y-64970000D02*
X111875700Y-67636200D01*
X110312500Y-63406800D02*
X111875700Y-64970000D01*
%TO.N,PB1*%
X147320000Y-64882000D02*
X145956600Y-66245400D01*
X147320000Y-64135000D02*
X147320000Y-64882000D01*
%TO.N,PE1*%
X90860200Y-66675000D02*
X92314000Y-65221200D01*
X86995000Y-66675000D02*
X90860200Y-66675000D01*
%TO.N,PD0*%
X148530000Y-52645000D02*
X149860000Y-53975000D01*
X148530000Y-43939400D02*
X148530000Y-52645000D01*
X147526800Y-42936200D02*
X148530000Y-43939400D01*
X86995000Y-53251000D02*
X86995000Y-53975000D01*
X92991100Y-47254900D02*
X86995000Y-53251000D01*
X95725400Y-47254900D02*
X92991100Y-47254900D01*
X96722300Y-46258000D02*
X95725400Y-47254900D01*
X96722300Y-45296400D02*
X96722300Y-46258000D01*
%TO.N,PE2*%
X90329400Y-93847600D02*
X89680800Y-94496200D01*
X90329400Y-80169400D02*
X90329400Y-93847600D01*
X86995000Y-76835000D02*
X90329400Y-80169400D01*
X148590000Y-93433000D02*
X147526800Y-94496200D01*
X148590000Y-78105000D02*
X148590000Y-93433000D01*
X149860000Y-76835000D02*
X148590000Y-78105000D01*
%TO.N,S3*%
X116637400Y-81391500D02*
X116601200Y-81355300D01*
X116637400Y-84195400D02*
X116637400Y-81391500D01*
%TO.N,S2*%
X111775300Y-71049000D02*
X111875800Y-70948500D01*
X111775300Y-71238300D02*
X111775300Y-71049000D01*
X112125900Y-71588900D02*
X111775300Y-71238300D01*
X112125900Y-72087300D02*
X112125900Y-71588900D01*
X111775300Y-72437900D02*
X112125900Y-72087300D01*
X111775300Y-74349400D02*
X111775300Y-72437900D01*
%TO.N,S1*%
X111666400Y-59625100D02*
X111749800Y-59541700D01*
X111666400Y-63703700D02*
X111666400Y-59625100D01*
%TO.N,S0*%
X91871000Y-46559000D02*
X95505100Y-46559000D01*
X86995000Y-51435000D02*
X91871000Y-46559000D01*
X115972500Y-45782400D02*
X116182500Y-45572400D01*
X115972500Y-51527900D02*
X115972500Y-45782400D01*
X116800100Y-52355500D02*
X116800100Y-53693300D01*
X115972500Y-51527900D02*
X116800100Y-52355500D01*
%TO.N,/ALUSlice3/C*%
X128300200Y-81132200D02*
X127965500Y-80797500D01*
X128300200Y-85610300D02*
X128300200Y-81132200D01*
X128074000Y-85836500D02*
X128300200Y-85610300D01*
%TO.N,/ALUSlice2/C*%
X126884200Y-71355600D02*
X127641100Y-70598700D01*
X126884200Y-72488700D02*
X126884200Y-71355600D01*
X126527800Y-72845100D02*
X126884200Y-72488700D01*
X126527800Y-75522800D02*
X126527800Y-72845100D01*
%TO.N,/ALUSlice1/C*%
X119004900Y-64967400D02*
X119004900Y-45211400D01*
X119124300Y-65086800D02*
X119004900Y-64967400D01*
X127760200Y-59390000D02*
X127760200Y-60310000D01*
X123975200Y-55605000D02*
X127760200Y-59390000D01*
X123975200Y-50217700D02*
X123975200Y-55605000D01*
X121103100Y-47345600D02*
X123975200Y-50217700D01*
X121103100Y-45803700D02*
X121103100Y-47345600D01*
%TO.N,/ALUSlice0/C*%
X130482300Y-53612400D02*
X131306200Y-54436300D01*
X130482300Y-50684900D02*
X130482300Y-53612400D01*
%TO.N,Net-(U12-Pad13)*%
X116314200Y-62857100D02*
X116314200Y-59982200D01*
%TO.N,Net-(U12-Pad12)*%
X110828000Y-58514900D02*
X110766000Y-58452900D01*
X110828000Y-62207500D02*
X110828000Y-58514900D01*
%TO.N,Net-(U11-Pad13)*%
X101227800Y-60175800D02*
X101970800Y-59432800D01*
X101227800Y-62539200D02*
X101227800Y-60175800D01*
X105458700Y-55944900D02*
X101970800Y-59432800D01*
X105458700Y-41459800D02*
X105458700Y-55944900D01*
X107455800Y-39462700D02*
X105458700Y-41459800D01*
X113527100Y-39462700D02*
X107455800Y-39462700D01*
X114413300Y-40348900D02*
X113527100Y-39462700D01*
X114413300Y-41139000D02*
X114413300Y-40348900D01*
X115252600Y-41978300D02*
X114413300Y-41139000D01*
X116000700Y-41978300D02*
X115252600Y-41978300D01*
X116866500Y-42844100D02*
X116000700Y-41978300D01*
X116866500Y-44941600D02*
X116866500Y-42844100D01*
X117494300Y-45569400D02*
X116866500Y-44941600D01*
X117494300Y-62374900D02*
X117494300Y-45569400D01*
X117584000Y-62464600D02*
X117494300Y-62374900D01*
%TO.N,A2*%
X101329900Y-70841400D02*
X101329900Y-71275500D01*
X102898100Y-69273200D02*
X101329900Y-70841400D01*
X103123200Y-69273200D02*
X102898100Y-69273200D01*
X101329900Y-71369100D02*
X101302600Y-71396400D01*
X101329900Y-71275500D02*
X101329900Y-71369100D01*
%TO.N,VDD*%
X124486900Y-48041900D02*
X124585500Y-48140500D01*
X124486900Y-41888100D02*
X124486900Y-48041900D01*
X125730000Y-40645000D02*
X124486900Y-41888100D01*
X125730000Y-79242600D02*
X126530900Y-78441700D01*
X125730000Y-91445000D02*
X125730000Y-79242600D01*
X133065300Y-47980300D02*
X133065300Y-58051800D01*
X125730000Y-40645000D02*
X133065300Y-47980300D01*
X104143500Y-69341600D02*
X105046200Y-68438900D01*
X104143500Y-78305600D02*
X104143500Y-69341600D01*
X105046200Y-59136900D02*
X106084700Y-58098400D01*
X105046200Y-68438900D02*
X105046200Y-59136900D01*
X133065300Y-68472300D02*
X132843700Y-68693900D01*
X133065300Y-58051800D02*
X133065300Y-68472300D01*
X105933100Y-57946800D02*
X106084700Y-58098400D01*
X105933100Y-49049600D02*
X105933100Y-57946800D01*
X106109500Y-48873200D02*
X105933100Y-49049600D01*
%TO.N,A1*%
X89674000Y-60245900D02*
X89911300Y-60008600D01*
X85645900Y-60245900D02*
X89674000Y-60245900D01*
X84455000Y-59055000D02*
X85645900Y-60245900D01*
%TO.N,A0*%
X93695000Y-50106300D02*
X93695000Y-49530000D01*
X95465400Y-51876700D02*
X93695000Y-50106300D01*
%TO.N,GND*%
X89680800Y-85973100D02*
X89680800Y-82366200D01*
X87388900Y-88265000D02*
X89680800Y-85973100D01*
X85725000Y-88265000D02*
X87388900Y-88265000D01*
X84455000Y-89535000D02*
X85725000Y-88265000D01*
X127280700Y-44735700D02*
X127280700Y-51929700D01*
X125730000Y-43185000D02*
X127280700Y-44735700D01*
X127280700Y-51929700D02*
X127280700Y-53255000D01*
X127321100Y-83607400D02*
X127698500Y-83607400D01*
X127321100Y-92393900D02*
X127321100Y-83607400D01*
X125730000Y-93985000D02*
X127321100Y-92393900D01*
X130893300Y-69757900D02*
X130893300Y-62690700D01*
X127385300Y-73265900D02*
X130893300Y-69757900D01*
X127321100Y-73330100D02*
X127385300Y-73265900D01*
X127321100Y-83607400D02*
X127321100Y-73330100D01*
X130893300Y-54874200D02*
X130893300Y-62690700D01*
X130704500Y-54685400D02*
X130893300Y-54874200D01*
X130704500Y-54439500D02*
X130704500Y-54685400D01*
X128194700Y-51929700D02*
X130704500Y-54439500D01*
X127280700Y-51929700D02*
X128194700Y-51929700D01*
%TD*%
M02*
