%TF.GenerationSoftware,KiCad,Pcbnew,9.0.2*%
%TF.CreationDate,2025-05-17T19:37:23+02:00*%
%TF.ProjectId,ALU,414c552e-6b69-4636-9164-5f7063625858,rev?*%
%TF.SameCoordinates,Original*%
%TF.FileFunction,Drillmap*%
%TF.FilePolarity,Positive*%
%FSLAX45Y45*%
G04 Gerber Fmt 4.5, Leading zero omitted, Abs format (unit mm)*
G04 Created by KiCad (PCBNEW 9.0.2) date 2025-05-17 19:37:23*
%MOMM*%
%LPD*%
G01*
G04 APERTURE LIST*
%ADD10C,0.050000*%
%ADD11C,0.200000*%
%ADD12C,0.100000*%
G04 APERTURE END LIST*
D10*
X8255000Y-3873500D02*
X15176500Y-3873500D01*
X15176500Y-9588500D01*
X8255000Y-9588500D01*
X8255000Y-3873500D01*
D11*
D12*
X8953080Y-8221620D02*
X8983080Y-8251620D01*
X8983080Y-8221620D02*
X8953080Y-8251620D01*
X8953080Y-9434620D02*
X8983080Y-9464620D01*
X8983080Y-9434620D02*
X8953080Y-9464620D01*
X8976130Y-5985860D02*
X9006130Y-6015860D01*
X9006130Y-5985860D02*
X8976130Y-6015860D01*
X9121810Y-4957870D02*
X9151810Y-4987870D01*
X9151810Y-4957870D02*
X9121810Y-4987870D01*
X9141680Y-6027260D02*
X9171680Y-6057260D01*
X9171680Y-6027260D02*
X9141680Y-6057260D01*
X9142050Y-6463180D02*
X9172050Y-6493180D01*
X9172050Y-6463180D02*
X9142050Y-6493180D01*
X9144950Y-8032580D02*
X9174950Y-8062580D01*
X9174950Y-8032580D02*
X9144950Y-8062580D01*
X9151530Y-6848600D02*
X9181530Y-6878600D01*
X9181530Y-6848600D02*
X9151530Y-6878600D01*
X9151660Y-5926730D02*
X9181660Y-5956730D01*
X9181660Y-5926730D02*
X9151660Y-5956730D01*
X9216400Y-6507120D02*
X9246400Y-6537120D01*
X9246400Y-6507120D02*
X9216400Y-6537120D01*
X9326210Y-4790990D02*
X9356210Y-4820990D01*
X9356210Y-4790990D02*
X9326210Y-4820990D01*
X9335390Y-7102020D02*
X9365390Y-7132020D01*
X9365390Y-7102020D02*
X9335390Y-7132020D01*
X9354500Y-4938000D02*
X9384500Y-4968000D01*
X9384500Y-4938000D02*
X9354500Y-4968000D01*
X9531540Y-5172670D02*
X9561540Y-5202670D01*
X9561540Y-5172670D02*
X9531540Y-5202670D01*
X9535510Y-4640900D02*
X9565510Y-4670900D01*
X9565510Y-4640900D02*
X9535510Y-4670900D01*
X9620600Y-7893880D02*
X9650600Y-7923880D01*
X9650600Y-7893880D02*
X9620600Y-7923880D01*
X9657230Y-4514640D02*
X9687230Y-4544640D01*
X9687230Y-4514640D02*
X9657230Y-4544640D01*
X9979490Y-7366230D02*
X10009490Y-7396230D01*
X10009490Y-7366230D02*
X9979490Y-7396230D01*
X10010090Y-8218530D02*
X10040090Y-8248530D01*
X10040090Y-8218530D02*
X10010090Y-8248530D01*
X10021580Y-6202460D02*
X10051580Y-6232460D01*
X10051580Y-6202460D02*
X10021580Y-6232460D01*
X10096870Y-6937600D02*
X10126870Y-6967600D01*
X10126870Y-6937600D02*
X10096870Y-6967600D01*
X10107540Y-6596230D02*
X10137540Y-6626230D01*
X10137540Y-6596230D02*
X10107540Y-6626230D01*
X10107780Y-6238920D02*
X10137780Y-6268920D01*
X10137780Y-6238920D02*
X10107780Y-6268920D01*
X10110280Y-5794030D02*
X10140280Y-5824030D01*
X10140280Y-5794030D02*
X10110280Y-5824030D01*
X10115260Y-7124640D02*
X10145260Y-7154640D01*
X10145260Y-7124640D02*
X10115260Y-7154640D01*
X10160550Y-5247710D02*
X10190550Y-5277710D01*
X10190550Y-5247710D02*
X10160550Y-5277710D01*
X10162570Y-7984280D02*
X10192570Y-8014280D01*
X10192570Y-7984280D02*
X10162570Y-8014280D01*
X10182080Y-5928280D02*
X10212080Y-5958280D01*
X10212080Y-5928280D02*
X10182080Y-5958280D01*
X10244930Y-7027300D02*
X10274930Y-7057300D01*
X10274930Y-7027300D02*
X10244930Y-7057300D01*
X10275330Y-4930900D02*
X10305330Y-4960900D01*
X10305330Y-4930900D02*
X10275330Y-4960900D01*
X10297320Y-6912320D02*
X10327320Y-6942320D01*
X10327320Y-6912320D02*
X10297320Y-6942320D01*
X10306040Y-5195000D02*
X10336040Y-5225000D01*
X10336040Y-5195000D02*
X10306040Y-5225000D01*
X10306040Y-7229080D02*
X10336040Y-7259080D01*
X10336040Y-7229080D02*
X10306040Y-7259080D01*
X10306040Y-7985080D02*
X10336040Y-8015080D01*
X10336040Y-7985080D02*
X10306040Y-8015080D01*
X10306040Y-8298590D02*
X10336040Y-8328590D01*
X10336040Y-8298590D02*
X10306040Y-8328590D01*
X10350030Y-6791900D02*
X10380030Y-6821900D01*
X10380030Y-6791900D02*
X10350030Y-6821900D01*
X10399350Y-7815560D02*
X10429350Y-7845560D01*
X10429350Y-7815560D02*
X10399350Y-7845560D01*
X10470700Y-4799350D02*
X10500700Y-4829350D01*
X10500700Y-4799350D02*
X10470700Y-4829350D01*
X10489620Y-6828890D02*
X10519620Y-6858890D01*
X10519620Y-6828890D02*
X10489620Y-6858890D01*
X10593470Y-5794840D02*
X10623470Y-5824840D01*
X10623470Y-5794840D02*
X10593470Y-5824840D01*
X10595950Y-4872320D02*
X10625950Y-4902320D01*
X10625950Y-4872320D02*
X10595950Y-4902320D01*
X10639000Y-5464970D02*
X10669000Y-5494970D01*
X10669000Y-5464970D02*
X10639000Y-5494970D01*
X10640080Y-6044440D02*
X10670080Y-6074440D01*
X10670080Y-6044440D02*
X10640080Y-6074440D01*
X10738060Y-8270020D02*
X10768060Y-8300020D01*
X10768060Y-8270020D02*
X10738060Y-8300020D01*
X10771660Y-7311730D02*
X10801660Y-7341730D01*
X10801660Y-7311730D02*
X10771660Y-7341730D01*
X10864330Y-9001480D02*
X10894330Y-9031480D01*
X10894330Y-9001480D02*
X10864330Y-9031480D01*
X11010730Y-4879050D02*
X11040730Y-4909050D01*
X11040730Y-4879050D02*
X11010730Y-4909050D01*
X11016250Y-6325680D02*
X11046250Y-6355680D01*
X11046250Y-6325680D02*
X11016250Y-6355680D01*
X11035420Y-8270290D02*
X11065420Y-8300290D01*
X11065420Y-8270290D02*
X11035420Y-8300290D01*
X11047020Y-6598980D02*
X11077020Y-6628980D01*
X11077020Y-6598980D02*
X11047020Y-6628980D01*
X11061600Y-5830290D02*
X11091600Y-5860290D01*
X11091600Y-5830290D02*
X11061600Y-5860290D01*
X11067800Y-6205750D02*
X11097800Y-6235750D01*
X11097800Y-6205750D02*
X11067800Y-6235750D01*
X11076010Y-5071770D02*
X11106010Y-5101770D01*
X11106010Y-5071770D02*
X11076010Y-5101770D01*
X11082910Y-4603110D02*
X11112910Y-4633110D01*
X11112910Y-4603110D02*
X11082910Y-4633110D01*
X11137420Y-7168810D02*
X11167420Y-7198810D01*
X11167420Y-7168810D02*
X11137420Y-7198810D01*
X11151640Y-6355370D02*
X11181640Y-6385370D01*
X11181640Y-6355370D02*
X11151640Y-6385370D01*
X11155200Y-7919130D02*
X11185200Y-7949130D01*
X11185200Y-7919130D02*
X11155200Y-7949130D01*
X11159980Y-5939170D02*
X11189980Y-5969170D01*
X11189980Y-5939170D02*
X11159980Y-5969170D01*
X11162370Y-7782130D02*
X11192370Y-7812130D01*
X11192370Y-7782130D02*
X11162370Y-7812130D01*
X11162530Y-7419940D02*
X11192530Y-7449940D01*
X11192530Y-7419940D02*
X11162530Y-7449940D01*
X11171390Y-8300030D02*
X11201390Y-8330030D01*
X11201390Y-8300030D02*
X11171390Y-8330030D01*
X11172570Y-6748620D02*
X11202570Y-6778620D01*
X11202570Y-6748620D02*
X11172570Y-6778620D01*
X11172580Y-7079850D02*
X11202580Y-7109850D01*
X11202580Y-7079850D02*
X11172580Y-7109850D01*
X11185050Y-7540290D02*
X11215050Y-7570290D01*
X11215050Y-7540290D02*
X11185050Y-7570290D01*
X11205410Y-8100950D02*
X11235410Y-8130950D01*
X11235410Y-8100950D02*
X11205410Y-8130950D01*
X11582250Y-5137790D02*
X11612250Y-5167790D01*
X11612250Y-5137790D02*
X11582250Y-5167790D01*
X11599620Y-8910000D02*
X11629620Y-8940000D01*
X11629620Y-8910000D02*
X11599620Y-8940000D01*
X11603250Y-4542240D02*
X11633250Y-4572240D01*
X11633250Y-4542240D02*
X11603250Y-4572240D01*
X11616420Y-5983220D02*
X11646420Y-6013220D01*
X11646420Y-5983220D02*
X11616420Y-6013220D01*
X11616420Y-6270710D02*
X11646420Y-6300710D01*
X11646420Y-6270710D02*
X11616420Y-6300710D01*
X11619580Y-8015500D02*
X11649580Y-8045500D01*
X11649580Y-8015500D02*
X11619580Y-8045500D01*
X11621800Y-7284200D02*
X11651800Y-7314200D01*
X11651800Y-7284200D02*
X11621800Y-7314200D01*
X11627030Y-6917960D02*
X11657030Y-6947960D01*
X11657030Y-6917960D02*
X11627030Y-6947960D01*
X11633390Y-7885500D02*
X11663390Y-7915500D01*
X11663390Y-7885500D02*
X11633390Y-7915500D01*
X11645120Y-8120530D02*
X11675120Y-8150530D01*
X11675120Y-8120530D02*
X11645120Y-8150530D01*
X11648740Y-8404540D02*
X11678740Y-8434540D01*
X11678740Y-8404540D02*
X11648740Y-8434540D01*
X11665010Y-5354330D02*
X11695010Y-5384330D01*
X11695010Y-5354330D02*
X11665010Y-5384330D01*
X11669000Y-8487140D02*
X11699000Y-8517140D01*
X11699000Y-8487140D02*
X11669000Y-8517140D01*
X11743400Y-6231460D02*
X11773400Y-6261460D01*
X11773400Y-6231460D02*
X11743400Y-6261460D01*
X11747280Y-7806200D02*
X11777280Y-7836200D01*
X11777280Y-7806200D02*
X11747280Y-7836200D01*
X11748970Y-7162000D02*
X11778970Y-7192000D01*
X11778970Y-7162000D02*
X11748970Y-7192000D01*
X11750900Y-8243860D02*
X11780900Y-8273860D01*
X11780900Y-8243860D02*
X11750900Y-8273860D01*
X11796040Y-5404860D02*
X11826040Y-5434860D01*
X11826040Y-5404860D02*
X11796040Y-5434860D01*
X11803670Y-7601800D02*
X11833670Y-7631800D01*
X11833670Y-7601800D02*
X11803670Y-7631800D01*
X11807170Y-6487040D02*
X11837170Y-6517040D01*
X11837170Y-6487040D02*
X11807170Y-6517040D01*
X11885490Y-4506140D02*
X11915490Y-4536140D01*
X11915490Y-4506140D02*
X11885490Y-4536140D01*
X11897430Y-6493680D02*
X11927430Y-6523680D01*
X11927430Y-6493680D02*
X11897430Y-6523680D01*
X11957530Y-8969700D02*
X11987530Y-8999700D01*
X11987530Y-8969700D02*
X11957530Y-8999700D01*
X12043990Y-7635030D02*
X12073990Y-7665030D01*
X12073990Y-7635030D02*
X12043990Y-7665030D01*
X12063360Y-6268920D02*
X12093360Y-6298920D01*
X12093360Y-6268920D02*
X12063360Y-6298920D01*
X12086190Y-7099280D02*
X12116190Y-7129280D01*
X12116190Y-7099280D02*
X12086190Y-7129280D01*
X12090620Y-5917580D02*
X12120620Y-5947580D01*
X12120620Y-5917580D02*
X12090620Y-5947580D01*
X12095310Y-4565370D02*
X12125310Y-4595370D01*
X12125310Y-4565370D02*
X12095310Y-4595370D01*
X12095390Y-8273020D02*
X12125390Y-8303020D01*
X12125390Y-8273020D02*
X12095390Y-8303020D01*
X12112110Y-5024590D02*
X12142110Y-5054590D01*
X12142110Y-5024590D02*
X12112110Y-5054590D01*
X12130630Y-6902150D02*
X12160630Y-6932150D01*
X12160630Y-6902150D02*
X12130630Y-6932150D01*
X12163800Y-5535440D02*
X12193800Y-5565440D01*
X12193800Y-5535440D02*
X12163800Y-5565440D01*
X12167210Y-8514180D02*
X12197210Y-8544180D01*
X12197210Y-8514180D02*
X12167210Y-8544180D01*
X12172100Y-5207260D02*
X12202100Y-5237260D01*
X12202100Y-5207260D02*
X12172100Y-5237260D01*
X12177540Y-8140480D02*
X12207540Y-8170480D01*
X12207540Y-8140480D02*
X12177540Y-8170480D01*
X12187710Y-7312690D02*
X12217710Y-7342690D01*
X12217710Y-7312690D02*
X12187710Y-7342690D01*
X12193410Y-7963810D02*
X12223410Y-7993810D01*
X12223410Y-7963810D02*
X12193410Y-7993810D01*
X12195740Y-8957790D02*
X12225740Y-8987790D01*
X12225740Y-8957790D02*
X12195740Y-8987790D01*
X12234770Y-7623940D02*
X12264770Y-7653940D01*
X12264770Y-7623940D02*
X12234770Y-7653940D01*
X12252280Y-5191590D02*
X12282280Y-5221590D01*
X12282280Y-5191590D02*
X12252280Y-5221590D01*
X12274370Y-6171750D02*
X12304370Y-6201750D01*
X12304370Y-6171750D02*
X12274370Y-6201750D01*
X12297600Y-8211010D02*
X12327600Y-8241010D01*
X12327600Y-8211010D02*
X12297600Y-8241010D01*
X12301860Y-5914340D02*
X12331860Y-5944340D01*
X12331860Y-5914340D02*
X12301860Y-5944340D01*
X12322350Y-5069740D02*
X12352350Y-5099740D01*
X12352350Y-5069740D02*
X12322350Y-5099740D01*
X12325980Y-8302270D02*
X12355980Y-8332270D01*
X12355980Y-8302270D02*
X12325980Y-8332270D01*
X12334500Y-6076060D02*
X12364500Y-6106060D01*
X12364500Y-6076060D02*
X12334500Y-6106060D01*
X12335820Y-8119400D02*
X12365820Y-8149400D01*
X12365820Y-8119400D02*
X12335820Y-8149400D01*
X12443550Y-4799050D02*
X12473550Y-4829050D01*
X12473550Y-4799050D02*
X12443550Y-4829050D01*
X12588720Y-6961520D02*
X12618720Y-6991520D01*
X12618720Y-6961520D02*
X12588720Y-6991520D01*
X12613250Y-7208950D02*
X12643250Y-7238950D01*
X12643250Y-7208950D02*
X12613250Y-7238950D01*
X12614850Y-5925430D02*
X12644850Y-5955430D01*
X12644850Y-5925430D02*
X12614850Y-5955430D01*
X12635760Y-6236670D02*
X12665760Y-6266670D01*
X12665760Y-6236670D02*
X12635760Y-6266670D01*
X12637780Y-7537280D02*
X12667780Y-7567280D01*
X12667780Y-7537280D02*
X12637780Y-7567280D01*
X12638090Y-7829170D02*
X12668090Y-7859170D01*
X12668090Y-7829170D02*
X12638090Y-7859170D01*
X12696680Y-6907680D02*
X12726680Y-6937680D01*
X12726680Y-6907680D02*
X12696680Y-6937680D01*
X12713070Y-5310500D02*
X12743070Y-5340500D01*
X12743070Y-5310500D02*
X12713070Y-5340500D01*
X12723530Y-7311590D02*
X12753530Y-7341590D01*
X12753530Y-7311590D02*
X12723530Y-7341590D01*
X12743690Y-7189390D02*
X12773690Y-7219390D01*
X12773690Y-7189390D02*
X12743690Y-7219390D01*
X12749110Y-7044870D02*
X12779110Y-7074870D01*
X12779110Y-7044870D02*
X12749110Y-7074870D01*
X12754850Y-8345740D02*
X12784850Y-8375740D01*
X12784850Y-8345740D02*
X12754850Y-8375740D01*
X12761020Y-6016000D02*
X12791020Y-6046000D01*
X12791020Y-6016000D02*
X12761020Y-6046000D01*
X12780220Y-5242160D02*
X12810220Y-5272160D01*
X12810220Y-5242160D02*
X12780220Y-5272160D01*
X12781550Y-8064750D02*
X12811550Y-8094750D01*
X12811550Y-8064750D02*
X12781550Y-8094750D01*
X12792400Y-8568650D02*
X12822400Y-8598650D01*
X12822400Y-8568650D02*
X12792400Y-8598650D01*
X13010710Y-5828590D02*
X13040710Y-5858590D01*
X13040710Y-5828590D02*
X13010710Y-5858590D01*
X13033230Y-5053490D02*
X13063230Y-5083490D01*
X13063230Y-5053490D02*
X13033230Y-5083490D01*
X13074330Y-6254070D02*
X13104330Y-6284070D01*
X13104330Y-6254070D02*
X13074330Y-6284070D01*
X13115620Y-5428630D02*
X13145620Y-5458630D01*
X13145620Y-5428630D02*
X13115620Y-5458630D01*
X13269370Y-6854390D02*
X13299370Y-6884390D01*
X13299370Y-6854390D02*
X13269370Y-6884390D01*
X13291530Y-5790180D02*
X13321530Y-5820180D01*
X13321530Y-5790180D02*
X13291530Y-5820180D01*
X13580760Y-8886120D02*
X13610760Y-8916120D01*
X13610760Y-8886120D02*
X13580760Y-8916120D01*
X13609570Y-8184300D02*
X13639570Y-8214300D01*
X13639570Y-8184300D02*
X13609570Y-8214300D01*
X13618580Y-6164440D02*
X13648580Y-6194440D01*
X13648580Y-6164440D02*
X13618580Y-6194440D01*
X13645570Y-5116280D02*
X13675570Y-5146280D01*
X13675570Y-5116280D02*
X13645570Y-5146280D01*
X13677160Y-7064240D02*
X13707160Y-7094240D01*
X13707160Y-7064240D02*
X13677160Y-7094240D01*
X13870020Y-7779740D02*
X13900020Y-7809740D01*
X13900020Y-7779740D02*
X13870020Y-7809740D01*
X13914000Y-4729040D02*
X13944000Y-4759040D01*
X13944000Y-4729040D02*
X13914000Y-4759040D01*
X13948820Y-4938000D02*
X13978820Y-4968000D01*
X13978820Y-4938000D02*
X13948820Y-4968000D01*
X13948820Y-5868120D02*
X13978820Y-5898120D01*
X13978820Y-5868120D02*
X13948820Y-5898120D01*
X13950250Y-6849190D02*
X13980250Y-6879190D01*
X13980250Y-6849190D02*
X13950250Y-6879190D01*
X13987430Y-6448800D02*
X14017430Y-6478800D01*
X14017430Y-6448800D02*
X13987430Y-6478800D01*
X14220440Y-4878330D02*
X14250440Y-4908330D01*
X14250440Y-4878330D02*
X14220440Y-4908330D01*
X14220440Y-6055580D02*
X14250440Y-6085580D01*
X14250440Y-6055580D02*
X14220440Y-6085580D01*
X14580660Y-6609540D02*
X14610660Y-6639540D01*
X14610660Y-6609540D02*
X14580660Y-6639540D01*
X14737680Y-4278620D02*
X14767680Y-4308620D01*
X14767680Y-4278620D02*
X14737680Y-4308620D01*
X14737680Y-9434620D02*
X14767680Y-9464620D01*
X14767680Y-9434620D02*
X14737680Y-9464620D01*
X8495500Y-4889500D02*
G75*
G02*
X8395500Y-4889500I-50000J0D01*
G01*
X8395500Y-4889500D02*
G75*
G02*
X8495500Y-4889500I50000J0D01*
G01*
X8495500Y-5143500D02*
G75*
G02*
X8395500Y-5143500I-50000J0D01*
G01*
X8395500Y-5143500D02*
G75*
G02*
X8495500Y-5143500I50000J0D01*
G01*
X8495500Y-5397500D02*
G75*
G02*
X8395500Y-5397500I-50000J0D01*
G01*
X8395500Y-5397500D02*
G75*
G02*
X8495500Y-5397500I50000J0D01*
G01*
X8495500Y-5651500D02*
G75*
G02*
X8395500Y-5651500I-50000J0D01*
G01*
X8395500Y-5651500D02*
G75*
G02*
X8495500Y-5651500I50000J0D01*
G01*
X8495500Y-5905500D02*
G75*
G02*
X8395500Y-5905500I-50000J0D01*
G01*
X8395500Y-5905500D02*
G75*
G02*
X8495500Y-5905500I50000J0D01*
G01*
X8495500Y-6159500D02*
G75*
G02*
X8395500Y-6159500I-50000J0D01*
G01*
X8395500Y-6159500D02*
G75*
G02*
X8495500Y-6159500I50000J0D01*
G01*
X8495500Y-6413500D02*
G75*
G02*
X8395500Y-6413500I-50000J0D01*
G01*
X8395500Y-6413500D02*
G75*
G02*
X8495500Y-6413500I50000J0D01*
G01*
X8495500Y-6667500D02*
G75*
G02*
X8395500Y-6667500I-50000J0D01*
G01*
X8395500Y-6667500D02*
G75*
G02*
X8495500Y-6667500I50000J0D01*
G01*
X8495500Y-6921500D02*
G75*
G02*
X8395500Y-6921500I-50000J0D01*
G01*
X8395500Y-6921500D02*
G75*
G02*
X8495500Y-6921500I50000J0D01*
G01*
X8495500Y-7175500D02*
G75*
G02*
X8395500Y-7175500I-50000J0D01*
G01*
X8395500Y-7175500D02*
G75*
G02*
X8495500Y-7175500I50000J0D01*
G01*
X8495500Y-7429500D02*
G75*
G02*
X8395500Y-7429500I-50000J0D01*
G01*
X8395500Y-7429500D02*
G75*
G02*
X8495500Y-7429500I50000J0D01*
G01*
X8495500Y-7683500D02*
G75*
G02*
X8395500Y-7683500I-50000J0D01*
G01*
X8395500Y-7683500D02*
G75*
G02*
X8495500Y-7683500I50000J0D01*
G01*
X8495500Y-7937500D02*
G75*
G02*
X8395500Y-7937500I-50000J0D01*
G01*
X8395500Y-7937500D02*
G75*
G02*
X8495500Y-7937500I50000J0D01*
G01*
X8495500Y-8191500D02*
G75*
G02*
X8395500Y-8191500I-50000J0D01*
G01*
X8395500Y-8191500D02*
G75*
G02*
X8495500Y-8191500I50000J0D01*
G01*
X8495500Y-8445500D02*
G75*
G02*
X8395500Y-8445500I-50000J0D01*
G01*
X8395500Y-8445500D02*
G75*
G02*
X8495500Y-8445500I50000J0D01*
G01*
X8495500Y-8699500D02*
G75*
G02*
X8395500Y-8699500I-50000J0D01*
G01*
X8395500Y-8699500D02*
G75*
G02*
X8495500Y-8699500I50000J0D01*
G01*
X8495500Y-8953500D02*
G75*
G02*
X8395500Y-8953500I-50000J0D01*
G01*
X8395500Y-8953500D02*
G75*
G02*
X8495500Y-8953500I50000J0D01*
G01*
X8749500Y-4889500D02*
G75*
G02*
X8649500Y-4889500I-50000J0D01*
G01*
X8649500Y-4889500D02*
G75*
G02*
X8749500Y-4889500I50000J0D01*
G01*
X8749500Y-5143500D02*
G75*
G02*
X8649500Y-5143500I-50000J0D01*
G01*
X8649500Y-5143500D02*
G75*
G02*
X8749500Y-5143500I50000J0D01*
G01*
X8749500Y-5397500D02*
G75*
G02*
X8649500Y-5397500I-50000J0D01*
G01*
X8649500Y-5397500D02*
G75*
G02*
X8749500Y-5397500I50000J0D01*
G01*
X8749500Y-5651500D02*
G75*
G02*
X8649500Y-5651500I-50000J0D01*
G01*
X8649500Y-5651500D02*
G75*
G02*
X8749500Y-5651500I50000J0D01*
G01*
X8749500Y-5905500D02*
G75*
G02*
X8649500Y-5905500I-50000J0D01*
G01*
X8649500Y-5905500D02*
G75*
G02*
X8749500Y-5905500I50000J0D01*
G01*
X8749500Y-6159500D02*
G75*
G02*
X8649500Y-6159500I-50000J0D01*
G01*
X8649500Y-6159500D02*
G75*
G02*
X8749500Y-6159500I50000J0D01*
G01*
X8749500Y-6413500D02*
G75*
G02*
X8649500Y-6413500I-50000J0D01*
G01*
X8649500Y-6413500D02*
G75*
G02*
X8749500Y-6413500I50000J0D01*
G01*
X8749500Y-6667500D02*
G75*
G02*
X8649500Y-6667500I-50000J0D01*
G01*
X8649500Y-6667500D02*
G75*
G02*
X8749500Y-6667500I50000J0D01*
G01*
X8749500Y-6921500D02*
G75*
G02*
X8649500Y-6921500I-50000J0D01*
G01*
X8649500Y-6921500D02*
G75*
G02*
X8749500Y-6921500I50000J0D01*
G01*
X8749500Y-7175500D02*
G75*
G02*
X8649500Y-7175500I-50000J0D01*
G01*
X8649500Y-7175500D02*
G75*
G02*
X8749500Y-7175500I50000J0D01*
G01*
X8749500Y-7429500D02*
G75*
G02*
X8649500Y-7429500I-50000J0D01*
G01*
X8649500Y-7429500D02*
G75*
G02*
X8749500Y-7429500I50000J0D01*
G01*
X8749500Y-7683500D02*
G75*
G02*
X8649500Y-7683500I-50000J0D01*
G01*
X8649500Y-7683500D02*
G75*
G02*
X8749500Y-7683500I50000J0D01*
G01*
X8749500Y-7937500D02*
G75*
G02*
X8649500Y-7937500I-50000J0D01*
G01*
X8649500Y-7937500D02*
G75*
G02*
X8749500Y-7937500I50000J0D01*
G01*
X8749500Y-8191500D02*
G75*
G02*
X8649500Y-8191500I-50000J0D01*
G01*
X8649500Y-8191500D02*
G75*
G02*
X8749500Y-8191500I50000J0D01*
G01*
X8749500Y-8445500D02*
G75*
G02*
X8649500Y-8445500I-50000J0D01*
G01*
X8649500Y-8445500D02*
G75*
G02*
X8749500Y-8445500I50000J0D01*
G01*
X8749500Y-8699500D02*
G75*
G02*
X8649500Y-8699500I-50000J0D01*
G01*
X8649500Y-8699500D02*
G75*
G02*
X8749500Y-8699500I50000J0D01*
G01*
X8749500Y-8953500D02*
G75*
G02*
X8649500Y-8953500I-50000J0D01*
G01*
X8649500Y-8953500D02*
G75*
G02*
X8749500Y-8953500I50000J0D01*
G01*
X10845000Y-4064500D02*
G75*
G02*
X10745000Y-4064500I-50000J0D01*
G01*
X10745000Y-4064500D02*
G75*
G02*
X10845000Y-4064500I50000J0D01*
G01*
X10845000Y-4318500D02*
G75*
G02*
X10745000Y-4318500I-50000J0D01*
G01*
X10745000Y-4318500D02*
G75*
G02*
X10845000Y-4318500I50000J0D01*
G01*
X10845000Y-9144500D02*
G75*
G02*
X10745000Y-9144500I-50000J0D01*
G01*
X10745000Y-9144500D02*
G75*
G02*
X10845000Y-9144500I50000J0D01*
G01*
X10845000Y-9398500D02*
G75*
G02*
X10745000Y-9398500I-50000J0D01*
G01*
X10745000Y-9398500D02*
G75*
G02*
X10845000Y-9398500I50000J0D01*
G01*
X11099000Y-4064500D02*
G75*
G02*
X10999000Y-4064500I-50000J0D01*
G01*
X10999000Y-4064500D02*
G75*
G02*
X11099000Y-4064500I50000J0D01*
G01*
X11099000Y-4318500D02*
G75*
G02*
X10999000Y-4318500I-50000J0D01*
G01*
X10999000Y-4318500D02*
G75*
G02*
X11099000Y-4318500I50000J0D01*
G01*
X11099000Y-9144500D02*
G75*
G02*
X10999000Y-9144500I-50000J0D01*
G01*
X10999000Y-9144500D02*
G75*
G02*
X11099000Y-9144500I50000J0D01*
G01*
X11099000Y-9398500D02*
G75*
G02*
X10999000Y-9398500I-50000J0D01*
G01*
X10999000Y-9398500D02*
G75*
G02*
X11099000Y-9398500I50000J0D01*
G01*
X11353000Y-4064500D02*
G75*
G02*
X11253000Y-4064500I-50000J0D01*
G01*
X11253000Y-4064500D02*
G75*
G02*
X11353000Y-4064500I50000J0D01*
G01*
X11353000Y-4318500D02*
G75*
G02*
X11253000Y-4318500I-50000J0D01*
G01*
X11253000Y-4318500D02*
G75*
G02*
X11353000Y-4318500I50000J0D01*
G01*
X11353000Y-9144500D02*
G75*
G02*
X11253000Y-9144500I-50000J0D01*
G01*
X11253000Y-9144500D02*
G75*
G02*
X11353000Y-9144500I50000J0D01*
G01*
X11353000Y-9398500D02*
G75*
G02*
X11253000Y-9398500I-50000J0D01*
G01*
X11253000Y-9398500D02*
G75*
G02*
X11353000Y-9398500I50000J0D01*
G01*
X11607000Y-4064500D02*
G75*
G02*
X11507000Y-4064500I-50000J0D01*
G01*
X11507000Y-4064500D02*
G75*
G02*
X11607000Y-4064500I50000J0D01*
G01*
X11607000Y-4318500D02*
G75*
G02*
X11507000Y-4318500I-50000J0D01*
G01*
X11507000Y-4318500D02*
G75*
G02*
X11607000Y-4318500I50000J0D01*
G01*
X11607000Y-9144500D02*
G75*
G02*
X11507000Y-9144500I-50000J0D01*
G01*
X11507000Y-9144500D02*
G75*
G02*
X11607000Y-9144500I50000J0D01*
G01*
X11607000Y-9398500D02*
G75*
G02*
X11507000Y-9398500I-50000J0D01*
G01*
X11507000Y-9398500D02*
G75*
G02*
X11607000Y-9398500I50000J0D01*
G01*
X11861000Y-4064500D02*
G75*
G02*
X11761000Y-4064500I-50000J0D01*
G01*
X11761000Y-4064500D02*
G75*
G02*
X11861000Y-4064500I50000J0D01*
G01*
X11861000Y-4318500D02*
G75*
G02*
X11761000Y-4318500I-50000J0D01*
G01*
X11761000Y-4318500D02*
G75*
G02*
X11861000Y-4318500I50000J0D01*
G01*
X11861000Y-9144500D02*
G75*
G02*
X11761000Y-9144500I-50000J0D01*
G01*
X11761000Y-9144500D02*
G75*
G02*
X11861000Y-9144500I50000J0D01*
G01*
X11861000Y-9398500D02*
G75*
G02*
X11761000Y-9398500I-50000J0D01*
G01*
X11761000Y-9398500D02*
G75*
G02*
X11861000Y-9398500I50000J0D01*
G01*
X12115000Y-4064500D02*
G75*
G02*
X12015000Y-4064500I-50000J0D01*
G01*
X12015000Y-4064500D02*
G75*
G02*
X12115000Y-4064500I50000J0D01*
G01*
X12115000Y-4318500D02*
G75*
G02*
X12015000Y-4318500I-50000J0D01*
G01*
X12015000Y-4318500D02*
G75*
G02*
X12115000Y-4318500I50000J0D01*
G01*
X12115000Y-9144500D02*
G75*
G02*
X12015000Y-9144500I-50000J0D01*
G01*
X12015000Y-9144500D02*
G75*
G02*
X12115000Y-9144500I50000J0D01*
G01*
X12115000Y-9398500D02*
G75*
G02*
X12015000Y-9398500I-50000J0D01*
G01*
X12015000Y-9398500D02*
G75*
G02*
X12115000Y-9398500I50000J0D01*
G01*
X12369000Y-4064500D02*
G75*
G02*
X12269000Y-4064500I-50000J0D01*
G01*
X12269000Y-4064500D02*
G75*
G02*
X12369000Y-4064500I50000J0D01*
G01*
X12369000Y-4318500D02*
G75*
G02*
X12269000Y-4318500I-50000J0D01*
G01*
X12269000Y-4318500D02*
G75*
G02*
X12369000Y-4318500I50000J0D01*
G01*
X12369000Y-9144500D02*
G75*
G02*
X12269000Y-9144500I-50000J0D01*
G01*
X12269000Y-9144500D02*
G75*
G02*
X12369000Y-9144500I50000J0D01*
G01*
X12369000Y-9398500D02*
G75*
G02*
X12269000Y-9398500I-50000J0D01*
G01*
X12269000Y-9398500D02*
G75*
G02*
X12369000Y-9398500I50000J0D01*
G01*
X12623000Y-4064500D02*
G75*
G02*
X12523000Y-4064500I-50000J0D01*
G01*
X12523000Y-4064500D02*
G75*
G02*
X12623000Y-4064500I50000J0D01*
G01*
X12623000Y-4318500D02*
G75*
G02*
X12523000Y-4318500I-50000J0D01*
G01*
X12523000Y-4318500D02*
G75*
G02*
X12623000Y-4318500I50000J0D01*
G01*
X12623000Y-9144500D02*
G75*
G02*
X12523000Y-9144500I-50000J0D01*
G01*
X12523000Y-9144500D02*
G75*
G02*
X12623000Y-9144500I50000J0D01*
G01*
X12623000Y-9398500D02*
G75*
G02*
X12523000Y-9398500I-50000J0D01*
G01*
X12523000Y-9398500D02*
G75*
G02*
X12623000Y-9398500I50000J0D01*
G01*
X14782000Y-4889500D02*
G75*
G02*
X14682000Y-4889500I-50000J0D01*
G01*
X14682000Y-4889500D02*
G75*
G02*
X14782000Y-4889500I50000J0D01*
G01*
X14782000Y-5143500D02*
G75*
G02*
X14682000Y-5143500I-50000J0D01*
G01*
X14682000Y-5143500D02*
G75*
G02*
X14782000Y-5143500I50000J0D01*
G01*
X14782000Y-5397500D02*
G75*
G02*
X14682000Y-5397500I-50000J0D01*
G01*
X14682000Y-5397500D02*
G75*
G02*
X14782000Y-5397500I50000J0D01*
G01*
X14782000Y-5651500D02*
G75*
G02*
X14682000Y-5651500I-50000J0D01*
G01*
X14682000Y-5651500D02*
G75*
G02*
X14782000Y-5651500I50000J0D01*
G01*
X14782000Y-5905500D02*
G75*
G02*
X14682000Y-5905500I-50000J0D01*
G01*
X14682000Y-5905500D02*
G75*
G02*
X14782000Y-5905500I50000J0D01*
G01*
X14782000Y-6159500D02*
G75*
G02*
X14682000Y-6159500I-50000J0D01*
G01*
X14682000Y-6159500D02*
G75*
G02*
X14782000Y-6159500I50000J0D01*
G01*
X14782000Y-6413500D02*
G75*
G02*
X14682000Y-6413500I-50000J0D01*
G01*
X14682000Y-6413500D02*
G75*
G02*
X14782000Y-6413500I50000J0D01*
G01*
X14782000Y-6667500D02*
G75*
G02*
X14682000Y-6667500I-50000J0D01*
G01*
X14682000Y-6667500D02*
G75*
G02*
X14782000Y-6667500I50000J0D01*
G01*
X14782000Y-6921500D02*
G75*
G02*
X14682000Y-6921500I-50000J0D01*
G01*
X14682000Y-6921500D02*
G75*
G02*
X14782000Y-6921500I50000J0D01*
G01*
X14782000Y-7175500D02*
G75*
G02*
X14682000Y-7175500I-50000J0D01*
G01*
X14682000Y-7175500D02*
G75*
G02*
X14782000Y-7175500I50000J0D01*
G01*
X14782000Y-7429500D02*
G75*
G02*
X14682000Y-7429500I-50000J0D01*
G01*
X14682000Y-7429500D02*
G75*
G02*
X14782000Y-7429500I50000J0D01*
G01*
X14782000Y-7683500D02*
G75*
G02*
X14682000Y-7683500I-50000J0D01*
G01*
X14682000Y-7683500D02*
G75*
G02*
X14782000Y-7683500I50000J0D01*
G01*
X14782000Y-7937500D02*
G75*
G02*
X14682000Y-7937500I-50000J0D01*
G01*
X14682000Y-7937500D02*
G75*
G02*
X14782000Y-7937500I50000J0D01*
G01*
X14782000Y-8191500D02*
G75*
G02*
X14682000Y-8191500I-50000J0D01*
G01*
X14682000Y-8191500D02*
G75*
G02*
X14782000Y-8191500I50000J0D01*
G01*
X14782000Y-8445500D02*
G75*
G02*
X14682000Y-8445500I-50000J0D01*
G01*
X14682000Y-8445500D02*
G75*
G02*
X14782000Y-8445500I50000J0D01*
G01*
X14782000Y-8699500D02*
G75*
G02*
X14682000Y-8699500I-50000J0D01*
G01*
X14682000Y-8699500D02*
G75*
G02*
X14782000Y-8699500I50000J0D01*
G01*
X14782000Y-8953500D02*
G75*
G02*
X14682000Y-8953500I-50000J0D01*
G01*
X14682000Y-8953500D02*
G75*
G02*
X14782000Y-8953500I50000J0D01*
G01*
X15036000Y-4889500D02*
G75*
G02*
X14936000Y-4889500I-50000J0D01*
G01*
X14936000Y-4889500D02*
G75*
G02*
X15036000Y-4889500I50000J0D01*
G01*
X15036000Y-5143500D02*
G75*
G02*
X14936000Y-5143500I-50000J0D01*
G01*
X14936000Y-5143500D02*
G75*
G02*
X15036000Y-5143500I50000J0D01*
G01*
X15036000Y-5397500D02*
G75*
G02*
X14936000Y-5397500I-50000J0D01*
G01*
X14936000Y-5397500D02*
G75*
G02*
X15036000Y-5397500I50000J0D01*
G01*
X15036000Y-5651500D02*
G75*
G02*
X14936000Y-5651500I-50000J0D01*
G01*
X14936000Y-5651500D02*
G75*
G02*
X15036000Y-5651500I50000J0D01*
G01*
X15036000Y-5905500D02*
G75*
G02*
X14936000Y-5905500I-50000J0D01*
G01*
X14936000Y-5905500D02*
G75*
G02*
X15036000Y-5905500I50000J0D01*
G01*
X15036000Y-6159500D02*
G75*
G02*
X14936000Y-6159500I-50000J0D01*
G01*
X14936000Y-6159500D02*
G75*
G02*
X15036000Y-6159500I50000J0D01*
G01*
X15036000Y-6413500D02*
G75*
G02*
X14936000Y-6413500I-50000J0D01*
G01*
X14936000Y-6413500D02*
G75*
G02*
X15036000Y-6413500I50000J0D01*
G01*
X15036000Y-6667500D02*
G75*
G02*
X14936000Y-6667500I-50000J0D01*
G01*
X14936000Y-6667500D02*
G75*
G02*
X15036000Y-6667500I50000J0D01*
G01*
X15036000Y-6921500D02*
G75*
G02*
X14936000Y-6921500I-50000J0D01*
G01*
X14936000Y-6921500D02*
G75*
G02*
X15036000Y-6921500I50000J0D01*
G01*
X15036000Y-7175500D02*
G75*
G02*
X14936000Y-7175500I-50000J0D01*
G01*
X14936000Y-7175500D02*
G75*
G02*
X15036000Y-7175500I50000J0D01*
G01*
X15036000Y-7429500D02*
G75*
G02*
X14936000Y-7429500I-50000J0D01*
G01*
X14936000Y-7429500D02*
G75*
G02*
X15036000Y-7429500I50000J0D01*
G01*
X15036000Y-7683500D02*
G75*
G02*
X14936000Y-7683500I-50000J0D01*
G01*
X14936000Y-7683500D02*
G75*
G02*
X15036000Y-7683500I50000J0D01*
G01*
X15036000Y-7937500D02*
G75*
G02*
X14936000Y-7937500I-50000J0D01*
G01*
X14936000Y-7937500D02*
G75*
G02*
X15036000Y-7937500I50000J0D01*
G01*
X15036000Y-8191500D02*
G75*
G02*
X14936000Y-8191500I-50000J0D01*
G01*
X14936000Y-8191500D02*
G75*
G02*
X15036000Y-8191500I50000J0D01*
G01*
X15036000Y-8445500D02*
G75*
G02*
X14936000Y-8445500I-50000J0D01*
G01*
X14936000Y-8445500D02*
G75*
G02*
X15036000Y-8445500I50000J0D01*
G01*
X15036000Y-8699500D02*
G75*
G02*
X14936000Y-8699500I-50000J0D01*
G01*
X14936000Y-8699500D02*
G75*
G02*
X15036000Y-8699500I50000J0D01*
G01*
X15036000Y-8953500D02*
G75*
G02*
X14936000Y-8953500I-50000J0D01*
G01*
X14936000Y-8953500D02*
G75*
G02*
X15036000Y-8953500I50000J0D01*
G01*
D11*
X8513277Y-9902484D02*
X8513277Y-9702484D01*
X8513277Y-9702484D02*
X8560896Y-9702484D01*
X8560896Y-9702484D02*
X8589467Y-9712008D01*
X8589467Y-9712008D02*
X8608515Y-9731055D01*
X8608515Y-9731055D02*
X8618039Y-9750103D01*
X8618039Y-9750103D02*
X8627563Y-9788198D01*
X8627563Y-9788198D02*
X8627563Y-9816770D01*
X8627563Y-9816770D02*
X8618039Y-9854865D01*
X8618039Y-9854865D02*
X8608515Y-9873912D01*
X8608515Y-9873912D02*
X8589467Y-9892960D01*
X8589467Y-9892960D02*
X8560896Y-9902484D01*
X8560896Y-9902484D02*
X8513277Y-9902484D01*
X8713277Y-9902484D02*
X8713277Y-9769150D01*
X8713277Y-9807246D02*
X8722801Y-9788198D01*
X8722801Y-9788198D02*
X8732324Y-9778674D01*
X8732324Y-9778674D02*
X8751372Y-9769150D01*
X8751372Y-9769150D02*
X8770420Y-9769150D01*
X8837086Y-9902484D02*
X8837086Y-9769150D01*
X8837086Y-9702484D02*
X8827563Y-9712008D01*
X8827563Y-9712008D02*
X8837086Y-9721531D01*
X8837086Y-9721531D02*
X8846610Y-9712008D01*
X8846610Y-9712008D02*
X8837086Y-9702484D01*
X8837086Y-9702484D02*
X8837086Y-9721531D01*
X8960896Y-9902484D02*
X8941848Y-9892960D01*
X8941848Y-9892960D02*
X8932324Y-9873912D01*
X8932324Y-9873912D02*
X8932324Y-9702484D01*
X9065658Y-9902484D02*
X9046610Y-9892960D01*
X9046610Y-9892960D02*
X9037086Y-9873912D01*
X9037086Y-9873912D02*
X9037086Y-9702484D01*
X9294229Y-9902484D02*
X9294229Y-9702484D01*
X9294229Y-9702484D02*
X9360896Y-9845341D01*
X9360896Y-9845341D02*
X9427563Y-9702484D01*
X9427563Y-9702484D02*
X9427563Y-9902484D01*
X9608515Y-9902484D02*
X9608515Y-9797722D01*
X9608515Y-9797722D02*
X9598991Y-9778674D01*
X9598991Y-9778674D02*
X9579944Y-9769150D01*
X9579944Y-9769150D02*
X9541848Y-9769150D01*
X9541848Y-9769150D02*
X9522801Y-9778674D01*
X9608515Y-9892960D02*
X9589467Y-9902484D01*
X9589467Y-9902484D02*
X9541848Y-9902484D01*
X9541848Y-9902484D02*
X9522801Y-9892960D01*
X9522801Y-9892960D02*
X9513277Y-9873912D01*
X9513277Y-9873912D02*
X9513277Y-9854865D01*
X9513277Y-9854865D02*
X9522801Y-9835817D01*
X9522801Y-9835817D02*
X9541848Y-9826293D01*
X9541848Y-9826293D02*
X9589467Y-9826293D01*
X9589467Y-9826293D02*
X9608515Y-9816770D01*
X9703753Y-9769150D02*
X9703753Y-9969150D01*
X9703753Y-9778674D02*
X9722801Y-9769150D01*
X9722801Y-9769150D02*
X9760896Y-9769150D01*
X9760896Y-9769150D02*
X9779944Y-9778674D01*
X9779944Y-9778674D02*
X9789467Y-9788198D01*
X9789467Y-9788198D02*
X9798991Y-9807246D01*
X9798991Y-9807246D02*
X9798991Y-9864389D01*
X9798991Y-9864389D02*
X9789467Y-9883436D01*
X9789467Y-9883436D02*
X9779944Y-9892960D01*
X9779944Y-9892960D02*
X9760896Y-9902484D01*
X9760896Y-9902484D02*
X9722801Y-9902484D01*
X9722801Y-9902484D02*
X9703753Y-9892960D01*
X9884705Y-9883436D02*
X9894229Y-9892960D01*
X9894229Y-9892960D02*
X9884705Y-9902484D01*
X9884705Y-9902484D02*
X9875182Y-9892960D01*
X9875182Y-9892960D02*
X9884705Y-9883436D01*
X9884705Y-9883436D02*
X9884705Y-9902484D01*
X9884705Y-9778674D02*
X9894229Y-9788198D01*
X9894229Y-9788198D02*
X9884705Y-9797722D01*
X9884705Y-9797722D02*
X9875182Y-9788198D01*
X9875182Y-9788198D02*
X9884705Y-9778674D01*
X9884705Y-9778674D02*
X9884705Y-9797722D01*
D12*
X8222500Y-10216000D02*
X8252500Y-10246000D01*
X8252500Y-10216000D02*
X8222500Y-10246000D01*
D11*
X8551372Y-10122484D02*
X8570420Y-10122484D01*
X8570420Y-10122484D02*
X8589467Y-10132008D01*
X8589467Y-10132008D02*
X8598991Y-10141531D01*
X8598991Y-10141531D02*
X8608515Y-10160579D01*
X8608515Y-10160579D02*
X8618039Y-10198674D01*
X8618039Y-10198674D02*
X8618039Y-10246293D01*
X8618039Y-10246293D02*
X8608515Y-10284389D01*
X8608515Y-10284389D02*
X8598991Y-10303436D01*
X8598991Y-10303436D02*
X8589467Y-10312960D01*
X8589467Y-10312960D02*
X8570420Y-10322484D01*
X8570420Y-10322484D02*
X8551372Y-10322484D01*
X8551372Y-10322484D02*
X8532324Y-10312960D01*
X8532324Y-10312960D02*
X8522801Y-10303436D01*
X8522801Y-10303436D02*
X8513277Y-10284389D01*
X8513277Y-10284389D02*
X8503753Y-10246293D01*
X8503753Y-10246293D02*
X8503753Y-10198674D01*
X8503753Y-10198674D02*
X8513277Y-10160579D01*
X8513277Y-10160579D02*
X8522801Y-10141531D01*
X8522801Y-10141531D02*
X8532324Y-10132008D01*
X8532324Y-10132008D02*
X8551372Y-10122484D01*
X8703753Y-10303436D02*
X8713277Y-10312960D01*
X8713277Y-10312960D02*
X8703753Y-10322484D01*
X8703753Y-10322484D02*
X8694229Y-10312960D01*
X8694229Y-10312960D02*
X8703753Y-10303436D01*
X8703753Y-10303436D02*
X8703753Y-10322484D01*
X8779944Y-10122484D02*
X8903753Y-10122484D01*
X8903753Y-10122484D02*
X8837086Y-10198674D01*
X8837086Y-10198674D02*
X8865658Y-10198674D01*
X8865658Y-10198674D02*
X8884705Y-10208198D01*
X8884705Y-10208198D02*
X8894229Y-10217722D01*
X8894229Y-10217722D02*
X8903753Y-10236770D01*
X8903753Y-10236770D02*
X8903753Y-10284389D01*
X8903753Y-10284389D02*
X8894229Y-10303436D01*
X8894229Y-10303436D02*
X8884705Y-10312960D01*
X8884705Y-10312960D02*
X8865658Y-10322484D01*
X8865658Y-10322484D02*
X8808515Y-10322484D01*
X8808515Y-10322484D02*
X8789467Y-10312960D01*
X8789467Y-10312960D02*
X8779944Y-10303436D01*
X9027563Y-10122484D02*
X9046610Y-10122484D01*
X9046610Y-10122484D02*
X9065658Y-10132008D01*
X9065658Y-10132008D02*
X9075182Y-10141531D01*
X9075182Y-10141531D02*
X9084705Y-10160579D01*
X9084705Y-10160579D02*
X9094229Y-10198674D01*
X9094229Y-10198674D02*
X9094229Y-10246293D01*
X9094229Y-10246293D02*
X9084705Y-10284389D01*
X9084705Y-10284389D02*
X9075182Y-10303436D01*
X9075182Y-10303436D02*
X9065658Y-10312960D01*
X9065658Y-10312960D02*
X9046610Y-10322484D01*
X9046610Y-10322484D02*
X9027563Y-10322484D01*
X9027563Y-10322484D02*
X9008515Y-10312960D01*
X9008515Y-10312960D02*
X8998991Y-10303436D01*
X8998991Y-10303436D02*
X8989467Y-10284389D01*
X8989467Y-10284389D02*
X8979944Y-10246293D01*
X8979944Y-10246293D02*
X8979944Y-10198674D01*
X8979944Y-10198674D02*
X8989467Y-10160579D01*
X8989467Y-10160579D02*
X8998991Y-10141531D01*
X8998991Y-10141531D02*
X9008515Y-10132008D01*
X9008515Y-10132008D02*
X9027563Y-10122484D01*
X9218039Y-10122484D02*
X9237086Y-10122484D01*
X9237086Y-10122484D02*
X9256134Y-10132008D01*
X9256134Y-10132008D02*
X9265658Y-10141531D01*
X9265658Y-10141531D02*
X9275182Y-10160579D01*
X9275182Y-10160579D02*
X9284705Y-10198674D01*
X9284705Y-10198674D02*
X9284705Y-10246293D01*
X9284705Y-10246293D02*
X9275182Y-10284389D01*
X9275182Y-10284389D02*
X9265658Y-10303436D01*
X9265658Y-10303436D02*
X9256134Y-10312960D01*
X9256134Y-10312960D02*
X9237086Y-10322484D01*
X9237086Y-10322484D02*
X9218039Y-10322484D01*
X9218039Y-10322484D02*
X9198991Y-10312960D01*
X9198991Y-10312960D02*
X9189467Y-10303436D01*
X9189467Y-10303436D02*
X9179944Y-10284389D01*
X9179944Y-10284389D02*
X9170420Y-10246293D01*
X9170420Y-10246293D02*
X9170420Y-10198674D01*
X9170420Y-10198674D02*
X9179944Y-10160579D01*
X9179944Y-10160579D02*
X9189467Y-10141531D01*
X9189467Y-10141531D02*
X9198991Y-10132008D01*
X9198991Y-10132008D02*
X9218039Y-10122484D01*
X9370420Y-10322484D02*
X9370420Y-10189150D01*
X9370420Y-10208198D02*
X9379944Y-10198674D01*
X9379944Y-10198674D02*
X9398991Y-10189150D01*
X9398991Y-10189150D02*
X9427563Y-10189150D01*
X9427563Y-10189150D02*
X9446610Y-10198674D01*
X9446610Y-10198674D02*
X9456134Y-10217722D01*
X9456134Y-10217722D02*
X9456134Y-10322484D01*
X9456134Y-10217722D02*
X9465658Y-10198674D01*
X9465658Y-10198674D02*
X9484705Y-10189150D01*
X9484705Y-10189150D02*
X9513277Y-10189150D01*
X9513277Y-10189150D02*
X9532325Y-10198674D01*
X9532325Y-10198674D02*
X9541848Y-10217722D01*
X9541848Y-10217722D02*
X9541848Y-10322484D01*
X9637086Y-10322484D02*
X9637086Y-10189150D01*
X9637086Y-10208198D02*
X9646610Y-10198674D01*
X9646610Y-10198674D02*
X9665658Y-10189150D01*
X9665658Y-10189150D02*
X9694229Y-10189150D01*
X9694229Y-10189150D02*
X9713277Y-10198674D01*
X9713277Y-10198674D02*
X9722801Y-10217722D01*
X9722801Y-10217722D02*
X9722801Y-10322484D01*
X9722801Y-10217722D02*
X9732325Y-10198674D01*
X9732325Y-10198674D02*
X9751372Y-10189150D01*
X9751372Y-10189150D02*
X9779944Y-10189150D01*
X9779944Y-10189150D02*
X9798991Y-10198674D01*
X9798991Y-10198674D02*
X9808515Y-10217722D01*
X9808515Y-10217722D02*
X9808515Y-10322484D01*
X10198991Y-10112960D02*
X10027563Y-10370103D01*
X10456134Y-10122484D02*
X10475182Y-10122484D01*
X10475182Y-10122484D02*
X10494229Y-10132008D01*
X10494229Y-10132008D02*
X10503753Y-10141531D01*
X10503753Y-10141531D02*
X10513277Y-10160579D01*
X10513277Y-10160579D02*
X10522801Y-10198674D01*
X10522801Y-10198674D02*
X10522801Y-10246293D01*
X10522801Y-10246293D02*
X10513277Y-10284389D01*
X10513277Y-10284389D02*
X10503753Y-10303436D01*
X10503753Y-10303436D02*
X10494229Y-10312960D01*
X10494229Y-10312960D02*
X10475182Y-10322484D01*
X10475182Y-10322484D02*
X10456134Y-10322484D01*
X10456134Y-10322484D02*
X10437087Y-10312960D01*
X10437087Y-10312960D02*
X10427563Y-10303436D01*
X10427563Y-10303436D02*
X10418039Y-10284389D01*
X10418039Y-10284389D02*
X10408515Y-10246293D01*
X10408515Y-10246293D02*
X10408515Y-10198674D01*
X10408515Y-10198674D02*
X10418039Y-10160579D01*
X10418039Y-10160579D02*
X10427563Y-10141531D01*
X10427563Y-10141531D02*
X10437087Y-10132008D01*
X10437087Y-10132008D02*
X10456134Y-10122484D01*
X10608515Y-10303436D02*
X10618039Y-10312960D01*
X10618039Y-10312960D02*
X10608515Y-10322484D01*
X10608515Y-10322484D02*
X10598991Y-10312960D01*
X10598991Y-10312960D02*
X10608515Y-10303436D01*
X10608515Y-10303436D02*
X10608515Y-10322484D01*
X10741848Y-10122484D02*
X10760896Y-10122484D01*
X10760896Y-10122484D02*
X10779944Y-10132008D01*
X10779944Y-10132008D02*
X10789468Y-10141531D01*
X10789468Y-10141531D02*
X10798991Y-10160579D01*
X10798991Y-10160579D02*
X10808515Y-10198674D01*
X10808515Y-10198674D02*
X10808515Y-10246293D01*
X10808515Y-10246293D02*
X10798991Y-10284389D01*
X10798991Y-10284389D02*
X10789468Y-10303436D01*
X10789468Y-10303436D02*
X10779944Y-10312960D01*
X10779944Y-10312960D02*
X10760896Y-10322484D01*
X10760896Y-10322484D02*
X10741848Y-10322484D01*
X10741848Y-10322484D02*
X10722801Y-10312960D01*
X10722801Y-10312960D02*
X10713277Y-10303436D01*
X10713277Y-10303436D02*
X10703753Y-10284389D01*
X10703753Y-10284389D02*
X10694229Y-10246293D01*
X10694229Y-10246293D02*
X10694229Y-10198674D01*
X10694229Y-10198674D02*
X10703753Y-10160579D01*
X10703753Y-10160579D02*
X10713277Y-10141531D01*
X10713277Y-10141531D02*
X10722801Y-10132008D01*
X10722801Y-10132008D02*
X10741848Y-10122484D01*
X10998991Y-10322484D02*
X10884706Y-10322484D01*
X10941848Y-10322484D02*
X10941848Y-10122484D01*
X10941848Y-10122484D02*
X10922801Y-10151055D01*
X10922801Y-10151055D02*
X10903753Y-10170103D01*
X10903753Y-10170103D02*
X10884706Y-10179627D01*
X11189467Y-10322484D02*
X11075182Y-10322484D01*
X11132325Y-10322484D02*
X11132325Y-10122484D01*
X11132325Y-10122484D02*
X11113277Y-10151055D01*
X11113277Y-10151055D02*
X11094229Y-10170103D01*
X11094229Y-10170103D02*
X11075182Y-10179627D01*
X11303753Y-10208198D02*
X11284706Y-10198674D01*
X11284706Y-10198674D02*
X11275182Y-10189150D01*
X11275182Y-10189150D02*
X11265658Y-10170103D01*
X11265658Y-10170103D02*
X11265658Y-10160579D01*
X11265658Y-10160579D02*
X11275182Y-10141531D01*
X11275182Y-10141531D02*
X11284706Y-10132008D01*
X11284706Y-10132008D02*
X11303753Y-10122484D01*
X11303753Y-10122484D02*
X11341848Y-10122484D01*
X11341848Y-10122484D02*
X11360896Y-10132008D01*
X11360896Y-10132008D02*
X11370420Y-10141531D01*
X11370420Y-10141531D02*
X11379944Y-10160579D01*
X11379944Y-10160579D02*
X11379944Y-10170103D01*
X11379944Y-10170103D02*
X11370420Y-10189150D01*
X11370420Y-10189150D02*
X11360896Y-10198674D01*
X11360896Y-10198674D02*
X11341848Y-10208198D01*
X11341848Y-10208198D02*
X11303753Y-10208198D01*
X11303753Y-10208198D02*
X11284706Y-10217722D01*
X11284706Y-10217722D02*
X11275182Y-10227246D01*
X11275182Y-10227246D02*
X11265658Y-10246293D01*
X11265658Y-10246293D02*
X11265658Y-10284389D01*
X11265658Y-10284389D02*
X11275182Y-10303436D01*
X11275182Y-10303436D02*
X11284706Y-10312960D01*
X11284706Y-10312960D02*
X11303753Y-10322484D01*
X11303753Y-10322484D02*
X11341848Y-10322484D01*
X11341848Y-10322484D02*
X11360896Y-10312960D01*
X11360896Y-10312960D02*
X11370420Y-10303436D01*
X11370420Y-10303436D02*
X11379944Y-10284389D01*
X11379944Y-10284389D02*
X11379944Y-10246293D01*
X11379944Y-10246293D02*
X11370420Y-10227246D01*
X11370420Y-10227246D02*
X11360896Y-10217722D01*
X11360896Y-10217722D02*
X11341848Y-10208198D01*
X11456134Y-10122484D02*
X11456134Y-10160579D01*
X11532325Y-10122484D02*
X11532325Y-10160579D01*
X11827563Y-10398674D02*
X11818039Y-10389150D01*
X11818039Y-10389150D02*
X11798991Y-10360579D01*
X11798991Y-10360579D02*
X11789468Y-10341531D01*
X11789468Y-10341531D02*
X11779944Y-10312960D01*
X11779944Y-10312960D02*
X11770420Y-10265341D01*
X11770420Y-10265341D02*
X11770420Y-10227246D01*
X11770420Y-10227246D02*
X11779944Y-10179627D01*
X11779944Y-10179627D02*
X11789468Y-10151055D01*
X11789468Y-10151055D02*
X11798991Y-10132008D01*
X11798991Y-10132008D02*
X11818039Y-10103436D01*
X11818039Y-10103436D02*
X11827563Y-10093912D01*
X12008515Y-10322484D02*
X11894229Y-10322484D01*
X11951372Y-10322484D02*
X11951372Y-10122484D01*
X11951372Y-10122484D02*
X11932325Y-10151055D01*
X11932325Y-10151055D02*
X11913277Y-10170103D01*
X11913277Y-10170103D02*
X11894229Y-10179627D01*
X12189468Y-10122484D02*
X12094229Y-10122484D01*
X12094229Y-10122484D02*
X12084706Y-10217722D01*
X12084706Y-10217722D02*
X12094229Y-10208198D01*
X12094229Y-10208198D02*
X12113277Y-10198674D01*
X12113277Y-10198674D02*
X12160896Y-10198674D01*
X12160896Y-10198674D02*
X12179944Y-10208198D01*
X12179944Y-10208198D02*
X12189468Y-10217722D01*
X12189468Y-10217722D02*
X12198991Y-10236770D01*
X12198991Y-10236770D02*
X12198991Y-10284389D01*
X12198991Y-10284389D02*
X12189468Y-10303436D01*
X12189468Y-10303436D02*
X12179944Y-10312960D01*
X12179944Y-10312960D02*
X12160896Y-10322484D01*
X12160896Y-10322484D02*
X12113277Y-10322484D01*
X12113277Y-10322484D02*
X12094229Y-10312960D01*
X12094229Y-10312960D02*
X12084706Y-10303436D01*
X12389468Y-10322484D02*
X12275182Y-10322484D01*
X12332325Y-10322484D02*
X12332325Y-10122484D01*
X12332325Y-10122484D02*
X12313277Y-10151055D01*
X12313277Y-10151055D02*
X12294229Y-10170103D01*
X12294229Y-10170103D02*
X12275182Y-10179627D01*
X12627563Y-10322484D02*
X12627563Y-10122484D01*
X12713277Y-10322484D02*
X12713277Y-10217722D01*
X12713277Y-10217722D02*
X12703753Y-10198674D01*
X12703753Y-10198674D02*
X12684706Y-10189150D01*
X12684706Y-10189150D02*
X12656134Y-10189150D01*
X12656134Y-10189150D02*
X12637087Y-10198674D01*
X12637087Y-10198674D02*
X12627563Y-10208198D01*
X12837087Y-10322484D02*
X12818039Y-10312960D01*
X12818039Y-10312960D02*
X12808515Y-10303436D01*
X12808515Y-10303436D02*
X12798991Y-10284389D01*
X12798991Y-10284389D02*
X12798991Y-10227246D01*
X12798991Y-10227246D02*
X12808515Y-10208198D01*
X12808515Y-10208198D02*
X12818039Y-10198674D01*
X12818039Y-10198674D02*
X12837087Y-10189150D01*
X12837087Y-10189150D02*
X12865658Y-10189150D01*
X12865658Y-10189150D02*
X12884706Y-10198674D01*
X12884706Y-10198674D02*
X12894230Y-10208198D01*
X12894230Y-10208198D02*
X12903753Y-10227246D01*
X12903753Y-10227246D02*
X12903753Y-10284389D01*
X12903753Y-10284389D02*
X12894230Y-10303436D01*
X12894230Y-10303436D02*
X12884706Y-10312960D01*
X12884706Y-10312960D02*
X12865658Y-10322484D01*
X12865658Y-10322484D02*
X12837087Y-10322484D01*
X13018039Y-10322484D02*
X12998991Y-10312960D01*
X12998991Y-10312960D02*
X12989468Y-10293912D01*
X12989468Y-10293912D02*
X12989468Y-10122484D01*
X13170420Y-10312960D02*
X13151372Y-10322484D01*
X13151372Y-10322484D02*
X13113277Y-10322484D01*
X13113277Y-10322484D02*
X13094230Y-10312960D01*
X13094230Y-10312960D02*
X13084706Y-10293912D01*
X13084706Y-10293912D02*
X13084706Y-10217722D01*
X13084706Y-10217722D02*
X13094230Y-10198674D01*
X13094230Y-10198674D02*
X13113277Y-10189150D01*
X13113277Y-10189150D02*
X13151372Y-10189150D01*
X13151372Y-10189150D02*
X13170420Y-10198674D01*
X13170420Y-10198674D02*
X13179944Y-10217722D01*
X13179944Y-10217722D02*
X13179944Y-10236770D01*
X13179944Y-10236770D02*
X13084706Y-10255817D01*
X13256134Y-10312960D02*
X13275182Y-10322484D01*
X13275182Y-10322484D02*
X13313277Y-10322484D01*
X13313277Y-10322484D02*
X13332325Y-10312960D01*
X13332325Y-10312960D02*
X13341849Y-10293912D01*
X13341849Y-10293912D02*
X13341849Y-10284389D01*
X13341849Y-10284389D02*
X13332325Y-10265341D01*
X13332325Y-10265341D02*
X13313277Y-10255817D01*
X13313277Y-10255817D02*
X13284706Y-10255817D01*
X13284706Y-10255817D02*
X13265658Y-10246293D01*
X13265658Y-10246293D02*
X13256134Y-10227246D01*
X13256134Y-10227246D02*
X13256134Y-10217722D01*
X13256134Y-10217722D02*
X13265658Y-10198674D01*
X13265658Y-10198674D02*
X13284706Y-10189150D01*
X13284706Y-10189150D02*
X13313277Y-10189150D01*
X13313277Y-10189150D02*
X13332325Y-10198674D01*
X13408515Y-10398674D02*
X13418039Y-10389150D01*
X13418039Y-10389150D02*
X13437087Y-10360579D01*
X13437087Y-10360579D02*
X13446611Y-10341531D01*
X13446611Y-10341531D02*
X13456134Y-10312960D01*
X13456134Y-10312960D02*
X13465658Y-10265341D01*
X13465658Y-10265341D02*
X13465658Y-10227246D01*
X13465658Y-10227246D02*
X13456134Y-10179627D01*
X13456134Y-10179627D02*
X13446611Y-10151055D01*
X13446611Y-10151055D02*
X13437087Y-10132008D01*
X13437087Y-10132008D02*
X13418039Y-10103436D01*
X13418039Y-10103436D02*
X13408515Y-10093912D01*
D12*
X8252500Y-10495000D02*
G75*
G02*
X8152500Y-10495000I-50000J0D01*
G01*
X8152500Y-10495000D02*
G75*
G02*
X8252500Y-10495000I50000J0D01*
G01*
D11*
X8618039Y-10586484D02*
X8503753Y-10586484D01*
X8560896Y-10586484D02*
X8560896Y-10386484D01*
X8560896Y-10386484D02*
X8541848Y-10415055D01*
X8541848Y-10415055D02*
X8522801Y-10434103D01*
X8522801Y-10434103D02*
X8503753Y-10443627D01*
X8703753Y-10567436D02*
X8713277Y-10576960D01*
X8713277Y-10576960D02*
X8703753Y-10586484D01*
X8703753Y-10586484D02*
X8694229Y-10576960D01*
X8694229Y-10576960D02*
X8703753Y-10567436D01*
X8703753Y-10567436D02*
X8703753Y-10586484D01*
X8837086Y-10386484D02*
X8856134Y-10386484D01*
X8856134Y-10386484D02*
X8875182Y-10396008D01*
X8875182Y-10396008D02*
X8884705Y-10405531D01*
X8884705Y-10405531D02*
X8894229Y-10424579D01*
X8894229Y-10424579D02*
X8903753Y-10462674D01*
X8903753Y-10462674D02*
X8903753Y-10510293D01*
X8903753Y-10510293D02*
X8894229Y-10548389D01*
X8894229Y-10548389D02*
X8884705Y-10567436D01*
X8884705Y-10567436D02*
X8875182Y-10576960D01*
X8875182Y-10576960D02*
X8856134Y-10586484D01*
X8856134Y-10586484D02*
X8837086Y-10586484D01*
X8837086Y-10586484D02*
X8818039Y-10576960D01*
X8818039Y-10576960D02*
X8808515Y-10567436D01*
X8808515Y-10567436D02*
X8798991Y-10548389D01*
X8798991Y-10548389D02*
X8789467Y-10510293D01*
X8789467Y-10510293D02*
X8789467Y-10462674D01*
X8789467Y-10462674D02*
X8798991Y-10424579D01*
X8798991Y-10424579D02*
X8808515Y-10405531D01*
X8808515Y-10405531D02*
X8818039Y-10396008D01*
X8818039Y-10396008D02*
X8837086Y-10386484D01*
X9027563Y-10386484D02*
X9046610Y-10386484D01*
X9046610Y-10386484D02*
X9065658Y-10396008D01*
X9065658Y-10396008D02*
X9075182Y-10405531D01*
X9075182Y-10405531D02*
X9084705Y-10424579D01*
X9084705Y-10424579D02*
X9094229Y-10462674D01*
X9094229Y-10462674D02*
X9094229Y-10510293D01*
X9094229Y-10510293D02*
X9084705Y-10548389D01*
X9084705Y-10548389D02*
X9075182Y-10567436D01*
X9075182Y-10567436D02*
X9065658Y-10576960D01*
X9065658Y-10576960D02*
X9046610Y-10586484D01*
X9046610Y-10586484D02*
X9027563Y-10586484D01*
X9027563Y-10586484D02*
X9008515Y-10576960D01*
X9008515Y-10576960D02*
X8998991Y-10567436D01*
X8998991Y-10567436D02*
X8989467Y-10548389D01*
X8989467Y-10548389D02*
X8979944Y-10510293D01*
X8979944Y-10510293D02*
X8979944Y-10462674D01*
X8979944Y-10462674D02*
X8989467Y-10424579D01*
X8989467Y-10424579D02*
X8998991Y-10405531D01*
X8998991Y-10405531D02*
X9008515Y-10396008D01*
X9008515Y-10396008D02*
X9027563Y-10386484D01*
X9218039Y-10386484D02*
X9237086Y-10386484D01*
X9237086Y-10386484D02*
X9256134Y-10396008D01*
X9256134Y-10396008D02*
X9265658Y-10405531D01*
X9265658Y-10405531D02*
X9275182Y-10424579D01*
X9275182Y-10424579D02*
X9284705Y-10462674D01*
X9284705Y-10462674D02*
X9284705Y-10510293D01*
X9284705Y-10510293D02*
X9275182Y-10548389D01*
X9275182Y-10548389D02*
X9265658Y-10567436D01*
X9265658Y-10567436D02*
X9256134Y-10576960D01*
X9256134Y-10576960D02*
X9237086Y-10586484D01*
X9237086Y-10586484D02*
X9218039Y-10586484D01*
X9218039Y-10586484D02*
X9198991Y-10576960D01*
X9198991Y-10576960D02*
X9189467Y-10567436D01*
X9189467Y-10567436D02*
X9179944Y-10548389D01*
X9179944Y-10548389D02*
X9170420Y-10510293D01*
X9170420Y-10510293D02*
X9170420Y-10462674D01*
X9170420Y-10462674D02*
X9179944Y-10424579D01*
X9179944Y-10424579D02*
X9189467Y-10405531D01*
X9189467Y-10405531D02*
X9198991Y-10396008D01*
X9198991Y-10396008D02*
X9218039Y-10386484D01*
X9370420Y-10586484D02*
X9370420Y-10453150D01*
X9370420Y-10472198D02*
X9379944Y-10462674D01*
X9379944Y-10462674D02*
X9398991Y-10453150D01*
X9398991Y-10453150D02*
X9427563Y-10453150D01*
X9427563Y-10453150D02*
X9446610Y-10462674D01*
X9446610Y-10462674D02*
X9456134Y-10481722D01*
X9456134Y-10481722D02*
X9456134Y-10586484D01*
X9456134Y-10481722D02*
X9465658Y-10462674D01*
X9465658Y-10462674D02*
X9484705Y-10453150D01*
X9484705Y-10453150D02*
X9513277Y-10453150D01*
X9513277Y-10453150D02*
X9532325Y-10462674D01*
X9532325Y-10462674D02*
X9541848Y-10481722D01*
X9541848Y-10481722D02*
X9541848Y-10586484D01*
X9637086Y-10586484D02*
X9637086Y-10453150D01*
X9637086Y-10472198D02*
X9646610Y-10462674D01*
X9646610Y-10462674D02*
X9665658Y-10453150D01*
X9665658Y-10453150D02*
X9694229Y-10453150D01*
X9694229Y-10453150D02*
X9713277Y-10462674D01*
X9713277Y-10462674D02*
X9722801Y-10481722D01*
X9722801Y-10481722D02*
X9722801Y-10586484D01*
X9722801Y-10481722D02*
X9732325Y-10462674D01*
X9732325Y-10462674D02*
X9751372Y-10453150D01*
X9751372Y-10453150D02*
X9779944Y-10453150D01*
X9779944Y-10453150D02*
X9798991Y-10462674D01*
X9798991Y-10462674D02*
X9808515Y-10481722D01*
X9808515Y-10481722D02*
X9808515Y-10586484D01*
X10198991Y-10376960D02*
X10027563Y-10634103D01*
X10456134Y-10386484D02*
X10475182Y-10386484D01*
X10475182Y-10386484D02*
X10494229Y-10396008D01*
X10494229Y-10396008D02*
X10503753Y-10405531D01*
X10503753Y-10405531D02*
X10513277Y-10424579D01*
X10513277Y-10424579D02*
X10522801Y-10462674D01*
X10522801Y-10462674D02*
X10522801Y-10510293D01*
X10522801Y-10510293D02*
X10513277Y-10548389D01*
X10513277Y-10548389D02*
X10503753Y-10567436D01*
X10503753Y-10567436D02*
X10494229Y-10576960D01*
X10494229Y-10576960D02*
X10475182Y-10586484D01*
X10475182Y-10586484D02*
X10456134Y-10586484D01*
X10456134Y-10586484D02*
X10437087Y-10576960D01*
X10437087Y-10576960D02*
X10427563Y-10567436D01*
X10427563Y-10567436D02*
X10418039Y-10548389D01*
X10418039Y-10548389D02*
X10408515Y-10510293D01*
X10408515Y-10510293D02*
X10408515Y-10462674D01*
X10408515Y-10462674D02*
X10418039Y-10424579D01*
X10418039Y-10424579D02*
X10427563Y-10405531D01*
X10427563Y-10405531D02*
X10437087Y-10396008D01*
X10437087Y-10396008D02*
X10456134Y-10386484D01*
X10608515Y-10567436D02*
X10618039Y-10576960D01*
X10618039Y-10576960D02*
X10608515Y-10586484D01*
X10608515Y-10586484D02*
X10598991Y-10576960D01*
X10598991Y-10576960D02*
X10608515Y-10567436D01*
X10608515Y-10567436D02*
X10608515Y-10586484D01*
X10741848Y-10386484D02*
X10760896Y-10386484D01*
X10760896Y-10386484D02*
X10779944Y-10396008D01*
X10779944Y-10396008D02*
X10789468Y-10405531D01*
X10789468Y-10405531D02*
X10798991Y-10424579D01*
X10798991Y-10424579D02*
X10808515Y-10462674D01*
X10808515Y-10462674D02*
X10808515Y-10510293D01*
X10808515Y-10510293D02*
X10798991Y-10548389D01*
X10798991Y-10548389D02*
X10789468Y-10567436D01*
X10789468Y-10567436D02*
X10779944Y-10576960D01*
X10779944Y-10576960D02*
X10760896Y-10586484D01*
X10760896Y-10586484D02*
X10741848Y-10586484D01*
X10741848Y-10586484D02*
X10722801Y-10576960D01*
X10722801Y-10576960D02*
X10713277Y-10567436D01*
X10713277Y-10567436D02*
X10703753Y-10548389D01*
X10703753Y-10548389D02*
X10694229Y-10510293D01*
X10694229Y-10510293D02*
X10694229Y-10462674D01*
X10694229Y-10462674D02*
X10703753Y-10424579D01*
X10703753Y-10424579D02*
X10713277Y-10405531D01*
X10713277Y-10405531D02*
X10722801Y-10396008D01*
X10722801Y-10396008D02*
X10741848Y-10386484D01*
X10875182Y-10386484D02*
X10998991Y-10386484D01*
X10998991Y-10386484D02*
X10932325Y-10462674D01*
X10932325Y-10462674D02*
X10960896Y-10462674D01*
X10960896Y-10462674D02*
X10979944Y-10472198D01*
X10979944Y-10472198D02*
X10989468Y-10481722D01*
X10989468Y-10481722D02*
X10998991Y-10500770D01*
X10998991Y-10500770D02*
X10998991Y-10548389D01*
X10998991Y-10548389D02*
X10989468Y-10567436D01*
X10989468Y-10567436D02*
X10979944Y-10576960D01*
X10979944Y-10576960D02*
X10960896Y-10586484D01*
X10960896Y-10586484D02*
X10903753Y-10586484D01*
X10903753Y-10586484D02*
X10884706Y-10576960D01*
X10884706Y-10576960D02*
X10875182Y-10567436D01*
X11094229Y-10586484D02*
X11132325Y-10586484D01*
X11132325Y-10586484D02*
X11151372Y-10576960D01*
X11151372Y-10576960D02*
X11160896Y-10567436D01*
X11160896Y-10567436D02*
X11179944Y-10538865D01*
X11179944Y-10538865D02*
X11189467Y-10500770D01*
X11189467Y-10500770D02*
X11189467Y-10424579D01*
X11189467Y-10424579D02*
X11179944Y-10405531D01*
X11179944Y-10405531D02*
X11170420Y-10396008D01*
X11170420Y-10396008D02*
X11151372Y-10386484D01*
X11151372Y-10386484D02*
X11113277Y-10386484D01*
X11113277Y-10386484D02*
X11094229Y-10396008D01*
X11094229Y-10396008D02*
X11084706Y-10405531D01*
X11084706Y-10405531D02*
X11075182Y-10424579D01*
X11075182Y-10424579D02*
X11075182Y-10472198D01*
X11075182Y-10472198D02*
X11084706Y-10491246D01*
X11084706Y-10491246D02*
X11094229Y-10500770D01*
X11094229Y-10500770D02*
X11113277Y-10510293D01*
X11113277Y-10510293D02*
X11151372Y-10510293D01*
X11151372Y-10510293D02*
X11170420Y-10500770D01*
X11170420Y-10500770D02*
X11179944Y-10491246D01*
X11179944Y-10491246D02*
X11189467Y-10472198D01*
X11360896Y-10453150D02*
X11360896Y-10586484D01*
X11313277Y-10376960D02*
X11265658Y-10519817D01*
X11265658Y-10519817D02*
X11389467Y-10519817D01*
X11456134Y-10386484D02*
X11456134Y-10424579D01*
X11532325Y-10386484D02*
X11532325Y-10424579D01*
X11827563Y-10662674D02*
X11818039Y-10653150D01*
X11818039Y-10653150D02*
X11798991Y-10624579D01*
X11798991Y-10624579D02*
X11789468Y-10605531D01*
X11789468Y-10605531D02*
X11779944Y-10576960D01*
X11779944Y-10576960D02*
X11770420Y-10529341D01*
X11770420Y-10529341D02*
X11770420Y-10491246D01*
X11770420Y-10491246D02*
X11779944Y-10443627D01*
X11779944Y-10443627D02*
X11789468Y-10415055D01*
X11789468Y-10415055D02*
X11798991Y-10396008D01*
X11798991Y-10396008D02*
X11818039Y-10367436D01*
X11818039Y-10367436D02*
X11827563Y-10357912D01*
X12008515Y-10586484D02*
X11894229Y-10586484D01*
X11951372Y-10586484D02*
X11951372Y-10386484D01*
X11951372Y-10386484D02*
X11932325Y-10415055D01*
X11932325Y-10415055D02*
X11913277Y-10434103D01*
X11913277Y-10434103D02*
X11894229Y-10443627D01*
X12132325Y-10386484D02*
X12151372Y-10386484D01*
X12151372Y-10386484D02*
X12170420Y-10396008D01*
X12170420Y-10396008D02*
X12179944Y-10405531D01*
X12179944Y-10405531D02*
X12189468Y-10424579D01*
X12189468Y-10424579D02*
X12198991Y-10462674D01*
X12198991Y-10462674D02*
X12198991Y-10510293D01*
X12198991Y-10510293D02*
X12189468Y-10548389D01*
X12189468Y-10548389D02*
X12179944Y-10567436D01*
X12179944Y-10567436D02*
X12170420Y-10576960D01*
X12170420Y-10576960D02*
X12151372Y-10586484D01*
X12151372Y-10586484D02*
X12132325Y-10586484D01*
X12132325Y-10586484D02*
X12113277Y-10576960D01*
X12113277Y-10576960D02*
X12103753Y-10567436D01*
X12103753Y-10567436D02*
X12094229Y-10548389D01*
X12094229Y-10548389D02*
X12084706Y-10510293D01*
X12084706Y-10510293D02*
X12084706Y-10462674D01*
X12084706Y-10462674D02*
X12094229Y-10424579D01*
X12094229Y-10424579D02*
X12103753Y-10405531D01*
X12103753Y-10405531D02*
X12113277Y-10396008D01*
X12113277Y-10396008D02*
X12132325Y-10386484D01*
X12322801Y-10386484D02*
X12341849Y-10386484D01*
X12341849Y-10386484D02*
X12360896Y-10396008D01*
X12360896Y-10396008D02*
X12370420Y-10405531D01*
X12370420Y-10405531D02*
X12379944Y-10424579D01*
X12379944Y-10424579D02*
X12389468Y-10462674D01*
X12389468Y-10462674D02*
X12389468Y-10510293D01*
X12389468Y-10510293D02*
X12379944Y-10548389D01*
X12379944Y-10548389D02*
X12370420Y-10567436D01*
X12370420Y-10567436D02*
X12360896Y-10576960D01*
X12360896Y-10576960D02*
X12341849Y-10586484D01*
X12341849Y-10586484D02*
X12322801Y-10586484D01*
X12322801Y-10586484D02*
X12303753Y-10576960D01*
X12303753Y-10576960D02*
X12294229Y-10567436D01*
X12294229Y-10567436D02*
X12284706Y-10548389D01*
X12284706Y-10548389D02*
X12275182Y-10510293D01*
X12275182Y-10510293D02*
X12275182Y-10462674D01*
X12275182Y-10462674D02*
X12284706Y-10424579D01*
X12284706Y-10424579D02*
X12294229Y-10405531D01*
X12294229Y-10405531D02*
X12303753Y-10396008D01*
X12303753Y-10396008D02*
X12322801Y-10386484D01*
X12627563Y-10586484D02*
X12627563Y-10386484D01*
X12713277Y-10586484D02*
X12713277Y-10481722D01*
X12713277Y-10481722D02*
X12703753Y-10462674D01*
X12703753Y-10462674D02*
X12684706Y-10453150D01*
X12684706Y-10453150D02*
X12656134Y-10453150D01*
X12656134Y-10453150D02*
X12637087Y-10462674D01*
X12637087Y-10462674D02*
X12627563Y-10472198D01*
X12837087Y-10586484D02*
X12818039Y-10576960D01*
X12818039Y-10576960D02*
X12808515Y-10567436D01*
X12808515Y-10567436D02*
X12798991Y-10548389D01*
X12798991Y-10548389D02*
X12798991Y-10491246D01*
X12798991Y-10491246D02*
X12808515Y-10472198D01*
X12808515Y-10472198D02*
X12818039Y-10462674D01*
X12818039Y-10462674D02*
X12837087Y-10453150D01*
X12837087Y-10453150D02*
X12865658Y-10453150D01*
X12865658Y-10453150D02*
X12884706Y-10462674D01*
X12884706Y-10462674D02*
X12894230Y-10472198D01*
X12894230Y-10472198D02*
X12903753Y-10491246D01*
X12903753Y-10491246D02*
X12903753Y-10548389D01*
X12903753Y-10548389D02*
X12894230Y-10567436D01*
X12894230Y-10567436D02*
X12884706Y-10576960D01*
X12884706Y-10576960D02*
X12865658Y-10586484D01*
X12865658Y-10586484D02*
X12837087Y-10586484D01*
X13018039Y-10586484D02*
X12998991Y-10576960D01*
X12998991Y-10576960D02*
X12989468Y-10557912D01*
X12989468Y-10557912D02*
X12989468Y-10386484D01*
X13170420Y-10576960D02*
X13151372Y-10586484D01*
X13151372Y-10586484D02*
X13113277Y-10586484D01*
X13113277Y-10586484D02*
X13094230Y-10576960D01*
X13094230Y-10576960D02*
X13084706Y-10557912D01*
X13084706Y-10557912D02*
X13084706Y-10481722D01*
X13084706Y-10481722D02*
X13094230Y-10462674D01*
X13094230Y-10462674D02*
X13113277Y-10453150D01*
X13113277Y-10453150D02*
X13151372Y-10453150D01*
X13151372Y-10453150D02*
X13170420Y-10462674D01*
X13170420Y-10462674D02*
X13179944Y-10481722D01*
X13179944Y-10481722D02*
X13179944Y-10500770D01*
X13179944Y-10500770D02*
X13084706Y-10519817D01*
X13256134Y-10576960D02*
X13275182Y-10586484D01*
X13275182Y-10586484D02*
X13313277Y-10586484D01*
X13313277Y-10586484D02*
X13332325Y-10576960D01*
X13332325Y-10576960D02*
X13341849Y-10557912D01*
X13341849Y-10557912D02*
X13341849Y-10548389D01*
X13341849Y-10548389D02*
X13332325Y-10529341D01*
X13332325Y-10529341D02*
X13313277Y-10519817D01*
X13313277Y-10519817D02*
X13284706Y-10519817D01*
X13284706Y-10519817D02*
X13265658Y-10510293D01*
X13265658Y-10510293D02*
X13256134Y-10491246D01*
X13256134Y-10491246D02*
X13256134Y-10481722D01*
X13256134Y-10481722D02*
X13265658Y-10462674D01*
X13265658Y-10462674D02*
X13284706Y-10453150D01*
X13284706Y-10453150D02*
X13313277Y-10453150D01*
X13313277Y-10453150D02*
X13332325Y-10462674D01*
X13408515Y-10662674D02*
X13418039Y-10653150D01*
X13418039Y-10653150D02*
X13437087Y-10624579D01*
X13437087Y-10624579D02*
X13446611Y-10605531D01*
X13446611Y-10605531D02*
X13456134Y-10576960D01*
X13456134Y-10576960D02*
X13465658Y-10529341D01*
X13465658Y-10529341D02*
X13465658Y-10491246D01*
X13465658Y-10491246D02*
X13456134Y-10443627D01*
X13456134Y-10443627D02*
X13446611Y-10415055D01*
X13446611Y-10415055D02*
X13437087Y-10396008D01*
X13437087Y-10396008D02*
X13418039Y-10367436D01*
X13418039Y-10367436D02*
X13408515Y-10357912D01*
M02*
